<?xml version="1.0" encoding="UTF-8"?>
<!DOCTYPE svg PUBLIC "-//W3C//DTD SVG 1.1//EN" "http://www.w3.org/Graphics/SVG/1.1/DTD/svg11.dtd">
<svg xmlns="http://www.w3.org/2000/svg" version="1.1" width="1353px" height="625px" style="shape-rendering:geometricPrecision; text-rendering:geometricPrecision; image-rendering:optimizeQuality; fill-rule:evenodd; clip-rule:evenodd" xmlns:xlink="http://www.w3.org/1999/xlink">
<g><path style="opacity:1" fill="#485a63" d="M -0.5,-0.5 C 450.5,-0.5 901.5,-0.5 1352.5,-0.5C 1352.5,3.5 1352.5,7.5 1352.5,11.5C 901.5,11.5 450.5,11.5 -0.5,11.5C -0.5,7.5 -0.5,3.5 -0.5,-0.5 Z"/></g>
<g><path style="opacity:1" fill="#101023" d="M -0.5,11.5 C 450.5,11.5 901.5,11.5 1352.5,11.5C 1352.5,215.833 1352.5,420.167 1352.5,624.5C 901.5,624.5 450.5,624.5 -0.5,624.5C -0.5,420.167 -0.5,215.833 -0.5,11.5 Z"/></g>
<g><path style="opacity:1" fill="#20202a" d="M 326.5,39.5 C 444.5,39.3333 562.5,39.5 680.5,40C 694.904,43.5679 702.571,52.7346 703.5,67.5C 702.541,82.2912 694.874,91.4579 680.5,95C 562.5,95.6667 444.5,95.6667 326.5,95C 312.155,91.4836 304.489,82.317 303.5,67.5C 304.652,52.692 312.318,43.3586 326.5,39.5 Z"/></g>
<g><path style="opacity:1" fill="#8d805b" d="M 1317.5,43.5 C 1315.33,44.198 1313.5,45.5313 1312,47.5C 1311.28,49.8791 1310.12,51.8791 1308.5,53.5C 1309.15,51.5648 1309.48,49.5648 1309.5,47.5C 1307.83,47.5 1306.17,47.5 1304.5,47.5C 1308.34,44.9217 1312.67,43.5884 1317.5,43.5 Z"/></g>
<g><path style="opacity:1" fill="#c9c1bb" d="M 1143.5,50.5 C 1145.6,50.2011 1147.6,50.5344 1149.5,51.5C 1147.78,51.9972 1146.12,52.3306 1144.5,52.5C 1143.7,52.0431 1143.37,51.3764 1143.5,50.5 Z"/></g>
<g><path style="opacity:1" fill="#c59861" d="M 1175.5,50.5 C 1177.34,50.6395 1177.67,51.3061 1176.5,52.5C 1175.7,52.0431 1175.37,51.3764 1175.5,50.5 Z"/></g>
<g><path style="opacity:1" fill="#d5d1c9" d="M 1153.5,53.5 C 1159.26,53.7204 1160.93,56.5537 1158.5,62C 1151.42,62.4195 1149.76,59.5862 1153.5,53.5 Z"/></g>
<g><path style="opacity:1" fill="#bfb8af" d="M 1174.5,53.5 C 1175.5,53.5 1176.5,53.5 1177.5,53.5C 1177.5,56.5 1177.5,59.5 1177.5,62.5C 1176.5,62.5 1175.5,62.5 1174.5,62.5C 1174.5,59.5 1174.5,56.5 1174.5,53.5 Z"/></g>
<g><path style="opacity:1" fill="#c6ced1" d="M 1187.5,51.5 C 1188.93,52.0819 1190.26,52.9152 1191.5,54C 1188.9,56.4114 1188.9,58.9114 1191.5,61.5C 1190.35,62.731 1189.18,62.731 1188,61.5C 1187.77,58.905 1187.27,56.405 1186.5,54C 1187.25,53.3292 1187.59,52.4959 1187.5,51.5 Z"/></g>
<g><path style="opacity:1" fill="#cdc3b5" d="M 1201.5,53.5 C 1203.29,53.2148 1204.95,53.5481 1206.5,54.5C 1205.68,55.3857 1204.68,55.719 1203.5,55.5C 1203.81,57.924 1203.47,60.2573 1202.5,62.5C 1201.52,59.5719 1201.18,56.5719 1201.5,53.5 Z"/></g>
<g><path style="opacity:1" fill="#e2ddd5" d="M 34.5,55.5 C 36.1667,55.5 37.8333,55.5 39.5,55.5C 39.5,63.1667 39.5,70.8333 39.5,78.5C 35.601,77.8171 31.601,77.6504 27.5,78C 24.6403,74.3186 23.8069,70.1519 25,65.5C 27.4746,62.4764 30.4746,61.8097 34,63.5C 34.4974,60.854 34.6641,58.1873 34.5,55.5 Z"/></g>
<g><path style="opacity:1" fill="#e3dad3" d="M 71.5,55.5 C 73.1667,55.5 74.8333,55.5 76.5,55.5C 76.3359,58.1873 76.5026,60.854 77,63.5C 80.3937,61.7253 83.0604,62.392 85,65.5C 85.499,69.8206 85.6657,74.1539 85.5,78.5C 83.8333,78.5 82.1667,78.5 80.5,78.5C 80.5,74.5 80.5,70.5 80.5,66.5C 79.1667,66.5 77.8333,66.5 76.5,66.5C 76.5,70.5 76.5,74.5 76.5,78.5C 74.8333,78.5 73.1667,78.5 71.5,78.5C 71.5,70.8333 71.5,63.1667 71.5,55.5 Z"/></g>
<g><path style="opacity:1" fill="#2e2743" d="M 1154.5,54.5 C 1156.72,54.5587 1157.72,55.7253 1157.5,58C 1156.17,62.6667 1154.83,62.6667 1153.5,58C 1153.65,56.7441 1153.98,55.5774 1154.5,54.5 Z"/></g>
<g><path style="opacity:1" fill="#453b32" d="M 1317.5,43.5 C 1321.31,44.0364 1324.98,45.0364 1328.5,46.5C 1327.83,50.8599 1325.17,52.8599 1320.5,52.5C 1320.34,54.8176 1319.18,56.4843 1317,57.5C 1314.23,58.3479 1311.4,58.6813 1308.5,58.5C 1308.5,57.5 1308.5,56.5 1308.5,55.5C 1308.5,54.8333 1308.5,54.1667 1308.5,53.5C 1310.12,51.8791 1311.28,49.8791 1312,47.5C 1313.5,45.5313 1315.33,44.198 1317.5,43.5 Z"/></g>
<g><path style="opacity:1" fill="#705b48" d="M 1328.5,46.5 C 1331.11,47.4431 1333.11,49.1097 1334.5,51.5C 1332.83,51.5 1331.17,51.5 1329.5,51.5C 1329.42,52.9305 1329.75,54.2638 1330.5,55.5C 1329.68,57.1112 1328.35,57.7778 1326.5,57.5C 1326.36,60.5879 1325.36,63.2546 1323.5,65.5C 1320.66,63.9827 1317.66,62.9827 1314.5,62.5C 1314.5,61.5 1314.5,60.5 1314.5,59.5C 1311.96,59.1043 1309.79,59.771 1308,61.5C 1307.51,59.8659 1307.34,58.1992 1307.5,56.5C 1307.5,55.8333 1307.83,55.5 1308.5,55.5C 1308.5,56.5 1308.5,57.5 1308.5,58.5C 1311.4,58.6813 1314.23,58.3479 1317,57.5C 1319.18,56.4843 1320.34,54.8176 1320.5,52.5C 1325.17,52.8599 1327.83,50.8599 1328.5,46.5 Z"/></g>
<g><path style="opacity:1" fill="#cec5bc" d="M 1180.5,53.5 C 1183.04,53.1505 1185.04,53.9838 1186.5,56C 1184.58,55.8651 1182.58,55.6984 1180.5,55.5C 1180.5,57.1667 1180.5,58.8333 1180.5,60.5C 1182.67,60.0798 1184.67,60.0798 1186.5,60.5C 1184.08,63.1283 1181.58,63.1283 1179,60.5C 1178.19,57.8018 1178.69,55.4685 1180.5,53.5 Z"/></g>
<g><path style="opacity:1" fill="#c8c2bf" d="M 1193.5,53.5 C 1200.49,53.331 1202.15,56.1643 1198.5,62C 1196.56,62.7429 1194.73,62.5762 1193,61.5C 1192.28,58.7395 1192.44,56.0728 1193.5,53.5 Z"/></g>
<g><path style="opacity:1" fill="#141022" d="M 1194.5,55.5 C 1195.5,55.5 1196.5,55.5 1197.5,55.5C 1197.5,57.1667 1197.5,58.8333 1197.5,60.5C 1196.5,60.5 1195.5,60.5 1194.5,60.5C 1194.5,58.8333 1194.5,57.1667 1194.5,55.5 Z"/></g>
<g><path style="opacity:1" fill="#c3c6c8" d="M 1144.5,53.5 C 1146.14,53.2865 1147.64,53.6198 1149,54.5C 1149.5,57.146 1149.66,59.8127 1149.5,62.5C 1147.21,62.7564 1145.04,62.4231 1143,61.5C 1142.36,58.0699 1143.86,56.7366 1147.5,57.5C 1147.34,53.8649 1146.18,53.5315 1144,56.5C 1143.53,55.4232 1143.7,54.4232 1144.5,53.5 Z"/></g>
<g><path style="opacity:1" fill="#d4c9b7" d="M 1163.5,51.5 C 1164.39,50.2241 1165.39,50.2241 1166.5,51.5C 1167.63,54.0698 1168.47,56.7365 1169,59.5C 1169.88,56.3723 1171.04,53.3723 1172.5,50.5C 1172.83,51.1667 1173.17,51.8333 1173.5,52.5C 1172.48,55.8596 1171.48,59.193 1170.5,62.5C 1169.5,62.5 1168.5,62.5 1167.5,62.5C 1166.54,58.617 1165.21,54.9503 1163.5,51.5 Z"/></g>
<g><path style="opacity:1" fill="#cfcdc8" d="M 1130.5,50.5 C 1131.78,51.6936 1132.44,53.3603 1132.5,55.5C 1133.16,61.008 1130.83,63.1746 1125.5,62C 1124.29,61.1072 1124.29,60.2739 1125.5,59.5C 1127.04,60.7468 1128.54,60.7468 1130,59.5C 1130.5,56.5184 1130.66,53.5184 1130.5,50.5 Z"/></g>
<g><path style="opacity:1" fill="#d6cfc7" d="M 1135.5,53.5 C 1137.47,53.2606 1139.3,53.5939 1141,54.5C 1143.01,62.1699 1140.68,64.1699 1134,60.5C 1133.17,57.829 1133.67,55.4957 1135.5,53.5 Z"/></g>
<g><path style="opacity:1" fill="#2b2039" d="M 1136.5,54.5 C 1137.5,54.4142 1138.33,54.7476 1139,55.5C 1139.82,57.728 1139.49,59.728 1138,61.5C 1135.43,59.5734 1134.93,57.2401 1136.5,54.5 Z"/></g>
<g><path style="opacity:1" fill="#dcdde1" d="M 43.5,62.5 C 47.2568,62.0708 50.7568,62.7375 54,64.5C 54.4992,69.1548 54.6658,73.8215 54.5,78.5C 51.7381,77.6473 49.0715,77.6473 46.5,78.5C 39.8089,77.2325 38.8089,74.0658 43.5,69C 45.5767,68.8078 47.5767,68.3078 49.5,67.5C 46.5535,66.6786 43.5535,66.1786 40.5,66C 41.7101,64.9609 42.7101,63.7942 43.5,62.5 Z"/></g>
<g><path style="opacity:1" fill="#e0dede" d="M 58.5,62.5 C 62.2568,62.0708 65.7568,62.7375 69,64.5C 69.4828,65.448 69.6495,66.448 69.5,67.5C 66.8431,67.838 64.5098,67.1713 62.5,65.5C 61.6143,66.325 61.281,67.325 61.5,68.5C 67.3771,68.2057 69.8771,70.8724 69,76.5C 65.7441,78.4285 62.2441,78.9285 58.5,78C 56.9632,76.8904 56.2965,75.3904 56.5,73.5C 59.3297,73.6941 61.9963,74.3608 64.5,75.5C 64.5,74.5 64.5,73.5 64.5,72.5C 56.8817,72.2522 54.8817,68.9189 58.5,62.5 Z"/></g>
<g><path style="opacity:1" fill="#dddee2" d="M 90.5,62.5 C 94.315,63.1049 97.9817,63.1049 101.5,62.5C 101.666,68.8421 101.5,75.1754 101,81.5C 97.6621,84.3181 93.8288,85.1515 89.5,84C 86.9211,82.3883 86.9211,80.8883 89.5,79.5C 91.8392,80.724 94.1725,80.724 96.5,79.5C 88.7694,79.0184 85.6028,75.0184 87,67.5C 87.2572,65.0935 88.4238,63.4268 90.5,62.5 Z"/></g>
<g><path style="opacity:1" fill="#dddcde" d="M 106.5,62.5 C 115.657,61.4892 119.49,65.4892 118,74.5C 113.625,79.3815 108.958,79.7148 104,75.5C 101.458,70.4379 102.292,66.1046 106.5,62.5 Z"/></g>
<g><path style="opacity:1" fill="#9698a8" d="M 657.5,57.5 C 666.495,56.9728 669.495,60.8061 666.5,69C 668.616,70.1707 669.282,71.6707 668.5,73.5C 667.186,72.6872 666.019,71.6872 665,70.5C 660.779,73.3656 657.112,72.699 654,68.5C 652.663,63.8721 653.83,60.2054 657.5,57.5 Z"/></g>
<g><path style="opacity:1" fill="#21222c" d="M 657.5,59.5 C 665.58,58.7256 667.913,61.8923 664.5,69C 659.309,71.7382 656.309,70.2382 655.5,64.5C 655.437,62.4861 656.103,60.8194 657.5,59.5 Z"/></g>
<g><path style="opacity:1" fill="#4f3e32" d="M 1334.5,51.5 C 1339.95,56.1724 1342.28,62.1724 1341.5,69.5C 1338.49,71.6722 1335.16,73.3389 1331.5,74.5C 1330.47,72.0392 1329.8,69.3725 1329.5,66.5C 1327.26,66.7947 1325.26,66.4614 1323.5,65.5C 1325.36,63.2546 1326.36,60.5879 1326.5,57.5C 1328.35,57.7778 1329.68,57.1112 1330.5,55.5C 1329.75,54.2638 1329.42,52.9305 1329.5,51.5C 1331.17,51.5 1332.83,51.5 1334.5,51.5 Z"/></g>
<g><path style="opacity:1" fill="#506997" d="M 362.5,63.5 C 363.314,65.631 363.814,67.9644 364,70.5C 365,71.8333 366,71.8333 367,70.5C 367.333,68.1667 367.667,65.8333 368,63.5C 368.498,66.4816 368.665,69.4816 368.5,72.5C 366.533,72.7394 364.699,72.4061 363,71.5C 362.503,68.854 362.336,66.1873 362.5,63.5 Z"/></g>
<g><path style="opacity:1" fill="#5c5e78" d="M 415.5,63.5 C 417.467,63.2606 419.301,63.5939 421,64.5C 421.497,67.146 421.664,69.8127 421.5,72.5C 419.208,72.7564 417.041,72.4231 415,71.5C 414.333,70.5 414.333,69.5 415,68.5C 416.509,67.9103 418.009,67.2436 419.5,66.5C 418.112,63.9211 416.612,63.9211 415,66.5C 414.53,65.4232 414.697,64.4232 415.5,63.5 Z"/></g>
<g><path style="opacity:1" fill="#56576c" d="M 427.5,63.5 C 434.232,62.4816 436.232,65.1483 433.5,71.5C 432.264,72.2458 430.93,72.5792 429.5,72.5C 429.719,73.675 429.386,74.675 428.5,75.5C 427.509,71.5546 427.176,67.5546 427.5,63.5 Z"/></g>
<g><path style="opacity:1" fill="#636a88" d="M 482.5,63.5 C 485.32,63.2475 487.986,63.7475 490.5,65C 489.726,67.405 489.226,69.905 489,72.5C 487.423,61.8643 485.59,61.8643 483.5,72.5C 482.516,69.5719 482.183,66.5719 482.5,63.5 Z"/></g>
<g><path style="opacity:1" fill="#666f88" d="M 405.5,63.5 C 407.792,63.2436 409.959,63.5769 412,64.5C 412.667,67.1667 412.667,69.8333 412,72.5C 410.423,61.8643 408.59,61.8643 406.5,72.5C 405.516,69.5719 405.183,66.5719 405.5,63.5 Z"/></g>
<g><path style="opacity:1" fill="#7e8097" d="M 993.5,59.5 C 1003.81,59.0459 1007.81,64.0459 1005.5,74.5C 1002.25,74.1351 999.588,75.1351 997.5,77.5C 995.412,75.1351 992.746,74.1351 989.5,74.5C 988.555,68.7644 989.889,63.7644 993.5,59.5 Z"/></g>
<g><path style="opacity:1" fill="#131527" d="M 994.5,61.5 C 1002.16,61.1665 1005.16,64.8332 1003.5,72.5C 999.5,72.5 995.5,72.5 991.5,72.5C 990.807,68.2473 991.807,64.5807 994.5,61.5 Z"/></g>
<g><path style="opacity:1" fill="#141233" d="M 30.5,66.5 C 31.8221,66.33 32.9887,66.6634 34,67.5C 34.6667,69.5 34.6667,71.5 34,73.5C 32.6667,74.8333 31.3333,74.8333 30,73.5C 29.2967,71.0709 29.4634,68.7375 30.5,66.5 Z"/></g>
<g><path style="opacity:1" fill="#191126" d="M 92.5,66.5 C 93.8333,66.5 95.1667,66.5 96.5,66.5C 96.5,69.1667 96.5,71.8333 96.5,74.5C 91.6645,73.7913 90.3312,71.1246 92.5,66.5 Z"/></g>
<g><path style="opacity:1" fill="#251630" d="M 108.5,66.5 C 110.144,66.2865 111.644,66.6198 113,67.5C 113.758,69.7695 113.591,71.9361 112.5,74C 110.888,74.7203 109.388,74.5536 108,73.5C 107.297,71.0709 107.463,68.7375 108.5,66.5 Z"/></g>
<g><path style="opacity:1" fill="#8789a0" d="M 1046.5,58.5 C 1051.08,57.343 1053.75,59.0096 1054.5,63.5C 1052.35,69.1634 1049.18,69.8301 1045,65.5C 1044.39,62.9348 1044.89,60.6015 1046.5,58.5 Z"/></g>
<g><path style="opacity:1" fill="#141527" d="M 1047.5,60.5 C 1052.16,60.0146 1053.49,61.848 1051.5,66C 1046.73,66.8104 1045.39,64.9771 1047.5,60.5 Z"/></g>
<g><path style="opacity:1" fill="#f0e7b0" d="M 1304.5,47.5 C 1306.17,47.5 1307.83,47.5 1309.5,47.5C 1309.48,49.5648 1309.15,51.5648 1308.5,53.5C 1308.5,54.1667 1308.5,54.8333 1308.5,55.5C 1307.83,55.5 1307.5,55.8333 1307.5,56.5C 1305.53,56.2606 1303.7,56.5939 1302,57.5C 1301.67,62.1667 1301.33,66.8333 1301,71.5C 1300.02,73.9676 1298.52,75.9676 1296.5,77.5C 1290.74,65.4121 1293.41,55.4121 1304.5,47.5 Z"/></g>
<g><path style="opacity:1" fill="#5e6179" d="M 498.5,63.5 C 500.144,63.2865 501.644,63.6198 503,64.5C 503.497,67.146 503.664,69.8127 503.5,72.5C 501.208,72.7564 499.041,72.4231 497,71.5C 496.362,68.0699 497.862,66.7366 501.5,67.5C 501.344,63.8649 500.178,63.5315 498,66.5C 497.53,65.4232 497.697,64.4232 498.5,63.5 Z"/></g>
<g><path style="opacity:1" fill="#c09275" d="M 1307.5,56.5 C 1307.34,58.1992 1307.51,59.8659 1308,61.5C 1309.79,59.771 1311.96,59.1043 1314.5,59.5C 1314.5,60.5 1314.5,61.5 1314.5,62.5C 1317.66,62.9827 1320.66,63.9827 1323.5,65.5C 1325.26,66.4614 1327.26,66.7947 1329.5,66.5C 1329.8,69.3725 1330.47,72.0392 1331.5,74.5C 1331.5,74.8333 1331.5,75.1667 1331.5,75.5C 1329.32,78.0613 1327.16,78.0613 1325,75.5C 1325.48,72.8015 1326.32,70.1348 1327.5,67.5C 1324.45,67.3645 1321.45,67.6978 1318.5,68.5C 1314.66,67.4016 1310.99,66.0683 1307.5,64.5C 1307.38,67.6883 1306.55,70.6883 1305,73.5C 1304.3,77.9054 1304.64,82.2388 1306,86.5C 1307.49,88.0037 1309.32,88.8371 1311.5,89C 1310.94,89.3826 1310.61,89.8826 1310.5,90.5C 1303.58,88.4096 1298.92,84.0763 1296.5,77.5C 1298.52,75.9676 1300.02,73.9676 1301,71.5C 1301.33,66.8333 1301.67,62.1667 1302,57.5C 1303.7,56.5939 1305.53,56.2606 1307.5,56.5 Z"/></g>
<g><path style="opacity:1" fill="#8d90a6" d="M 1046.5,69.5 C 1052.21,69.4924 1052.54,69.9924 1047.5,71C 1045.95,72.214 1044.78,73.714 1044,75.5C 1043.33,74.5 1043.33,73.5 1044,72.5C 1045.04,71.6266 1045.88,70.6266 1046.5,69.5 Z"/></g>
<g><path style="opacity:1" fill="#141027" d="M 46.5,71.5 C 47.5,71.5 48.5,71.5 49.5,71.5C 49.5,72.5 49.5,73.5 49.5,74.5C 46.4331,74.8795 45.4331,73.8795 46.5,71.5 Z"/></g>
<g><path style="opacity:1" fill="#555972" d="M 352.5,60.5 C 354.792,60.2436 356.959,60.5769 359,61.5C 359.72,63.1124 359.554,64.6124 358.5,66C 361.033,68.084 361.033,70.084 358.5,72C 356.527,72.4955 354.527,72.6621 352.5,72.5C 352.5,68.5 352.5,64.5 352.5,60.5 Z"/></g>
<g><path style="opacity:1" fill="#585d7a" d="M 441.5,63.5 C 443.144,63.2865 444.644,63.6198 446,64.5C 446.497,67.146 446.664,69.8127 446.5,72.5C 444.5,72.5 442.5,72.5 440.5,72.5C 439.756,69.0504 441.09,67.3838 444.5,67.5C 444.344,63.8649 443.178,63.5315 441,66.5C 440.53,65.4232 440.697,64.4232 441.5,63.5 Z"/></g>
<g><path style="opacity:1" fill="#595e7a" d="M 455.5,63.5 C 457.144,63.2865 458.644,63.6198 460,64.5C 460.497,67.146 460.664,69.8127 460.5,72.5C 458.5,72.5 456.5,72.5 454.5,72.5C 453.959,68.7053 455.625,66.7053 459.5,66.5C 458.112,63.9211 456.612,63.9211 455,66.5C 454.53,65.4232 454.697,64.4232 455.5,63.5 Z"/></g>
<g><path style="opacity:1" fill="#7e8096" d="M 1054.5,69.5 C 1059.02,70.9753 1059.35,72.9753 1055.5,75.5C 1054.28,74.3539 1052.95,73.3539 1051.5,72.5C 1052.99,71.8589 1053.99,70.8589 1054.5,69.5 Z"/></g>
<g><path style="opacity:1" fill="#c03373" d="M 125.5,73.5 C 129.161,73.3501 130.161,74.8501 128.5,78C 127.207,78.49 125.873,78.6567 124.5,78.5C 124.366,76.7085 124.699,75.0418 125.5,73.5 Z"/></g>
<g><path style="opacity:1" fill="#46425d" d="M 1224.5,74.5 C 1230.84,74.1385 1232.84,76.9719 1230.5,83C 1225.27,84.8555 1222.6,83.0222 1222.5,77.5C 1223.19,76.4822 1223.86,75.4822 1224.5,74.5 Z"/></g>
<g><path style="opacity:1" fill="#858f8c" d="M 1125.5,76.5 C 1126.48,79.6248 1126.81,82.9581 1126.5,86.5C 1125.45,86.6495 1124.45,86.4828 1123.5,86C 1125.34,83.1963 1126.01,80.0297 1125.5,76.5 Z"/></g>
<g><path style="opacity:1" fill="#7c7788" d="M 1183.5,73.5 C 1184.24,73.369 1184.91,73.5357 1185.5,74C 1184.17,75 1184.17,76 1185.5,77C 1184.89,79.1474 1184.22,81.314 1183.5,83.5C 1182.53,81.604 1182.2,79.604 1182.5,77.5C 1181.5,77.5 1180.5,77.5 1179.5,77.5C 1179.8,79.604 1179.47,81.604 1178.5,83.5C 1177.53,81.2573 1177.19,78.924 1177.5,76.5C 1180.32,76.913 1182.32,75.913 1183.5,73.5 Z"/></g>
<g><path style="opacity:1" fill="#7b7585" d="M 1240.5,76.5 C 1246.24,75.8213 1247.9,78.1546 1245.5,83.5C 1244.17,75.5 1242.83,75.5 1241.5,83.5C 1240.53,81.2573 1240.19,78.924 1240.5,76.5 Z"/></g>
<g><path style="opacity:1" fill="#75748e" d="M 1288.5,77.5 C 1288.11,85.3981 1287.11,85.3981 1285.5,77.5C 1283.63,85.2986 1282.63,84.9653 1282.5,76.5C 1284.62,76.3253 1286.62,76.6586 1288.5,77.5 Z"/></g>
<g><path style="opacity:1" fill="#777a8f" d="M 1166.5,74.5 C 1167.92,74.7496 1168.92,75.583 1169.5,77C 1168.17,79 1168.17,81 1169.5,83C 1168.55,83.4828 1167.55,83.6495 1166.5,83.5C 1166.11,80.3243 1166.11,77.3243 1166.5,74.5 Z"/></g>
<g><path style="opacity:1" fill="#c8d0ca" d="M 1341.5,69.5 C 1341.26,72.6473 1340.43,75.6473 1339,78.5C 1338.34,80.3237 1337.17,81.657 1335.5,82.5C 1333.03,82.3957 1332.36,81.3957 1333.5,79.5C 1333.04,78.7025 1332.38,78.3691 1331.5,78.5C 1331.5,77.5 1331.5,76.5 1331.5,75.5C 1331.5,75.1667 1331.5,74.8333 1331.5,74.5C 1335.16,73.3389 1338.49,71.6722 1341.5,69.5 Z"/></g>
<g><path style="opacity:1" fill="#868f8a" d="M 1288.5,77.5 C 1289.57,76.5655 1290.9,76.2322 1292.5,76.5C 1292.66,78.8568 1292.5,81.1902 1292,83.5C 1291.5,81.5273 1291.34,79.5273 1291.5,77.5C 1290.5,77.5 1289.5,77.5 1288.5,77.5 Z"/></g>
<g><path style="opacity:1" fill="#7c7584" d="M 1136.5,76.5 C 1138.14,76.2865 1139.64,76.6198 1141,77.5C 1141.5,79.4727 1141.66,81.4727 1141.5,83.5C 1134.69,83.5781 1134.03,81.9115 1139.5,78.5C 1138.73,77.2888 1137.89,77.2888 1137,78.5C 1136.54,77.9056 1136.37,77.2389 1136.5,76.5 Z"/></g>
<g><path style="opacity:1" fill="#7c7584" d="M 1215.5,76.5 C 1217.14,76.2865 1218.64,76.6198 1220,77.5C 1220.5,79.4727 1220.66,81.4727 1220.5,83.5C 1213.69,83.5781 1213.03,81.9115 1218.5,78.5C 1217.73,77.2888 1216.89,77.2888 1216,78.5C 1215.54,77.9056 1215.37,77.2389 1215.5,76.5 Z"/></g>
<g><path style="opacity:1" fill="#787489" d="M 1252.5,76.5 C 1254.14,76.2865 1255.64,76.6198 1257,77.5C 1257.5,79.4727 1257.66,81.4727 1257.5,83.5C 1255.83,83.5 1254.17,83.5 1252.5,83.5C 1252.5,82.1667 1252.5,80.8333 1252.5,79.5C 1253.68,79.719 1254.68,79.3857 1255.5,78.5C 1254.73,77.2888 1253.89,77.2888 1253,78.5C 1252.54,77.9056 1252.37,77.2389 1252.5,76.5 Z"/></g>
<g><path style="opacity:1" fill="#79899e" d="M 1143.5,76.5 C 1148.33,76.3852 1149.66,78.5519 1147.5,83C 1142.57,83.427 1141.24,81.2604 1143.5,76.5 Z"/></g>
<g><path style="opacity:1" fill="#271833" d="M 1144.5,77.5 C 1147.96,78.5362 1148.29,80.2029 1145.5,82.5C 1143.3,81.218 1142.96,79.5514 1144.5,77.5 Z"/></g>
<g><path style="opacity:1" fill="#6c5d74" d="M 1149.5,76.5 C 1150.79,77.0577 1151.62,78.0577 1152,79.5C 1152.51,77.0958 1153.67,76.4291 1155.5,77.5C 1154.25,79.323 1153.59,81.323 1153.5,83.5C 1152.5,83.5 1151.5,83.5 1150.5,83.5C 1150.55,81.0971 1150.22,78.7638 1149.5,76.5 Z"/></g>
<g><path style="opacity:1" fill="#877b7e" d="M 1160.5,76.5 C 1161.55,76.3505 1162.55,76.5172 1163.5,77C 1160.08,78.4055 1159.74,80.2388 1162.5,82.5C 1163.45,81.6744 1164.45,81.5078 1165.5,82C 1159.76,84.3873 1158.09,82.554 1160.5,76.5 Z"/></g>
<g><path style="opacity:1" fill="#79899e" d="M 1187.5,76.5 C 1192.33,76.3852 1193.66,78.5519 1191.5,83C 1186.57,83.427 1185.24,81.2604 1187.5,76.5 Z"/></g>
<g><path style="opacity:1" fill="#271833" d="M 1188.5,77.5 C 1191.96,78.5362 1192.29,80.2029 1189.5,82.5C 1187.3,81.218 1186.96,79.5514 1188.5,77.5 Z"/></g>
<g><path style="opacity:1" fill="#474a69" d="M 1194.5,76.5 C 1196.43,76.2308 1198.1,76.7308 1199.5,78C 1198.05,77.7374 1196.72,77.9041 1195.5,78.5C 1200.97,81.9115 1200.31,83.5781 1193.5,83.5C 1193.3,81.0504 1193.63,78.717 1194.5,76.5 Z"/></g>
<g><path style="opacity:1" fill="#7a8497" d="M 1208.5,76.5 C 1209.98,76.238 1211.31,76.5713 1212.5,77.5C 1211.74,77.9106 1210.74,78.0773 1209.5,78C 1208.07,79.8803 1208.4,81.3803 1210.5,82.5C 1211.45,81.6744 1212.45,81.5078 1213.5,82C 1207.76,84.3873 1206.09,82.554 1208.5,76.5 Z"/></g>
<g><path style="opacity:1" fill="#7a8497" d="M 1269.5,76.5 C 1270.98,76.238 1272.31,76.5713 1273.5,77.5C 1272.74,77.9106 1271.74,78.0773 1270.5,78C 1269.07,79.8803 1269.4,81.3803 1271.5,82.5C 1272.45,81.6744 1273.45,81.5078 1274.5,82C 1268.76,84.3873 1267.09,82.554 1269.5,76.5 Z"/></g>
<g><path style="opacity:1" fill="#79899e" d="M 1276.5,76.5 C 1281.33,76.3852 1282.66,78.5519 1280.5,83C 1275.57,83.427 1274.24,81.2604 1276.5,76.5 Z"/></g>
<g><path style="opacity:1" fill="#271833" d="M 1277.5,77.5 C 1280.96,78.5362 1281.29,80.2029 1278.5,82.5C 1276.3,81.218 1275.96,79.5514 1277.5,77.5 Z"/></g>
<g><path style="opacity:1" fill="#f3b492" d="M 1331.5,75.5 C 1331.5,76.5 1331.5,77.5 1331.5,78.5C 1326.88,82.1043 1322.22,85.771 1317.5,89.5C 1318.24,90.1818 1318.91,90.8485 1319.5,91.5C 1316.39,91.7359 1313.39,91.4025 1310.5,90.5C 1310.61,89.8826 1310.94,89.3826 1311.5,89C 1309.32,88.8371 1307.49,88.0037 1306,86.5C 1304.64,82.2388 1304.3,77.9054 1305,73.5C 1306.55,70.6883 1307.38,67.6883 1307.5,64.5C 1310.99,66.0683 1314.66,67.4016 1318.5,68.5C 1321.45,67.6978 1324.45,67.3645 1327.5,67.5C 1326.32,70.1348 1325.48,72.8015 1325,75.5C 1327.16,78.0613 1329.32,78.0613 1331.5,75.5 Z"/></g>
<g><path style="opacity:1" fill="#625d74" d="M 1171.5,76.5 C 1176.33,76.3852 1177.66,78.5519 1175.5,83C 1170.57,83.427 1169.24,81.2604 1171.5,76.5 Z"/></g>
<g><path style="opacity:1" fill="#767b94" d="M 1201.5,76.5 C 1204.95,75.7564 1206.62,77.0897 1206.5,80.5C 1202.03,80.6724 1201.7,81.5057 1205.5,83C 1200.57,83.427 1199.24,81.2604 1201.5,76.5 Z"/></g>
<g><path style="opacity:1" fill="#6a6475" d="M 1234.5,76.5 C 1236.17,76.5 1237.83,76.5 1239.5,76.5C 1239.82,79.5719 1239.48,82.5719 1238.5,85.5C 1233.74,83.9927 1232.4,80.9927 1234.5,76.5 Z"/></g>
<g><path style="opacity:1" fill="#5d6063" d="M 1331.5,78.5 C 1332.38,78.3691 1333.04,78.7025 1333.5,79.5C 1332.36,81.3957 1333.03,82.3957 1335.5,82.5C 1331.38,87.5627 1326.05,90.5627 1319.5,91.5C 1318.91,90.8485 1318.24,90.1818 1317.5,89.5C 1322.22,85.771 1326.88,82.1043 1331.5,78.5 Z"/></g>
<g><path style="opacity:1" fill="#1f2029" d="M 316.5,131.5 C 482.914,131.003 649.247,131.503 815.5,133C 816.701,133.903 817.535,135.069 818,136.5C 818.995,232.248 818.662,327.914 817,423.5C 816.097,424.701 814.931,425.535 813.5,426C 647.087,426.997 480.753,426.664 314.5,425C 313.299,424.097 312.465,422.931 312,421.5C 311.333,326.5 311.333,231.5 312,136.5C 313.025,134.313 314.525,132.646 316.5,131.5 Z"/></g>
<g><path style="opacity:1" fill="#1f2029" d="M 839.5,131.5 C 1005.91,131.003 1172.25,131.503 1338.5,133C 1339.7,133.903 1340.53,135.069 1341,136.5C 1342,232.248 1341.66,327.914 1340,423.5C 1339.1,424.701 1337.93,425.535 1336.5,426C 1170.09,426.997 1003.75,426.664 837.5,425C 836.299,424.097 835.465,422.931 835,421.5C 834.333,326.5 834.333,231.5 835,136.5C 836.025,134.313 837.525,132.646 839.5,131.5 Z"/></g>
<g><path style="opacity:1" fill="#706d83" d="M 33.5,136.5 C 39.6966,136.325 40.3633,137.325 35.5,139.5C 36.376,140.251 37.376,140.751 38.5,141C 37.376,141.249 36.376,141.749 35.5,142.5C 40.3633,144.675 39.6966,145.675 33.5,145.5C 33.5,142.5 33.5,139.5 33.5,136.5 Z"/></g>
<g><path style="opacity:1" fill="#6d708a" d="M 25.5,136.5 C 27.4672,136.261 29.3005,136.594 31,137.5C 31.6877,138.332 31.521,138.998 30.5,139.5C 29.2638,138.754 27.9305,138.421 26.5,138.5C 26.5,140.167 26.5,141.833 26.5,143.5C 28.9424,143.646 29.6091,142.813 28.5,141C 29.448,140.517 30.448,140.351 31.5,140.5C 31.9174,145.068 29.9174,146.568 25.5,145C 24.2138,142.168 24.2138,139.335 25.5,136.5 Z"/></g>
<g><path style="opacity:1" fill="#676983" d="M 40.5,136.5 C 42.5273,136.338 44.5273,136.505 46.5,137C 46.9325,139.172 47.2659,141.339 47.5,143.5C 49.752,141.703 50.752,139.37 50.5,136.5C 51.8221,136.33 52.9887,136.663 54,137.5C 55.7175,140.091 56.2175,142.758 55.5,145.5C 53.0388,144.398 50.5388,144.398 48,145.5C 46.1131,145.031 44.6131,144.031 43.5,142.5C 42.8333,143.5 42.1667,144.5 41.5,145.5C 40.5159,142.572 40.1826,139.572 40.5,136.5 Z"/></g>
<g><path style="opacity:1" fill="#68728c" d="M 57.5,136.5 C 59.3435,138.279 60.0102,140.612 59.5,143.5C 60.9778,143.238 62.3112,143.571 63.5,144.5C 61.604,145.466 59.604,145.799 57.5,145.5C 57.5,142.5 57.5,139.5 57.5,136.5 Z"/></g>
<g><path style="opacity:1" fill="#c6c6b9" d="M 344.5,169.5 C 345.5,169.5 346.5,169.5 347.5,169.5C 347.5,173.833 347.5,178.167 347.5,182.5C 346.5,182.5 345.5,182.5 344.5,182.5C 344.5,178.167 344.5,173.833 344.5,169.5 Z"/></g>
<g><path style="opacity:1" fill="#d8cab1" d="M 971.5,181.5 C 971.909,178.145 971.242,175.145 969.5,172.5C 971.331,169.748 972.998,169.914 974.5,173C 972.984,176.034 973.317,178.867 975.5,181.5C 974.042,182.782 972.708,182.782 971.5,181.5 Z"/></g>
<g><path style="opacity:1" fill="#b4b7bb" d="M 866.5,169.5 C 870.226,169.177 873.893,169.511 877.5,170.5C 876.311,171.429 874.978,171.762 873.5,171.5C 873.5,175.167 873.5,178.833 873.5,182.5C 872.5,182.5 871.5,182.5 870.5,182.5C 870.5,178.833 870.5,175.167 870.5,171.5C 868.517,171.843 867.183,171.176 866.5,169.5 Z"/></g>
<g><path style="opacity:1" fill="#d8dad4" d="M 349.5,172.5 C 352.119,172.232 354.619,172.565 357,173.5C 357.821,176.554 357.655,179.554 356.5,182.5C 355.52,179.914 355.187,177.247 355.5,174.5C 354.167,174.5 352.833,174.5 351.5,174.5C 351.813,177.247 351.48,179.914 350.5,182.5C 349.513,179.232 349.18,175.898 349.5,172.5 Z"/></g>
<g><path style="opacity:1" fill="#e4cfb0" d="M 378.5,172.5 C 380.288,172.215 381.955,172.548 383.5,173.5C 382.675,174.386 381.675,174.719 380.5,174.5C 380.813,177.247 380.48,179.914 379.5,182.5C 378.513,179.232 378.18,175.898 378.5,172.5 Z"/></g>
<g><path style="opacity:1" fill="#e3caa8" d="M 384.5,172.5 C 385.777,173.694 386.444,175.36 386.5,177.5C 386.167,179.167 385.833,180.833 385.5,182.5C 384.513,179.232 384.18,175.898 384.5,172.5 Z"/></g>
<g><path style="opacity:1" fill="#cfc8c5" d="M 405.5,172.5 C 407.792,172.244 409.959,172.577 412,173.5C 412.591,174.483 412.257,175.15 411,175.5C 409.7,174.548 408.533,174.548 407.5,175.5C 411.316,176.429 412.65,178.595 411.5,182C 409.231,182.758 407.064,182.591 405,181.5C 404.312,180.668 404.479,180.002 405.5,179.5C 410.837,180.13 410.837,179.464 405.5,177.5C 404.334,175.833 404.334,174.166 405.5,172.5 Z"/></g>
<g><path style="opacity:1" fill="#cfc8c5" d="M 443.5,172.5 C 445.792,172.244 447.959,172.577 450,173.5C 450.591,174.483 450.257,175.15 449,175.5C 447.7,174.548 446.533,174.548 445.5,175.5C 449.316,176.429 450.65,178.595 449.5,182C 447.231,182.758 445.064,182.591 443,181.5C 442.312,180.668 442.479,180.002 443.5,179.5C 448.837,180.13 448.837,179.464 443.5,177.5C 442.334,175.833 442.334,174.166 443.5,172.5 Z"/></g>
<g><path style="opacity:1" fill="#c2c0b7" d="M 486.5,172.5 C 494.511,171.155 497.511,174.488 495.5,182.5C 494.5,182.5 493.5,182.5 492.5,182.5C 492.5,179.833 492.5,177.167 492.5,174.5C 491.5,174.5 490.5,174.5 489.5,174.5C 489.5,177.167 489.5,179.833 489.5,182.5C 488.5,182.5 487.5,182.5 486.5,182.5C 486.5,179.167 486.5,175.833 486.5,172.5 Z"/></g>
<g><path style="opacity:1" fill="#dfddd4" d="M 389.5,170.5 C 392.85,171.727 393.517,173.893 391.5,177C 391.748,178.716 392.415,180.216 393.5,181.5C 392.311,182.429 390.978,182.762 389.5,182.5C 390.011,178.97 389.344,175.804 387.5,173C 388.756,172.583 389.423,171.75 389.5,170.5 Z"/></g>
<g><path style="opacity:1" fill="#dbd8ce" d="M 461.5,172.5 C 465.989,172.944 470.323,173.111 474.5,173C 475.787,176.125 475.787,179.291 474.5,182.5C 473.686,180.234 473.186,177.9 473,175.5C 471.989,174.663 470.822,174.33 469.5,174.5C 468.833,185.167 468.167,185.167 467.5,174.5C 466.167,174.5 464.833,174.5 463.5,174.5C 464.036,177.698 463.369,180.365 461.5,182.5C 461.5,179.167 461.5,175.833 461.5,172.5 Z"/></g>
<g><path style="opacity:1" fill="#d0d4d5" d="M 498.5,172.5 C 500.467,172.261 502.301,172.594 504,173.5C 504.498,176.482 504.665,179.482 504.5,182.5C 501.881,182.768 499.381,182.435 497,181.5C 496.219,180.056 496.386,178.723 497.5,177.5C 499.225,176.985 500.892,176.318 502.5,175.5C 500.587,174.949 498.587,174.782 496.5,175C 497.381,174.292 498.047,173.458 498.5,172.5 Z"/></g>
<g><path style="opacity:1" fill="#d0d4d5" d="M 897.5,172.5 C 899.467,172.261 901.301,172.594 903,173.5C 903.498,176.482 903.665,179.482 903.5,182.5C 900.881,182.768 898.381,182.435 896,181.5C 895.219,180.056 895.386,178.723 896.5,177.5C 898.225,176.985 899.892,176.318 901.5,175.5C 899.587,174.949 897.587,174.782 895.5,175C 896.381,174.292 897.047,173.458 897.5,172.5 Z"/></g>
<g><path style="opacity:1" fill="#d5d6d2" d="M 424.5,168.5 C 426.436,172.715 427.103,177.381 426.5,182.5C 421.294,183.88 418.294,182.047 417.5,177C 418.141,173.078 420.475,171.578 424.5,172.5C 424.5,171.167 424.5,169.833 424.5,168.5 Z"/></g>
<g><path style="opacity:1" fill="#302640" d="M 420.5,174.5 C 421.833,174.5 423.167,174.5 424.5,174.5C 424.5,176.5 424.5,178.5 424.5,180.5C 423.167,180.5 421.833,180.5 420.5,180.5C 420.5,178.5 420.5,176.5 420.5,174.5 Z"/></g>
<g><path style="opacity:1" fill="#d0cfcb" d="M 429.5,172.5 C 431.604,172.201 433.604,172.534 435.5,173.5C 436.407,176.421 436.74,179.421 436.5,182.5C 433.881,182.768 431.381,182.435 429,181.5C 427.948,177.707 429.448,175.707 433.5,175.5C 432.224,174.355 430.891,174.355 429.5,175.5C 428.438,174.575 428.438,173.575 429.5,172.5 Z"/></g>
<g><path style="opacity:1" fill="#c4beba" d="M 460.5,174.5 C 460.5,175.833 460.5,177.167 460.5,178.5C 458.396,178.201 456.396,178.534 454.5,179.5C 456.006,180.747 457.506,180.747 459,179.5C 459.717,180.044 460.217,180.711 460.5,181.5C 452.083,183.586 449.749,180.752 453.5,173C 456.171,172.167 458.504,172.667 460.5,174.5 Z"/></g>
<g><path style="opacity:1" fill="#d0cfcb" d="M 478.5,172.5 C 480.604,172.201 482.604,172.534 484.5,173.5C 485.407,176.421 485.74,179.421 485.5,182.5C 482.881,182.768 480.381,182.435 478,181.5C 476.948,177.707 478.448,175.707 482.5,175.5C 481.224,174.355 479.891,174.355 478.5,175.5C 477.438,174.575 477.438,173.575 478.5,172.5 Z"/></g>
<g><path style="opacity:1" fill="#d0cfcb" d="M 878.5,172.5 C 880.604,172.201 882.604,172.534 884.5,173.5C 885.407,176.421 885.74,179.421 885.5,182.5C 882.881,182.768 880.381,182.435 878,181.5C 876.948,177.707 878.448,175.707 882.5,175.5C 881.224,174.355 879.891,174.355 878.5,175.5C 877.438,174.575 877.438,173.575 878.5,172.5 Z"/></g>
<g><path style="opacity:1" fill="#d5d6d2" d="M 916.5,168.5 C 918.436,172.715 919.103,177.381 918.5,182.5C 913.294,183.88 910.294,182.047 909.5,177C 910.141,173.078 912.475,171.578 916.5,172.5C 916.5,171.167 916.5,169.833 916.5,168.5 Z"/></g>
<g><path style="opacity:1" fill="#302640" d="M 912.5,174.5 C 913.833,174.5 915.167,174.5 916.5,174.5C 916.5,176.5 916.5,178.5 916.5,180.5C 915.167,180.5 913.833,180.5 912.5,180.5C 912.5,178.5 912.5,176.5 912.5,174.5 Z"/></g>
<g><path style="opacity:1" fill="#d0cfcb" d="M 935.5,172.5 C 937.604,172.201 939.604,172.534 941.5,173.5C 942.407,176.421 942.74,179.421 942.5,182.5C 939.881,182.768 937.381,182.435 935,181.5C 933.948,177.707 935.448,175.707 939.5,175.5C 938.224,174.355 936.891,174.355 935.5,175.5C 934.438,174.575 934.438,173.575 935.5,172.5 Z"/></g>
<g><path style="opacity:1" fill="#babfc1" d="M 969.5,172.5 C 971.242,175.145 971.909,178.145 971.5,181.5C 970.532,179.393 970.198,177.059 970.5,174.5C 969.167,174.5 967.833,174.5 966.5,174.5C 966.5,177.167 966.5,179.833 966.5,182.5C 965.5,182.5 964.5,182.5 963.5,182.5C 963.5,179.167 963.5,175.833 963.5,172.5C 965.5,172.5 967.5,172.5 969.5,172.5 Z"/></g>
<g><path style="opacity:1" fill="#c1c7cc" d="M 395.5,172.5 C 402.934,172.2 404.934,175.366 401.5,182C 396.594,183.756 393.927,182.089 393.5,177C 393.519,175.167 394.185,173.667 395.5,172.5 Z"/></g>
<g><path style="opacity:1" fill="#2a2632" d="M 396.5,174.5 C 397.833,174.5 399.167,174.5 400.5,174.5C 400.5,176.5 400.5,178.5 400.5,180.5C 399.167,180.5 397.833,180.5 396.5,180.5C 396.5,178.5 396.5,176.5 396.5,174.5 Z"/></g>
<g><path style="opacity:1" fill="#cfcac5" d="M 886.5,173.5 C 889.098,174.702 891.765,174.702 894.5,173.5C 891.833,176.167 891.833,178.833 894.5,181.5C 894.167,181.833 893.833,182.167 893.5,182.5C 892.5,181.833 891.5,181.167 890.5,180.5C 889.377,182.289 888.044,182.622 886.5,181.5C 889.134,178.754 889.134,176.088 886.5,173.5 Z"/></g>
<g><path style="opacity:1" fill="#ccd1d0" d="M 985.5,172.5 C 989.872,173.383 994.206,173.55 998.5,173C 999.451,176.057 999.784,179.223 999.5,182.5C 996.881,182.768 994.381,182.435 992,181.5C 991.333,180.167 991.333,178.833 992,177.5C 993.825,176.897 995.659,176.23 997.5,175.5C 994.565,175.756 991.565,175.422 988.5,174.5C 988.5,177.167 988.5,179.833 988.5,182.5C 987.5,182.5 986.5,182.5 985.5,182.5C 985.5,179.167 985.5,175.833 985.5,172.5 Z"/></g>
<g><path style="opacity:1" fill="#2e2d39" d="M 431.5,177.5 C 433.048,177.821 433.715,178.821 433.5,180.5C 430.752,180.598 430.086,179.598 431.5,177.5 Z"/></g>
<g><path style="opacity:1" fill="#2b2249" d="M 461.5,172.5 C 461.5,175.833 461.5,179.167 461.5,182.5C 460.833,182.5 460.5,182.167 460.5,181.5C 460.217,180.711 459.717,180.044 459,179.5C 457.506,180.747 456.006,180.747 454.5,179.5C 456.396,178.534 458.396,178.201 460.5,178.5C 460.5,177.167 460.5,175.833 460.5,174.5C 460.328,173.508 460.662,172.842 461.5,172.5 Z"/></g>
<g><path style="opacity:1" fill="#2e2d39" d="M 480.5,177.5 C 482.048,177.821 482.715,178.821 482.5,180.5C 479.752,180.598 479.086,179.598 480.5,177.5 Z"/></g>
<g><path style="opacity:1" fill="#363644" d="M 499.5,177.5 C 500.5,177.5 501.5,177.5 502.5,177.5C 502.5,178.5 502.5,179.5 502.5,180.5C 501.5,180.5 500.5,180.5 499.5,180.5C 499.5,179.5 499.5,178.5 499.5,177.5 Z"/></g>
<g><path style="opacity:1" fill="#2e2d39" d="M 880.5,177.5 C 882.048,177.821 882.715,178.821 882.5,180.5C 879.752,180.598 879.086,179.598 880.5,177.5 Z"/></g>
<g><path style="opacity:1" fill="#363644" d="M 898.5,177.5 C 899.5,177.5 900.5,177.5 901.5,177.5C 901.5,178.5 901.5,179.5 901.5,180.5C 900.5,180.5 899.5,180.5 898.5,180.5C 898.5,179.5 898.5,178.5 898.5,177.5 Z"/></g>
<g><path style="opacity:1" fill="#2e2d39" d="M 937.5,177.5 C 939.048,177.821 939.715,178.821 939.5,180.5C 936.752,180.598 936.086,179.598 937.5,177.5 Z"/></g>
<g><path style="opacity:1" fill="#4d3b4b" d="M 994.5,177.5 C 995.5,177.5 996.5,177.5 997.5,177.5C 997.5,178.5 997.5,179.5 997.5,180.5C 994.433,180.879 993.433,179.879 994.5,177.5 Z"/></g>
<g><path style="opacity:1" fill="#e0dacf" d="M 976.5,172.5 C 978.369,174.635 979.036,177.302 978.5,180.5C 979.833,180.5 981.167,180.5 982.5,180.5C 982.187,177.753 982.52,175.086 983.5,172.5C 984.487,175.768 984.82,179.102 984.5,182.5C 981.881,182.768 979.381,182.435 977,181.5C 976.502,178.518 976.335,175.518 976.5,172.5 Z"/></g>
<g><path style="opacity:1" fill="#d0cdcb" d="M 360.5,172.5 C 363.346,172.03 365.679,172.863 367.5,175C 359.784,174.005 359.617,175.172 367,178.5C 367.684,179.784 367.517,180.951 366.5,182C 363.351,183.035 360.684,182.368 358.5,180C 360.587,180.218 362.587,180.051 364.5,179.5C 360.246,178.65 358.913,176.316 360.5,172.5 Z"/></g>
<g><path style="opacity:1" fill="#d7d5d2" d="M 370.5,172.5 C 372.199,172.34 373.866,172.506 375.5,173C 376.731,174.183 376.731,175.349 375.5,176.5C 374.158,174.995 372.492,174.328 370.5,174.5C 370.5,176.5 370.5,178.5 370.5,180.5C 372.674,180.08 374.674,180.08 376.5,180.5C 374.085,183.128 371.585,183.128 369,180.5C 368.133,177.479 368.633,174.812 370.5,172.5 Z"/></g>
<g><path style="opacity:1" fill="#c0c1c5" d="M 922.5,172.5 C 927.5,171.5 929.5,173.5 928.5,178.5C 926.396,178.201 924.396,178.534 922.5,179.5C 924.135,180.681 925.802,180.681 927.5,179.5C 928.711,180.274 928.711,181.107 927.5,182C 922.594,183.756 919.927,182.089 919.5,177C 919.557,174.791 920.557,173.291 922.5,172.5 Z"/></g>
<g><path style="opacity:1" fill="#c8c6c6" d="M 944.5,168.5 C 946.176,169.183 946.843,170.517 946.5,172.5C 949.157,172.162 951.49,172.829 953.5,174.5C 959.247,170.74 962.247,172.073 962.5,178.5C 960.396,178.201 958.396,178.534 956.5,179.5C 958.135,180.681 959.802,180.681 961.5,179.5C 962.711,180.274 962.711,181.107 961.5,182C 958.166,183.212 955.666,182.379 954,179.5C 951.454,182.186 948.287,183.186 944.5,182.5C 944.5,177.833 944.5,173.167 944.5,168.5 Z"/></g>
<g><path style="opacity:1" fill="#2c2833" d="M 946.5,174.5 C 947.833,174.5 949.167,174.5 950.5,174.5C 950.5,176.5 950.5,178.5 950.5,180.5C 949.167,180.5 947.833,180.5 946.5,180.5C 946.5,178.5 946.5,176.5 946.5,174.5 Z"/></g>
<g><path style="opacity:1" fill="#c75590" d="M 26.5,186.5 C 29.8333,186.5 33.1667,186.5 36.5,186.5C 36.5,190.5 36.5,194.5 36.5,198.5C 33.1667,198.5 29.8333,198.5 26.5,198.5C 26.5,194.5 26.5,190.5 26.5,186.5 Z"/></g>
<g><path style="opacity:1" fill="#bb5188" d="M 38.5,186.5 C 41.8333,186.5 45.1667,186.5 48.5,186.5C 48.5,189.167 48.5,191.833 48.5,194.5C 45.1667,194.5 41.8333,194.5 38.5,194.5C 38.5,191.833 38.5,189.167 38.5,186.5 Z"/></g>
<g><path style="opacity:1" fill="#d25087" d="M 68.5,188.5 C 70.8568,188.337 73.1902,188.503 75.5,189C 78.1667,192.667 78.1667,196.333 75.5,200C 73.1902,200.497 70.8568,200.663 68.5,200.5C 68.5,196.5 68.5,192.5 68.5,188.5 Z"/></g>
<g><path style="opacity:1" fill="#d45084" d="M 142.5,188.5 C 144.423,192.029 145.089,196.029 144.5,200.5C 142.143,200.663 139.81,200.497 137.5,200C 135.773,191.316 134.773,191.483 134.5,200.5C 133.5,200.5 132.5,200.5 131.5,200.5C 131.5,197.5 131.5,194.5 131.5,191.5C 135.167,192.833 138.833,192.833 142.5,191.5C 142.5,190.5 142.5,189.5 142.5,188.5 Z"/></g>
<g><path style="opacity:1" fill="#22172d" d="M 29.5,189.5 C 31.1667,189.5 32.8333,189.5 34.5,189.5C 34.5,191.833 34.5,194.167 34.5,196.5C 32.8333,196.5 31.1667,196.5 29.5,196.5C 29.5,194.167 29.5,191.833 29.5,189.5 Z"/></g>
<g><path style="opacity:1" fill="#101023" d="M 41.5,189.5 C 42.9778,189.238 44.3112,189.571 45.5,190.5C 44.8333,190.833 44.1667,191.167 43.5,191.5C 42.2867,191.253 41.62,190.586 41.5,189.5 Z"/></g>
<g><path style="opacity:1" fill="#111126" d="M 71.5,190.5 C 72.5,190.5 73.5,190.5 74.5,190.5C 74.6633,192.857 74.4966,195.19 74,197.5C 73.586,197.957 73.086,198.291 72.5,198.5C 71.52,195.914 71.1866,193.247 71.5,190.5 Z"/></g>
<g><path style="opacity:1" fill="#d34b7a" d="M 95.5,188.5 C 96.5,188.5 97.5,188.5 98.5,188.5C 98.5,189.5 98.5,190.5 98.5,191.5C 100.144,191.286 101.644,191.62 103,192.5C 103.497,195.146 103.664,197.813 103.5,200.5C 102.5,200.5 101.5,200.5 100.5,200.5C 99.8333,191.167 99.1667,191.167 98.5,200.5C 97.5,200.5 96.5,200.5 95.5,200.5C 95.5,196.5 95.5,192.5 95.5,188.5 Z"/></g>
<g><path style="opacity:1" fill="#d04f82" d="M 80.5,191.5 C 82.4672,191.261 84.3005,191.594 86,192.5C 86.4974,195.146 86.6641,197.813 86.5,200.5C 83.8806,200.768 81.3806,200.435 79,199.5C 78.3333,198.5 78.3333,197.5 79,196.5C 80.5095,195.91 82.0095,195.244 83.5,194.5C 82.6086,193.41 81.6086,193.41 80.5,194.5C 79.4376,193.575 79.4376,192.575 80.5,191.5 Z"/></g>
<g><path style="opacity:1" fill="#18183b" d="M 139.5,193.5 C 140.5,193.5 141.5,193.5 142.5,193.5C 142.5,195.167 142.5,196.833 142.5,198.5C 141.5,198.5 140.5,198.5 139.5,198.5C 139.5,196.833 139.5,195.167 139.5,193.5 Z"/></g>
<g><path style="opacity:1" fill="#bd528a" d="M 38.5,196.5 C 41.8333,196.5 45.1667,196.5 48.5,196.5C 48.5,200.5 48.5,204.5 48.5,208.5C 45.1667,208.5 41.8333,208.5 38.5,208.5C 38.5,204.5 38.5,200.5 38.5,196.5 Z"/></g>
<g><path style="opacity:1" fill="#d04f88" d="M 122.5,194.5 C 122.414,193.504 122.748,192.671 123.5,192C 125.579,191.192 127.579,191.359 129.5,192.5C 130.393,195.084 130.726,197.751 130.5,200.5C 128.143,200.663 125.81,200.497 123.5,200C 122.5,196.667 121.5,196.667 120.5,200C 117.32,201.036 114.82,200.203 113,197.5C 112.626,198.416 112.126,199.25 111.5,200C 109.19,200.497 106.857,200.663 104.5,200.5C 104.5,196.5 104.5,192.5 104.5,188.5C 105.5,188.5 106.5,188.5 107.5,188.5C 107.5,189.5 107.5,190.5 107.5,191.5C 110.238,190.965 112.072,191.965 113,194.5C 116.294,190.527 119.46,190.527 122.5,194.5 Z"/></g>
<g><path style="opacity:1" fill="#11102e" d="M 122.5,194.5 C 128.714,193.549 128.88,194.215 123,196.5C 122.536,195.906 122.369,195.239 122.5,194.5 Z"/></g>
<g><path style="opacity:1" fill="#181538" d="M 116.5,193.5 C 117.5,193.5 118.5,193.5 119.5,193.5C 119.5,195.167 119.5,196.833 119.5,198.5C 118.5,198.5 117.5,198.5 116.5,198.5C 116.5,196.833 116.5,195.167 116.5,193.5 Z"/></g>
<g><path style="opacity:1" fill="#1a1739" d="M 107.5,193.5 C 108.5,193.5 109.5,193.5 110.5,193.5C 110.5,195.167 110.5,196.833 110.5,198.5C 109.5,198.5 108.5,198.5 107.5,198.5C 107.5,196.833 107.5,195.167 107.5,193.5 Z"/></g>
<g><path style="opacity:1" fill="#101023" d="M 41.5,199.5 C 42.8333,199.5 44.1667,199.5 45.5,199.5C 45.5,201.5 45.5,203.5 45.5,205.5C 44.1667,205.5 42.8333,205.5 41.5,205.5C 41.5,203.5 41.5,201.5 41.5,199.5 Z"/></g>
<g><path style="opacity:1" fill="#db538c" d="M 88.5,191.5 C 90.4672,191.261 92.3005,191.594 94,192.5C 94.5908,193.483 94.2575,194.15 93,194.5C 91.8382,193.813 90.6716,193.647 89.5,194C 90.8905,195.02 92.3905,195.853 94,196.5C 94.6838,197.784 94.5171,198.951 93.5,200C 91.5594,200.743 89.7261,200.576 88,199.5C 87.3123,198.668 87.479,198.002 88.5,197.5C 92.1951,198.251 92.0285,197.585 88,195.5C 87.4209,194.072 87.5876,192.738 88.5,191.5 Z"/></g>
<g><path style="opacity:1" fill="#bb5188" d="M 26.5,200.5 C 29.8333,200.5 33.1667,200.5 36.5,200.5C 36.5,203.167 36.5,205.833 36.5,208.5C 33.1667,208.5 29.8333,208.5 26.5,208.5C 26.5,205.833 26.5,203.167 26.5,200.5 Z"/></g>
<g><path style="opacity:1" fill="#101023" d="M 29.5,203.5 C 30.9778,203.238 32.3112,203.571 33.5,204.5C 32.8333,204.833 32.1667,205.167 31.5,205.5C 30.2867,205.253 29.62,204.586 29.5,203.5 Z"/></g>
<g><path style="opacity:1" fill="#d3d3d9" d="M 32.5,228.5 C 39.169,228.005 42.3356,231.005 42,237.5C 38.4681,243.29 34.1348,243.957 29,239.5C 27.6631,234.872 28.8298,231.205 32.5,228.5 Z"/></g>
<g><path style="opacity:1" fill="#18192a" d="M 32.5,231.5 C 39.4863,231.331 41.153,234.164 37.5,240C 30.808,240.116 29.1413,237.282 32.5,231.5 Z"/></g>
<g><path style="opacity:1" fill="#d7d6d3" d="M 68.5,232.5 C 70.2371,235.008 71.0704,238.008 71,241.5C 72.0113,242.337 73.1779,242.67 74.5,242.5C 74.5,239.167 74.5,235.833 74.5,232.5C 75.5,232.5 76.5,232.5 77.5,232.5C 77.665,235.85 77.4983,239.183 77,242.5C 74.3333,245.167 71.6667,245.167 69,242.5C 68.5017,239.183 68.335,235.85 68.5,232.5 Z"/></g>
<g><path style="opacity:1" fill="#d3c1b0" d="M 99.5,232.5 C 103.276,232.469 103.443,233.136 100,234.5C 98.3164,234.317 98.1498,233.65 99.5,232.5 Z"/></g>
<g><path style="opacity:1" fill="#d9e4df" d="M 110.5,232.5 C 112.337,232.639 112.67,233.306 111.5,234.5C 110.702,234.043 110.369,233.376 110.5,232.5 Z"/></g>
<g><path style="opacity:1" fill="#e3e4cd" d="M 110.5,235.5 C 111.765,236.514 112.431,238.014 112.5,240C 112.167,241.5 111.833,243 111.5,244.5C 110.516,241.572 110.183,238.572 110.5,235.5 Z"/></g>
<g><path style="opacity:1" fill="#cec8c5" d="M 124.5,235.5 C 126.977,235.051 128.977,235.717 130.5,237.5C 129.624,238.251 128.624,238.751 127.5,239C 130.346,239.879 131.013,241.546 129.5,244C 127.559,244.743 125.726,244.576 124,243.5C 123.312,242.668 123.479,242.002 124.5,241.5C 128.195,242.251 128.028,241.585 124,239.5C 123.421,238.072 123.588,236.738 124.5,235.5 Z"/></g>
<g><path style="opacity:1" fill="#0486ea" d="M 776.5,247.5 C 770.834,248.652 766.334,251.652 763,256.5C 755.804,266.227 749.637,276.56 744.5,287.5C 738.85,296.781 732.684,305.781 726,314.5C 719.082,321.544 710.915,323.377 701.5,320C 688.28,312.223 675.947,303.223 664.5,293C 655.462,287.354 645.795,286.021 635.5,289C 622.456,296.855 609.123,304.189 595.5,311C 573.141,314.035 551.475,319.535 530.5,327.5C 519.69,331.019 510.857,328.352 504,319.5C 502.391,316.593 500.558,313.927 498.5,311.5C 496.072,306.307 493.405,301.307 490.5,296.5C 487.403,289.309 484.07,282.309 480.5,275.5C 475.406,262.806 468.406,251.306 459.5,241C 455.205,237.816 450.871,237.816 446.5,241C 436.391,251.605 428.058,263.438 421.5,276.5C 417.833,282.5 414.167,288.5 410.5,294.5C 405.488,302.867 398.488,308.534 389.5,311.5C 389.167,311.5 388.833,311.5 388.5,311.5C 388.5,309.833 388.5,308.167 388.5,306.5C 390.989,306.702 393.323,306.202 395.5,305C 398.333,302.167 401.167,299.333 404,296.5C 414.605,278.899 425.605,261.566 437,244.5C 446.292,232.002 456.292,231.336 467,242.5C 469.667,246.5 472.333,250.5 475,254.5C 484.551,275.27 494.885,295.603 506,315.5C 508.944,319.119 512.444,321.953 516.5,324C 523.924,323.982 531.257,322.982 538.5,321C 554.5,314.166 571.167,310.166 588.5,309C 593.739,307.587 598.739,305.587 603.5,303C 613.342,296.243 623.675,290.243 634.5,285C 643.303,281.57 651.969,281.903 660.5,286C 670.705,292.605 680.372,299.938 689.5,308C 693.666,310.917 697.999,313.584 702.5,316C 708.345,318.248 714.012,317.915 719.5,315C 722.704,312.131 725.537,308.965 728,305.5C 738.249,287.329 749.249,269.663 761,252.5C 764.5,249.667 768,246.833 771.5,244C 773.134,243.506 774.801,243.34 776.5,243.5C 776.5,244.833 776.5,246.167 776.5,247.5 Z"/></g>
<g><path style="opacity:1" fill="#0486ea" d="M 1299.5,247.5 C 1293.83,248.652 1289.33,251.652 1286,256.5C 1278.8,266.227 1272.64,276.56 1267.5,287.5C 1261.85,296.781 1255.68,305.781 1249,314.5C 1242.08,321.544 1233.92,323.377 1224.5,320C 1211.28,312.223 1198.95,303.223 1187.5,293C 1178.46,287.354 1168.79,286.021 1158.5,289C 1145.46,296.855 1132.12,304.189 1118.5,311C 1096.14,314.035 1074.47,319.535 1053.5,327.5C 1042.69,331.019 1033.86,328.352 1027,319.5C 1025.39,316.593 1023.56,313.927 1021.5,311.5C 1018.74,305.64 1015.74,299.974 1012.5,294.5C 1009.74,287.976 1006.74,281.643 1003.5,275.5C 998.406,262.806 991.406,251.306 982.5,241C 978.205,237.816 973.871,237.816 969.5,241C 959.642,251.22 951.642,262.72 945.5,275.5C 941.264,281.628 937.264,287.962 933.5,294.5C 928.488,302.867 921.488,308.534 912.5,311.5C 912.167,311.5 911.833,311.5 911.5,311.5C 911.5,309.833 911.5,308.167 911.5,306.5C 913.989,306.702 916.323,306.202 918.5,305C 921.333,302.167 924.167,299.333 927,296.5C 937.605,278.899 948.605,261.566 960,244.5C 969.292,232.002 979.292,231.336 990,242.5C 992.667,246.5 995.333,250.5 998,254.5C 1007.55,275.27 1017.88,295.603 1029,315.5C 1031.94,319.119 1035.44,321.953 1039.5,324C 1046.92,323.982 1054.26,322.982 1061.5,321C 1077.5,314.166 1094.17,310.166 1111.5,309C 1116.74,307.587 1121.74,305.587 1126.5,303C 1136.34,296.243 1146.68,290.243 1157.5,285C 1166.3,281.57 1174.97,281.903 1183.5,286C 1193.71,292.605 1203.37,299.938 1212.5,308C 1216.67,310.917 1221,313.584 1225.5,316C 1231.34,318.248 1237.01,317.915 1242.5,315C 1245.7,312.131 1248.54,308.965 1251,305.5C 1261.25,287.329 1272.25,269.663 1284,252.5C 1287.5,249.667 1291,246.833 1294.5,244C 1296.13,243.506 1297.8,243.34 1299.5,243.5C 1299.5,244.833 1299.5,246.167 1299.5,247.5 Z"/></g>
<g><path style="opacity:1" fill="#d5cac2" d="M 104.5,235.5 C 106.288,235.215 107.955,235.548 109.5,236.5C 107.777,238.868 107.11,241.534 107.5,244.5C 106.5,244.5 105.5,244.5 104.5,244.5C 104.5,241.5 104.5,238.5 104.5,235.5 Z"/></g>
<g><path style="opacity:1" fill="#a1a1ab" d="M 45.5,235.5 C 47.5,235.5 49.5,235.5 51.5,235.5C 51.5,236.5 51.5,237.5 51.5,238.5C 49.5,238.5 47.5,238.5 45.5,238.5C 45.5,237.5 45.5,236.5 45.5,235.5 Z"/></g>
<g><path style="opacity:1" fill="#d7d2cf" d="M 115.5,235.5 C 122.486,235.331 124.153,238.164 120.5,244C 113.416,244.475 111.749,241.642 115.5,235.5 Z"/></g>
<g><path style="opacity:1" fill="#25182e" d="M 116.5,237.5 C 117.5,237.5 118.5,237.5 119.5,237.5C 119.5,239.167 119.5,240.833 119.5,242.5C 118.5,242.5 117.5,242.5 116.5,242.5C 116.5,240.833 116.5,239.167 116.5,237.5 Z"/></g>
<g><path style="opacity:1" fill="#d4d5d6" d="M 79.5,235.5 C 81.1992,235.34 82.8659,235.506 84.5,236C 85.7112,236.893 85.7112,237.726 84.5,238.5C 83.3914,237.41 82.3914,237.41 81.5,238.5C 82.6888,239.429 84.0222,239.762 85.5,239.5C 85.5,241.167 85.5,242.833 85.5,244.5C 83.2075,244.756 81.0408,244.423 79,243.5C 78.3123,242.668 78.479,242.002 79.5,241.5C 80.7678,242.428 82.1011,242.595 83.5,242C 79.2822,241.328 77.9488,239.162 79.5,235.5 Z"/></g>
<g><path style="opacity:1" fill="#d1cecf" d="M 96.5,235.5 C 102.831,235.11 105.164,238.11 103.5,244.5C 100.881,244.768 98.3806,244.435 96,243.5C 95.3333,242.5 95.3333,241.5 96,240.5C 97.5095,239.91 99.0095,239.244 100.5,238.5C 98.8827,238.331 97.216,237.997 95.5,237.5C 95.8627,236.817 96.1961,236.15 96.5,235.5 Z"/></g>
<g><path style="opacity:1" fill="#edeef1" d="M 43.5,241.5 C 46.2469,241.187 48.9135,241.52 51.5,242.5C 50.1667,242.833 48.8333,243.167 47.5,243.5C 45.6672,243.415 44.3339,242.748 43.5,241.5 Z"/></g>
<g><path style="opacity:1" fill="#e1e0db" d="M 87.5,235.5 C 89.3435,237.279 90.0102,239.612 89.5,242.5C 90.5,242.5 91.5,242.5 92.5,242.5C 92.1924,240.076 92.5258,237.743 93.5,235.5C 94.4841,238.428 94.8174,241.428 94.5,244.5C 92.1667,244.5 89.8333,244.5 87.5,244.5C 87.5,241.5 87.5,238.5 87.5,235.5 Z"/></g>
<g><path style="opacity:1" fill="#c7c7ce" d="M 32.5,243.5 C 39.3822,243.582 43.3822,246.915 44.5,253.5C 43.5,253.5 42.5,253.5 41.5,253.5C 40.6076,246.544 36.9409,244.711 30.5,248C 29.1387,249.584 28.472,251.418 28.5,253.5C 27.5,253.5 26.5,253.5 25.5,253.5C 26.2762,249.06 28.6096,245.727 32.5,243.5 Z"/></g>
<g><path style="opacity:1" fill="#e4e4e9" d="M 46.5,247.5 C 48.288,247.215 49.9547,247.548 51.5,248.5C 50.6667,248.833 49.8333,249.167 49,249.5C 47.6244,249.316 46.7911,248.649 46.5,247.5 Z"/></g>
<g><path style="opacity:1" fill="#144169" d="M 480.5,275.5 C 460.956,276.265 441.289,276.598 421.5,276.5C 428.058,263.438 436.391,251.605 446.5,241C 450.871,237.816 455.205,237.816 459.5,241C 468.406,251.306 475.406,262.806 480.5,275.5 Z"/></g>
<g><path style="opacity:1" fill="#144169" d="M 1003.5,275.5 C 984.069,276.102 964.736,276.102 945.5,275.5C 951.642,262.72 959.642,251.22 969.5,241C 973.871,237.816 978.205,237.816 982.5,241C 991.406,251.306 998.406,262.806 1003.5,275.5 Z"/></g>
<g><path style="opacity:1" fill="#153b5d" d="M 776.5,247.5 C 776.5,260.833 776.5,274.167 776.5,287.5C 765.833,287.5 755.167,287.5 744.5,287.5C 749.637,276.56 755.804,266.227 763,256.5C 766.334,251.652 770.834,248.652 776.5,247.5 Z"/></g>
<g><path style="opacity:1" fill="#153b5d" d="M 1299.5,247.5 C 1299.5,260.833 1299.5,274.167 1299.5,287.5C 1288.83,287.5 1278.17,287.5 1267.5,287.5C 1272.64,276.56 1278.8,266.227 1286,256.5C 1289.33,251.652 1293.83,248.652 1299.5,247.5 Z"/></g>
<g><path style="opacity:1" fill="#163451" d="M 480.5,275.5 C 484.07,282.309 487.403,289.309 490.5,296.5C 463.833,295.833 437.167,295.167 410.5,294.5C 414.167,288.5 417.833,282.5 421.5,276.5C 441.289,276.598 460.956,276.265 480.5,275.5 Z"/></g>
<g><path style="opacity:1" fill="#163451" d="M 945.5,275.5 C 964.736,276.102 984.069,276.102 1003.5,275.5C 1006.74,281.643 1009.74,287.976 1012.5,294.5C 986.167,295.833 959.833,295.833 933.5,294.5C 937.264,287.962 941.264,281.628 945.5,275.5 Z"/></g>
<g><path style="opacity:1" fill="#182d43" d="M 410.5,294.5 C 437.167,295.167 463.833,295.833 490.5,296.5C 493.405,301.307 496.072,306.307 498.5,311.5C 462.167,311.5 425.833,311.5 389.5,311.5C 398.488,308.534 405.488,302.867 410.5,294.5 Z"/></g>
<g><path style="opacity:1" fill="#182d43" d="M 933.5,294.5 C 959.833,295.833 986.167,295.833 1012.5,294.5C 1015.74,299.974 1018.74,305.64 1021.5,311.5C 985.167,311.5 948.833,311.5 912.5,311.5C 921.488,308.534 928.488,302.867 933.5,294.5 Z"/></g>
<g><path style="opacity:1" fill="#575168" d="M 48.5,310.5 C 54.6417,306.749 57.475,308.416 57,315.5C 51.1643,319.153 48.331,317.486 48.5,310.5 Z"/></g>
<g><path style="opacity:1" fill="#6f7086" d="M 97.5,308.5 C 103.643,309.026 104.976,311.86 101.5,317C 97.6629,318 95.6629,316.5 95.5,312.5C 95.8029,310.886 96.4695,309.552 97.5,308.5 Z"/></g>
<g><path style="opacity:1" fill="#1b1832" d="M 97.5,310.5 C 98.8333,310.5 100.167,310.5 101.5,310.5C 101.5,312.167 101.5,313.833 101.5,315.5C 100.167,315.5 98.8333,315.5 97.5,315.5C 97.5,313.833 97.5,312.167 97.5,310.5 Z"/></g>
<g><path style="opacity:1" fill="#6a6681" d="M 48.5,310.5 C 47.5,310.5 46.5,310.5 45.5,310.5C 44.8333,319.833 44.1667,319.833 43.5,310.5C 42.5,310.5 41.5,310.5 40.5,310.5C 40.9167,313.079 40.25,315.246 38.5,317C 33.8553,317.265 29.1887,317.432 24.5,317.5C 24.1667,317.333 23.8333,317.167 23.5,317C 24.9563,314.734 25.7896,312.234 26,309.5C 26.5613,308.978 27.228,308.645 28,308.5C 29.8843,310.45 31.2176,312.784 32,315.5C 32.4966,313.19 32.6633,310.857 32.5,308.5C 33.5,308.5 34.5,308.5 35.5,308.5C 35.5,310.833 35.5,313.167 35.5,315.5C 36.5,315.5 37.5,315.5 38.5,315.5C 38.5,313.167 38.5,310.833 38.5,308.5C 42.3293,307.931 45.6627,308.598 48.5,310.5 Z"/></g>
<g><path style="opacity:1" fill="#68657e" d="M 58.5,308.5 C 61.6449,309.077 63.1449,311.077 63,314.5C 62.8149,310.489 64.6482,308.489 68.5,308.5C 68.3367,310.857 68.5034,313.19 69,315.5C 70.8252,313.52 71.6585,311.187 71.5,308.5C 72.8221,308.33 73.9887,308.663 75,309.5C 76.3976,312.293 76.8976,314.96 76.5,317.5C 73.8796,316.478 71.2129,316.478 68.5,317.5C 67.0055,317.291 65.8388,316.624 65,315.5C 64.6924,316.308 64.1924,316.975 63.5,317.5C 62.1936,316.088 61.3603,314.421 61,312.5C 60.7978,314.256 60.2978,315.922 59.5,317.5C 58.5159,314.572 58.1826,311.572 58.5,308.5 Z"/></g>
<g><path style="opacity:1" fill="#6b6980" d="M 89.5,308.5 C 90.5,308.5 91.5,308.5 92.5,308.5C 92.8664,310.905 93.5331,313.238 94.5,315.5C 94.1667,316.167 93.8333,316.833 93.5,317.5C 91.1657,316.518 88.8324,316.351 86.5,317C 87.9292,314.31 88.9292,311.477 89.5,308.5 Z"/></g>
<g><path style="opacity:1" fill="#6b6e88" d="M 79.5,308.5 C 81.4672,308.261 83.3005,308.594 85,309.5C 85.6877,310.332 85.521,310.998 84.5,311.5C 83.2638,310.754 81.9305,310.421 80.5,310.5C 80.5,312.167 80.5,313.833 80.5,315.5C 82.3307,314.948 83.9974,314.948 85.5,315.5C 84.316,317.046 83.316,318.713 82.5,320.5C 81.3044,320.154 81.3044,319.654 82.5,319C 78.5851,316.355 77.5851,312.855 79.5,308.5 Z"/></g>
<g><path style="opacity:1" fill="#1a293b" d="M 744.5,287.5 C 755.167,287.5 765.833,287.5 776.5,287.5C 776.5,300.833 776.5,314.167 776.5,327.5C 694.5,327.5 612.5,327.5 530.5,327.5C 551.475,319.535 573.141,314.035 595.5,311C 609.123,304.189 622.456,296.855 635.5,289C 645.795,286.021 655.462,287.354 664.5,293C 675.947,303.223 688.28,312.223 701.5,320C 710.915,323.377 719.082,321.544 726,314.5C 732.684,305.781 738.85,296.781 744.5,287.5 Z"/></g>
<g><path style="opacity:1" fill="#1a293b" d="M 1267.5,287.5 C 1278.17,287.5 1288.83,287.5 1299.5,287.5C 1299.5,300.833 1299.5,314.167 1299.5,327.5C 1217.5,327.5 1135.5,327.5 1053.5,327.5C 1074.47,319.535 1096.14,314.035 1118.5,311C 1132.12,304.189 1145.46,296.855 1158.5,289C 1168.79,286.021 1178.46,287.354 1187.5,293C 1198.95,303.223 1211.28,312.223 1224.5,320C 1233.92,323.377 1242.08,321.544 1249,314.5C 1255.68,305.781 1261.85,296.781 1267.5,287.5 Z"/></g>
<g><path style="opacity:1" fill="#1c2635" d="M 388.5,311.5 C 388.833,311.5 389.167,311.5 389.5,311.5C 425.833,311.5 462.167,311.5 498.5,311.5C 500.558,313.927 502.391,316.593 504,319.5C 510.857,328.352 519.69,331.019 530.5,327.5C 612.5,327.5 694.5,327.5 776.5,327.5C 776.5,330.167 776.5,332.833 776.5,335.5C 647.167,335.5 517.833,335.5 388.5,335.5C 388.5,327.5 388.5,319.5 388.5,311.5 Z"/></g>
<g><path style="opacity:1" fill="#1c2635" d="M 911.5,311.5 C 911.833,311.5 912.167,311.5 912.5,311.5C 948.833,311.5 985.167,311.5 1021.5,311.5C 1023.56,313.927 1025.39,316.593 1027,319.5C 1033.86,328.352 1042.69,331.019 1053.5,327.5C 1135.5,327.5 1217.5,327.5 1299.5,327.5C 1299.5,330.167 1299.5,332.833 1299.5,335.5C 1170.17,335.5 1040.83,335.5 911.5,335.5C 911.5,327.5 911.5,319.5 911.5,311.5 Z"/></g>
<g><path style="opacity:1" fill="#3d4555" d="M 388.5,335.5 C 517.833,335.5 647.167,335.5 776.5,335.5C 755.34,336.497 734.007,336.831 712.5,336.5C 712.167,343.167 711.833,343.167 711.5,336.5C 690.167,336.5 668.833,336.5 647.5,336.5C 647.167,343.167 646.833,343.167 646.5,336.5C 625.5,336.5 604.5,336.5 583.5,336.5C 583.167,343.167 582.833,343.167 582.5,336.5C 561.167,336.5 539.833,336.5 518.5,336.5C 518.167,343.167 517.833,343.167 517.5,336.5C 496.5,336.5 475.5,336.5 454.5,336.5C 453.833,343.167 453.167,343.167 452.5,336.5C 431.5,336.5 410.5,336.5 389.5,336.5C 389.66,338.199 389.494,339.866 389,341.5C 388.505,339.527 388.338,337.527 388.5,335.5 Z"/></g>
<g><path style="opacity:1" fill="#3d4555" d="M 911.5,335.5 C 1040.83,335.5 1170.17,335.5 1299.5,335.5C 1278.34,336.497 1257.01,336.831 1235.5,336.5C 1235.17,343.167 1234.83,343.167 1234.5,336.5C 1213.17,336.5 1191.83,336.5 1170.5,336.5C 1170.17,343.167 1169.83,343.167 1169.5,336.5C 1148.5,336.5 1127.5,336.5 1106.5,336.5C 1106.17,343.167 1105.83,343.167 1105.5,336.5C 1084.17,336.5 1062.83,336.5 1041.5,336.5C 1041.17,343.167 1040.83,343.167 1040.5,336.5C 1019.5,336.5 998.5,336.5 977.5,336.5C 976.833,343.167 976.167,343.167 975.5,336.5C 954.5,336.5 933.5,336.5 912.5,336.5C 912.66,338.199 912.494,339.866 912,341.5C 911.505,339.527 911.338,337.527 911.5,335.5 Z"/></g>
<g><path style="opacity:1" fill="#414755" d="M 629.5,350.5 C 632.86,349.79 634.693,351.124 635,354.5C 635.691,351.409 637.524,350.243 640.5,351C 641.77,354.142 640.77,356.475 637.5,358C 638.833,358.333 640.167,358.667 641.5,359C 637.143,358.558 632.81,358.392 628.5,358.5C 631.966,357.08 632.966,354.747 631.5,351.5C 630.056,352.981 629.389,352.648 629.5,350.5 Z"/></g>
<g><path style="opacity:1" fill="#414755" d="M 1152.5,350.5 C 1155.86,349.79 1157.69,351.124 1158,354.5C 1158.69,351.409 1160.52,350.243 1163.5,351C 1164.77,354.142 1163.77,356.475 1160.5,358C 1161.83,358.333 1163.17,358.667 1164.5,359C 1160.14,358.558 1155.81,358.392 1151.5,358.5C 1154.97,357.08 1155.97,354.747 1154.5,351.5C 1153.06,352.981 1152.39,352.648 1152.5,350.5 Z"/></g>
<g><path style="opacity:1" fill="#596067" d="M 387.5,350.5 C 388.5,350.5 389.5,350.5 390.5,350.5C 391.387,356.982 392.721,356.982 394.5,350.5C 395.655,353.446 395.821,356.446 395,359.5C 394.667,358.5 394.333,357.5 394,356.5C 393.632,357.91 392.799,358.91 391.5,359.5C 390.702,357.922 390.202,356.256 390,354.5C 389.798,356.256 389.298,357.922 388.5,359.5C 387.516,356.572 387.183,353.572 387.5,350.5 Z"/></g>
<g><path style="opacity:1" fill="#5b5f67" d="M 516.5,350.5 C 517.5,350.5 518.5,350.5 519.5,350.5C 519.383,352.484 520.05,354.15 521.5,355.5C 522.251,354.624 522.751,353.624 523,352.5C 523.334,354.847 523.167,357.181 522.5,359.5C 521.5,359.5 520.5,359.5 519.5,359.5C 519.462,352.959 518.796,352.959 517.5,359.5C 516.516,356.572 516.183,353.572 516.5,350.5 Z"/></g>
<g><path style="opacity:1" fill="#596067" d="M 581.5,350.5 C 582.5,350.5 583.5,350.5 584.5,350.5C 585.387,356.982 586.721,356.982 588.5,350.5C 589.655,353.446 589.821,356.446 589,359.5C 588.667,358.5 588.333,357.5 588,356.5C 587.632,357.91 586.799,358.91 585.5,359.5C 584.702,357.922 584.202,356.256 584,354.5C 583.798,356.256 583.298,357.922 582.5,359.5C 581.516,356.572 581.183,353.572 581.5,350.5 Z"/></g>
<g><path style="opacity:1" fill="#5b5f67" d="M 710.5,350.5 C 711.5,350.5 712.5,350.5 713.5,350.5C 713.383,352.484 714.05,354.15 715.5,355.5C 716.251,354.624 716.751,353.624 717,352.5C 717.334,354.847 717.167,357.181 716.5,359.5C 715.5,359.5 714.5,359.5 713.5,359.5C 713.462,352.959 712.796,352.959 711.5,359.5C 710.516,356.572 710.183,353.572 710.5,350.5 Z"/></g>
<g><path style="opacity:1" fill="#596067" d="M 910.5,350.5 C 911.5,350.5 912.5,350.5 913.5,350.5C 914.387,356.982 915.721,356.982 917.5,350.5C 918.655,353.446 918.821,356.446 918,359.5C 917.667,358.5 917.333,357.5 917,356.5C 916.632,357.91 915.799,358.91 914.5,359.5C 913.702,357.922 913.202,356.256 913,354.5C 912.798,356.256 912.298,357.922 911.5,359.5C 910.516,356.572 910.183,353.572 910.5,350.5 Z"/></g>
<g><path style="opacity:1" fill="#5b5f67" d="M 1039.5,350.5 C 1040.5,350.5 1041.5,350.5 1042.5,350.5C 1042.38,352.484 1043.05,354.15 1044.5,355.5C 1045.25,354.624 1045.75,353.624 1046,352.5C 1046.33,354.847 1046.17,357.181 1045.5,359.5C 1044.5,359.5 1043.5,359.5 1042.5,359.5C 1042.46,352.959 1041.8,352.959 1040.5,359.5C 1039.52,356.572 1039.18,353.572 1039.5,350.5 Z"/></g>
<g><path style="opacity:1" fill="#596067" d="M 1104.5,350.5 C 1105.5,350.5 1106.5,350.5 1107.5,350.5C 1108.39,356.982 1109.72,356.982 1111.5,350.5C 1112.65,353.446 1112.82,356.446 1112,359.5C 1111.67,358.5 1111.33,357.5 1111,356.5C 1110.63,357.91 1109.8,358.91 1108.5,359.5C 1107.7,357.922 1107.2,356.256 1107,354.5C 1106.8,356.256 1106.3,357.922 1105.5,359.5C 1104.52,356.572 1104.18,353.572 1104.5,350.5 Z"/></g>
<g><path style="opacity:1" fill="#5b5f67" d="M 1233.5,350.5 C 1234.5,350.5 1235.5,350.5 1236.5,350.5C 1236.38,352.484 1237.05,354.15 1238.5,355.5C 1239.25,354.624 1239.75,353.624 1240,352.5C 1240.33,354.847 1240.17,357.181 1239.5,359.5C 1238.5,359.5 1237.5,359.5 1236.5,359.5C 1236.46,352.959 1235.8,352.959 1234.5,359.5C 1233.52,356.572 1233.18,353.572 1233.5,350.5 Z"/></g>
<g><path style="opacity:1" fill="#555f71" d="M 442.5,350.5 C 446.24,349.741 447.907,351.241 447.5,355C 447.825,359.157 446.158,360.324 442.5,358.5C 443.397,358.331 444.397,357.998 445.5,357.5C 444.675,356.614 443.675,356.281 442.5,356.5C 442.5,354.5 442.5,352.5 442.5,350.5 Z"/></g>
<g><path style="opacity:1" fill="#555f71" d="M 965.5,350.5 C 969.24,349.741 970.907,351.241 970.5,355C 970.825,359.157 969.158,360.324 965.5,358.5C 966.397,358.331 967.397,357.998 968.5,357.5C 967.675,356.614 966.675,356.281 965.5,356.5C 965.5,354.5 965.5,352.5 965.5,350.5 Z"/></g>
<g><path style="opacity:1" fill="#606f75" d="M 452.5,350.5 C 454.662,350.897 455.995,352.231 456.5,354.5C 457.148,352.851 458.148,351.518 459.5,350.5C 460.655,353.446 460.821,356.446 460,359.5C 459.667,357.5 459.333,355.5 459,353.5C 456.994,361.341 455.327,361.008 454,352.5C 453.667,354.833 453.333,357.167 453,359.5C 452.502,356.518 452.335,353.518 452.5,350.5 Z"/></g>
<g><path style="opacity:1" fill="#536174" d="M 651.5,350.5 C 652.5,350.5 653.5,350.5 654.5,350.5C 654.817,353.572 654.484,356.572 653.5,359.5C 652.262,355.689 651.596,355.689 651.5,359.5C 650.5,359.5 649.5,359.5 648.5,359.5C 648.337,357.143 648.503,354.81 649,352.5C 649.333,353.833 649.667,355.167 650,356.5C 650.813,354.564 651.313,352.564 651.5,350.5 Z"/></g>
<g><path style="opacity:1" fill="#606f75" d="M 975.5,350.5 C 977.662,350.897 978.995,352.231 979.5,354.5C 980.148,352.851 981.148,351.518 982.5,350.5C 983.655,353.446 983.821,356.446 983,359.5C 982.667,357.5 982.333,355.5 982,353.5C 979.994,361.341 978.327,361.008 977,352.5C 976.667,354.833 976.333,357.167 976,359.5C 975.502,356.518 975.335,353.518 975.5,350.5 Z"/></g>
<g><path style="opacity:1" fill="#536174" d="M 1174.5,350.5 C 1175.5,350.5 1176.5,350.5 1177.5,350.5C 1177.82,353.572 1177.48,356.572 1176.5,359.5C 1175.26,355.689 1174.6,355.689 1174.5,359.5C 1173.5,359.5 1172.5,359.5 1171.5,359.5C 1171.34,357.143 1171.5,354.81 1172,352.5C 1172.33,353.833 1172.67,355.167 1173,356.5C 1173.81,354.564 1174.31,352.564 1174.5,350.5 Z"/></g>
<g><path style="opacity:1" fill="#b8b8c0" d="M 27.5,357.5 C 34.4222,357.188 41.2555,357.521 48,358.5C 48.8112,365.414 48.6445,372.248 47.5,379C 40.5857,379.811 33.7524,379.645 27,378.5C 26.2055,371.42 26.3722,364.42 27.5,357.5 Z"/></g>
<g><path style="opacity:1" fill="#d9d0c7" d="M 68.5,359.5 C 71.2469,359.187 73.9135,359.52 76.5,360.5C 74.9547,361.452 73.288,361.785 71.5,361.5C 71.5,362.5 71.5,363.5 71.5,364.5C 76.8333,365.167 76.8333,365.833 71.5,366.5C 71.5,368.167 71.5,369.833 71.5,371.5C 70.5,371.5 69.5,371.5 68.5,371.5C 68.5,367.5 68.5,363.5 68.5,359.5 Z"/></g>
<g><path style="opacity:1" fill="#d0c9bc" d="M 114.5,359.5 C 115.5,359.5 116.5,359.5 117.5,359.5C 117.5,363.5 117.5,367.5 117.5,371.5C 116.5,371.5 115.5,371.5 114.5,371.5C 114.5,367.5 114.5,363.5 114.5,359.5 Z"/></g>
<g><path style="opacity:1" fill="#111224" d="M 29.5,360.5 C 34.8333,360.5 40.1667,360.5 45.5,360.5C 45.5,365.833 45.5,371.167 45.5,376.5C 40.1667,376.5 34.8333,376.5 29.5,376.5C 29.5,371.167 29.5,365.833 29.5,360.5 Z"/></g>
<g><path style="opacity:1" fill="#c7c8cd" d="M 132.5,359.5 C 133.675,359.281 134.675,359.614 135.5,360.5C 133.948,361.798 132.948,361.465 132.5,359.5 Z"/></g>
<g><path style="opacity:1" fill="#d7cfc5" d="M 105.5,362.5 C 106.5,362.5 107.5,362.5 108.5,362.5C 109.167,371.833 109.833,371.833 110.5,362.5C 111.5,362.5 112.5,362.5 113.5,362.5C 113.5,365.5 113.5,368.5 113.5,371.5C 110.881,371.768 108.381,371.435 106,370.5C 105.503,367.854 105.336,365.187 105.5,362.5 Z"/></g>
<g><path style="opacity:1" fill="#c5c5cc" d="M 36.5,362.5 C 38.8881,363.219 40.3881,364.885 41,367.5C 41.5573,369.615 42.3906,371.615 43.5,373.5C 43,373.833 42.5,374.167 42,374.5C 39,371.833 36,371.833 33,374.5C 32.5,374.167 32,373.833 31.5,373.5C 32.9795,369.72 34.6461,366.053 36.5,362.5 Z"/></g>
<g><path style="opacity:1" fill="#d5cac0" d="M 86.5,362.5 C 92.1764,362.334 97.8431,362.501 103.5,363C 104.444,365.719 104.777,368.552 104.5,371.5C 103.5,371.5 102.5,371.5 101.5,371.5C 100.833,362.167 100.167,362.167 99.5,371.5C 98.5,371.5 97.5,371.5 96.5,371.5C 95.8333,362.167 95.1667,362.167 94.5,371.5C 93.5,371.5 92.5,371.5 91.5,371.5C 90.9384,362.43 89.6051,362.43 87.5,371.5C 86.5159,368.572 86.1826,365.572 86.5,362.5 Z"/></g>
<g><path style="opacity:1" fill="#d7d8ce" d="M 127.5,362.5 C 130.167,362.5 132.833,362.5 135.5,362.5C 135.5,365.5 135.5,368.5 135.5,371.5C 134.5,371.5 133.5,371.5 132.5,371.5C 132.5,369.167 132.5,366.833 132.5,364.5C 131.5,364.5 130.5,364.5 129.5,364.5C 129.808,366.924 129.474,369.257 128.5,371.5C 127.516,368.572 127.183,365.572 127.5,362.5 Z"/></g>
<g><path style="opacity:1" fill="#d1cfce" d="M 78.5,362.5 C 85.4863,362.331 87.153,365.164 83.5,371C 76.4159,371.475 74.7492,368.642 78.5,362.5 Z"/></g>
<g><path style="opacity:1" fill="#221931" d="M 79.5,364.5 C 80.5,364.5 81.5,364.5 82.5,364.5C 82.5,366.167 82.5,367.833 82.5,369.5C 81.5,369.5 80.5,369.5 79.5,369.5C 79.5,367.833 79.5,366.167 79.5,364.5 Z"/></g>
<g><path style="opacity:1" fill="#d1cfce" d="M 138.5,362.5 C 145.486,362.331 147.153,365.164 143.5,371C 136.416,371.475 134.749,368.642 138.5,362.5 Z"/></g>
<g><path style="opacity:1" fill="#221931" d="M 139.5,364.5 C 140.5,364.5 141.5,364.5 142.5,364.5C 142.5,366.167 142.5,367.833 142.5,369.5C 141.5,369.5 140.5,369.5 139.5,369.5C 139.5,367.833 139.5,366.167 139.5,364.5 Z"/></g>
<g><path style="opacity:1" fill="#d3d4d6" d="M 119.5,362.5 C 121.467,362.261 123.301,362.594 125,363.5C 125.497,366.146 125.664,368.813 125.5,371.5C 123.208,371.756 121.041,371.423 119,370.5C 118.333,369.5 118.333,368.5 119,367.5C 120.509,366.91 122.009,366.244 123.5,365.5C 121.883,365.331 120.216,364.997 118.5,364.5C 118.863,363.817 119.196,363.15 119.5,362.5 Z"/></g>
<g><path style="opacity:1" fill="#d7d0cb" d="M 147.5,362.5 C 149.467,362.261 151.301,362.594 153,363.5C 153.591,364.483 153.257,365.15 152,365.5C 150.838,364.813 149.672,364.647 148.5,365C 150.67,365.811 152.337,367.145 153.5,369C 153.355,369.772 153.022,370.439 152.5,371C 150.527,371.495 148.527,371.662 146.5,371.5C 146.281,370.325 146.614,369.325 147.5,368.5C 148.451,369.326 149.451,369.492 150.5,369C 149.437,367.812 148.103,367.312 146.5,367.5C 146.366,365.708 146.699,364.042 147.5,362.5 Z"/></g>
<g><path style="opacity:1" fill="#dddde2" d="M 28.5,402.5 C 33.9956,402.457 35.329,404.623 32.5,409C 32.6448,409.772 32.9781,410.439 33.5,411C 36.5,411.333 39.5,411.667 42.5,412C 44.6596,414.331 46.6596,416.831 48.5,419.5C 46.9224,423.476 44.589,424.143 41.5,421.5C 41.3775,418.956 41.3775,416.456 41.5,414C 38.2423,413.788 35.0757,413.288 32,412.5C 32.3333,415.5 32.6667,418.5 33,421.5C 31.3333,422.833 29.6667,422.833 28,421.5C 28.1319,418.492 28.6319,415.492 29.5,412.5C 29.8464,409.57 28.8464,407.237 26.5,405.5C 27.1925,404.482 27.8592,403.482 28.5,402.5 Z"/></g>
<g><path style="opacity:1" fill="#d4ccc3" d="M 138.5,402.5 C 139.404,403.209 139.737,404.209 139.5,405.5C 137.322,404.796 135.322,404.463 133.5,404.5C 135.291,403.83 136.958,403.163 138.5,402.5 Z"/></g>
<g><path style="opacity:1" fill="#1b1b2d" d="M 29.5,404.5 C 31.337,404.639 31.6704,405.306 30.5,406.5C 29.7025,406.043 29.3691,405.376 29.5,404.5 Z"/></g>
<g><path style="opacity:1" fill="#e6e1d7" d="M 102.5,406.5 C 106.329,406.937 109.995,407.104 113.5,407C 114.783,409.795 114.783,412.628 113.5,415.5C 112.526,413.257 112.192,410.924 112.5,408.5C 111.5,408.5 110.5,408.5 109.5,408.5C 108.833,417.833 108.167,417.833 107.5,408.5C 106.5,408.5 105.5,408.5 104.5,408.5C 104.808,410.924 104.474,413.257 103.5,415.5C 102.516,412.572 102.183,409.572 102.5,406.5 Z"/></g>
<g><path style="opacity:1" fill="#d7d0cb" d="M 92.5,413.5 C 91.7569,407.297 94.2569,405.297 100,407.5C 101.916,415.43 99.4157,417.43 92.5,413.5 Z"/></g>
<g><path style="opacity:1" fill="#141235" d="M 95.5,408.5 C 98.9563,409.536 99.2896,411.203 96.5,413.5C 95.5481,411.955 95.2148,410.288 95.5,408.5 Z"/></g>
<g><path style="opacity:1" fill="#d2d6d9" d="M 125.5,406.5 C 127.467,406.261 129.301,406.594 131,407.5C 131.688,408.332 131.521,408.998 130.5,409.5C 129.264,408.754 127.93,408.421 126.5,408.5C 126.5,410.167 126.5,411.833 126.5,413.5C 128.331,412.948 129.997,412.948 131.5,413.5C 130.691,415.071 130.357,416.738 130.5,418.5C 129.127,418.657 127.793,418.49 126.5,418C 127.258,416.636 126.758,415.469 125,414.5C 124.278,411.739 124.445,409.073 125.5,406.5 Z"/></g>
<g><path style="opacity:1" fill="#d7d8d6" d="M 142.5,406.5 C 149.232,405.482 151.232,408.148 148.5,414.5C 141.803,415.834 139.803,413.168 142.5,406.5 Z"/></g>
<g><path style="opacity:1" fill="#3a2740" d="M 143.5,408.5 C 144.833,408.5 146.167,408.5 147.5,408.5C 148.244,411.95 146.91,413.616 143.5,413.5C 143.5,411.833 143.5,410.167 143.5,408.5 Z"/></g>
<g><path style="opacity:1" fill="#d1cecf" d="M 116.5,406.5 C 122.831,406.11 125.164,409.11 123.5,415.5C 120.881,415.768 118.381,415.435 116,414.5C 115.333,413.5 115.333,412.5 116,411.5C 117.509,410.91 119.009,410.244 120.5,409.5C 118.883,409.331 117.216,408.997 115.5,408.5C 115.863,407.817 116.196,407.15 116.5,406.5 Z"/></g>
<g><path style="opacity:1" fill="#d1cecf" d="M 133.5,406.5 C 139.831,406.11 142.164,409.11 140.5,415.5C 137.881,415.768 135.381,415.435 133,414.5C 132.333,413.5 132.333,412.5 133,411.5C 134.509,410.91 136.009,410.244 137.5,409.5C 135.883,409.331 134.216,408.997 132.5,408.5C 132.863,407.817 133.196,407.15 133.5,406.5 Z"/></g>
<g><path style="opacity:1" fill="#d4d2ce" d="M 92.5,413.5 C 91.8166,415.176 90.4832,415.843 88.5,415.5C 87.8333,406.167 87.1667,406.167 86.5,415.5C 83.1662,415.214 79.9995,415.214 77,415.5C 74.3333,412.833 71.6667,412.833 69,415.5C 68.5,415.167 68,414.833 67.5,414.5C 69.0291,411.246 70.3624,407.913 71.5,404.5C 72.5,403.167 73.5,403.167 74.5,404.5C 75.5686,407.539 76.7353,410.539 78,413.5C 78.4966,411.19 78.6633,408.857 78.5,406.5C 79.5,406.5 80.5,406.5 81.5,406.5C 82.1667,415.833 82.8333,415.833 83.5,406.5C 85.8211,406.771 87.8211,406.104 89.5,404.5C 91.8292,406.35 92.1625,408.517 90.5,411C 90.6842,412.376 91.3509,413.209 92.5,413.5 Z"/></g>
<g><path style="opacity:1" fill="#30193c" d="M 72.5,407.5 C 73.782,408.708 73.782,410.042 72.5,411.5C 72.0941,410.443 72.0941,409.109 72.5,407.5 Z"/></g>
<g><path style="opacity:1" fill="#1b1b2d" d="M 29.5,418.5 C 31.337,418.639 31.6704,419.306 30.5,420.5C 29.7025,420.043 29.3691,419.376 29.5,418.5 Z"/></g>
<g><path style="opacity:1" fill="#1b1b2d" d="M 43.5,418.5 C 45.337,418.639 45.6704,419.306 44.5,420.5C 43.7025,420.043 43.3691,419.376 43.5,418.5 Z"/></g>
</svg>
