<?xml version="1.0" encoding="UTF-8"?>
<!DOCTYPE svg PUBLIC "-//W3C//DTD SVG 1.1//EN" "http://www.w3.org/Graphics/SVG/1.1/DTD/svg11.dtd">
<svg xmlns="http://www.w3.org/2000/svg" version="1.1" width="1340px" height="617px" style="shape-rendering:geometricPrecision; text-rendering:geometricPrecision; image-rendering:optimizeQuality; fill-rule:evenodd; clip-rule:evenodd" xmlns:xlink="http://www.w3.org/1999/xlink">
<g><path style="opacity:1" fill="#101023" d="M -0.5,-0.5 C 446.167,-0.5 892.833,-0.5 1339.5,-0.5C 1339.5,205.167 1339.5,410.833 1339.5,616.5C 892.833,616.5 446.167,616.5 -0.5,616.5C -0.5,410.833 -0.5,205.167 -0.5,-0.5 Z"/></g>
<g><path style="opacity:1" fill="#1f2029" d="M 507.5,148.5 C 624.914,148.004 742.248,148.504 859.5,150C 860.701,150.903 861.535,152.069 862,153.5C 862.995,254.914 862.662,356.248 861,457.5C 860.097,458.701 858.931,459.535 857.5,460C 740.086,460.996 622.753,460.663 505.5,459C 504.299,458.097 503.465,456.931 503,455.5C 502.333,354.833 502.333,254.167 503,153.5C 504.025,151.313 505.525,149.646 507.5,148.5 Z"/></g>
<g><path style="opacity:1" fill="#dde9dc" d="M 576.5,185.5 C 577.794,187.048 578.461,189.048 578.5,191.5C 578.167,193.5 577.833,195.5 577.5,197.5C 576.509,193.555 576.176,189.555 576.5,185.5 Z"/></g>
<g><path style="opacity:1" fill="#cbe1e7" d="M 572.5,185.5 C 574.337,185.639 574.67,186.306 573.5,187.5C 572.702,187.043 572.369,186.376 572.5,185.5 Z"/></g>
<g><path style="opacity:1" fill="#dde9dc" d="M 572.5,188.5 C 573.765,189.514 574.431,191.014 574.5,193C 574.167,194.5 573.833,196 573.5,197.5C 572.516,194.572 572.183,191.572 572.5,188.5 Z"/></g>
<g><path style="opacity:1" fill="#d5cbbf" d="M 549.5,188.5 C 553.514,188.334 557.514,188.501 561.5,189C 562.444,191.719 562.777,194.552 562.5,197.5C 561.5,197.5 560.5,197.5 559.5,197.5C 558.833,188.167 558.167,188.167 557.5,197.5C 556.5,197.5 555.5,197.5 554.5,197.5C 553.833,188.167 553.167,188.167 552.5,197.5C 551.5,197.5 550.5,197.5 549.5,197.5C 549.5,194.5 549.5,191.5 549.5,188.5 Z"/></g>
<g><path style="opacity:1" fill="#dcd9d6" d="M 535.5,185.5 C 538.247,185.187 540.914,185.52 543.5,186.5C 541.955,187.452 540.288,187.785 538.5,187.5C 538.5,188.5 538.5,189.5 538.5,190.5C 543.833,191.167 543.833,191.833 538.5,192.5C 538.5,193.5 538.5,194.5 538.5,195.5C 540.288,195.215 541.955,195.548 543.5,196.5C 540.914,197.48 538.247,197.813 535.5,197.5C 535.5,193.5 535.5,189.5 535.5,185.5 Z"/></g>
<g><path style="opacity:1" fill="#c9c8ce" d="M 543.5,191.5 C 545.288,191.215 546.955,191.548 548.5,192.5C 547.667,192.833 546.833,193.167 546,193.5C 544.624,193.316 543.791,192.649 543.5,191.5 Z"/></g>
<g><path style="opacity:1" fill="#d5d6d7" d="M 564.5,188.5 C 566.467,188.261 568.301,188.594 570,189.5C 570.497,192.146 570.664,194.813 570.5,197.5C 568.208,197.756 566.041,197.423 564,196.5C 563.333,195.5 563.333,194.5 564,193.5C 565.509,192.91 567.009,192.244 568.5,191.5C 566.883,191.331 565.216,190.997 563.5,190.5C 563.863,189.817 564.196,189.15 564.5,188.5 Z"/></g>
<g><path style="opacity:1" fill="#101023" d="M 537.5,212.5 C 633.834,212.333 730.167,212.5 826.5,213C 827.931,213.465 829.097,214.299 830,215.5C 830.667,229.167 830.667,242.833 830,256.5C 829.5,258.333 828.333,259.5 826.5,260C 730.167,260.667 633.833,260.667 537.5,260C 536.299,259.097 535.465,257.931 535,256.5C 534.333,242.833 534.333,229.167 535,215.5C 536.045,214.627 536.878,213.627 537.5,212.5 Z"/></g>
<g><path style="opacity:1" fill="#d7cbbc" d="M 553.5,284.5 C 556.119,284.232 558.619,284.565 561,285.5C 561.497,288.146 561.664,290.813 561.5,293.5C 560.5,293.5 559.5,293.5 558.5,293.5C 557.833,284.167 557.167,284.167 556.5,293.5C 555.5,293.5 554.5,293.5 553.5,293.5C 553.5,290.5 553.5,287.5 553.5,284.5 Z"/></g>
<g><path style="opacity:1" fill="#dbdbd9" d="M 536.5,281.5 C 538.792,281.244 540.959,281.577 543,282.5C 543.749,283.635 543.583,284.635 542.5,285.5C 535.826,283.542 535.826,284.208 542.5,287.5C 544.34,293.084 542.34,294.917 536.5,293C 534.441,291.815 534.274,290.648 536,289.5C 537.678,291.282 539.511,291.615 541.5,290.5C 539.78,289.08 537.946,287.747 536,286.5C 535.36,284.735 535.527,283.068 536.5,281.5 Z"/></g>
<g><path style="opacity:1" fill="#bfc0c5" d="M 546.5,284.5 C 548.467,284.261 550.301,284.594 552,285.5C 554.011,293.17 551.678,295.17 545,291.5C 544.185,288.802 544.685,286.468 546.5,284.5 Z"/></g>
<g><path style="opacity:1" fill="#d6c9b8" d="M 570.5,289.5 C 570.5,290.5 570.5,291.5 570.5,292.5C 569.791,293.404 568.791,293.737 567.5,293.5C 566.833,284.167 566.167,284.167 565.5,293.5C 564.5,293.5 563.5,293.5 562.5,293.5C 562.5,289.5 562.5,285.5 562.5,281.5C 563.5,281.5 564.5,281.5 565.5,281.5C 565.5,282.5 565.5,283.5 565.5,284.5C 569.5,283.833 571.167,285.5 570.5,289.5 Z"/></g>
<g><path style="opacity:1" fill="#d1d0d3" d="M 570.5,292.5 C 570.5,291.5 570.5,290.5 570.5,289.5C 572.195,288.989 573.861,288.322 575.5,287.5C 574.609,286.41 573.609,286.41 572.5,287.5C 571.289,286.726 571.289,285.893 572.5,285C 574.167,284.333 575.833,284.333 577.5,285C 578.444,287.719 578.777,290.552 578.5,293.5C 575.721,293.721 573.054,293.388 570.5,292.5 Z"/></g>
<g><path style="opacity:1" fill="#101023" d="M 537.5,308.5 C 633.834,308.333 730.167,308.5 826.5,309C 827.931,309.465 829.097,310.299 830,311.5C 830.667,325.167 830.667,338.833 830,352.5C 829.5,354.333 828.333,355.5 826.5,356C 730.167,356.667 633.833,356.667 537.5,356C 536.299,355.097 535.465,353.931 535,352.5C 534.333,338.833 534.333,325.167 535,311.5C 536.045,310.627 536.878,309.627 537.5,308.5 Z"/></g>
<g><path style="opacity:1" fill="#d43f8c" d="M 537.5,380.5 C 634.167,380.333 730.834,380.5 827.5,381C 828.333,381.833 829.167,382.667 830,383.5C 830.667,397.5 830.667,411.5 830,425.5C 829.167,426.333 828.333,427.167 827.5,428C 730.833,428.667 634.167,428.667 537.5,428C 536.667,427.167 535.833,426.333 535,425.5C 534.333,411.5 534.333,397.5 535,383.5C 536.045,382.627 536.878,381.627 537.5,380.5 Z"/></g>
<g><path style="opacity:1" fill="#f9edf0" d="M 658.5,396.5 C 661.572,396.183 664.572,396.516 667.5,397.5C 665.955,398.452 664.288,398.785 662.5,398.5C 662.5,399.5 662.5,400.5 662.5,401.5C 669.167,402.167 669.167,402.833 662.5,403.5C 662.5,404.833 662.5,406.167 662.5,407.5C 664.288,407.215 665.955,407.548 667.5,408.5C 664.572,409.484 661.572,409.817 658.5,409.5C 658.5,405.167 658.5,400.833 658.5,396.5 Z"/></g>
<g><path style="opacity:1" fill="#fbf1f3" d="M 679.5,397.5 C 684.404,398.361 685.404,400.695 682.5,404.5C 682.79,406.044 683.456,407.377 684.5,408.5C 682.994,409.747 681.494,409.747 680,408.5C 679.095,404.745 678.928,401.079 679.5,397.5 Z"/></g>
<g><path style="opacity:1" fill="#f8eaee" d="M 668.5,399.5 C 671.448,399.223 674.281,399.556 677,400.5C 677.498,403.482 677.665,406.482 677.5,409.5C 676.5,409.5 675.5,409.5 674.5,409.5C 673.833,398.833 673.167,398.833 672.5,409.5C 671.167,409.5 669.833,409.5 668.5,409.5C 668.5,406.167 668.5,402.833 668.5,399.5 Z"/></g>
<g><path style="opacity:1" fill="#fbe9ed" d="M 685.5,399.5 C 689.825,400.646 694.158,400.813 698.5,400C 699.167,403 699.833,406 700.5,409C 697.571,409.777 694.737,409.61 692,408.5C 690.948,404.707 692.448,402.707 696.5,402.5C 696.167,402.167 695.833,401.833 695.5,401.5C 693.253,402.374 690.92,402.708 688.5,402.5C 688.5,404.833 688.5,407.167 688.5,409.5C 687.5,409.5 686.5,409.5 685.5,409.5C 685.5,406.167 685.5,402.833 685.5,399.5 Z"/></g>
<g><path style="opacity:1" fill="#fde9e4" d="M 701.5,399.5 C 703.5,399.5 705.5,399.5 707.5,399.5C 707.5,400.5 707.5,401.5 707.5,402.5C 706.5,402.5 705.5,402.5 704.5,402.5C 704.5,404.833 704.5,407.167 704.5,409.5C 703.5,409.5 702.5,409.5 701.5,409.5C 701.5,406.167 701.5,402.833 701.5,399.5 Z"/></g>
</svg>
