<?xml version="1.0" encoding="UTF-8"?>
<!DOCTYPE svg PUBLIC "-//W3C//DTD SVG 1.1//EN" "http://www.w3.org/Graphics/SVG/1.1/DTD/svg11.dtd">
<svg xmlns="http://www.w3.org/2000/svg" version="1.1" width="1352px" height="604px" style="shape-rendering:geometricPrecision; text-rendering:geometricPrecision; image-rendering:optimizeQuality; fill-rule:evenodd; clip-rule:evenodd" xmlns:xlink="http://www.w3.org/1999/xlink">
<g><path style="opacity:1" fill="#101023" d="M -0.5,-0.5 C 450.167,-0.5 900.833,-0.5 1351.5,-0.5C 1351.5,200.833 1351.5,402.167 1351.5,603.5C 900.833,603.5 450.167,603.5 -0.5,603.5C -0.5,402.167 -0.5,200.833 -0.5,-0.5 Z"/></g>
<g><path style="opacity:1" fill="#20202a" d="M 326.5,17.5 C 444.5,17.3333 562.5,17.5 680.5,18C 694.904,21.5679 702.571,30.7346 703.5,45.5C 702.541,60.2912 694.874,69.4579 680.5,73C 562.5,73.6667 444.5,73.6667 326.5,73C 312.155,69.4836 304.489,60.317 303.5,45.5C 304.652,30.692 312.318,21.3586 326.5,17.5 Z"/></g>
<g><path style="opacity:1" fill="#8d805b" d="M 1317.5,21.5 C 1315.33,22.198 1313.5,23.5313 1312,25.5C 1311.28,27.8791 1310.12,29.8791 1308.5,31.5C 1309.15,29.5648 1309.48,27.5648 1309.5,25.5C 1307.83,25.5 1306.17,25.5 1304.5,25.5C 1308.34,22.9217 1312.67,21.5884 1317.5,21.5 Z"/></g>
<g><path style="opacity:1" fill="#c9c1bb" d="M 1143.5,28.5 C 1145.6,28.2011 1147.6,28.5344 1149.5,29.5C 1147.78,29.9972 1146.12,30.3306 1144.5,30.5C 1143.7,30.0431 1143.37,29.3764 1143.5,28.5 Z"/></g>
<g><path style="opacity:1" fill="#c59861" d="M 1175.5,28.5 C 1177.34,28.6395 1177.67,29.3061 1176.5,30.5C 1175.7,30.0431 1175.37,29.3764 1175.5,28.5 Z"/></g>
<g><path style="opacity:1" fill="#d5d1c9" d="M 1153.5,31.5 C 1159.26,31.7204 1160.93,34.5537 1158.5,40C 1151.42,40.4195 1149.76,37.5862 1153.5,31.5 Z"/></g>
<g><path style="opacity:1" fill="#bfb8af" d="M 1174.5,31.5 C 1175.5,31.5 1176.5,31.5 1177.5,31.5C 1177.5,34.5 1177.5,37.5 1177.5,40.5C 1176.5,40.5 1175.5,40.5 1174.5,40.5C 1174.5,37.5 1174.5,34.5 1174.5,31.5 Z"/></g>
<g><path style="opacity:1" fill="#c6ced1" d="M 1187.5,29.5 C 1188.93,30.0819 1190.26,30.9152 1191.5,32C 1188.9,34.4114 1188.9,36.9114 1191.5,39.5C 1190.35,40.731 1189.18,40.731 1188,39.5C 1187.77,36.905 1187.27,34.405 1186.5,32C 1187.25,31.3292 1187.59,30.4959 1187.5,29.5 Z"/></g>
<g><path style="opacity:1" fill="#cdc3b5" d="M 1201.5,31.5 C 1203.29,31.2148 1204.95,31.5481 1206.5,32.5C 1205.68,33.3857 1204.68,33.719 1203.5,33.5C 1203.81,35.924 1203.47,38.2573 1202.5,40.5C 1201.52,37.5719 1201.18,34.5719 1201.5,31.5 Z"/></g>
<g><path style="opacity:1" fill="#e2ddd5" d="M 34.5,33.5 C 36.1667,33.5 37.8333,33.5 39.5,33.5C 39.5,41.1667 39.5,48.8333 39.5,56.5C 35.601,55.8171 31.601,55.6504 27.5,56C 24.6403,52.3186 23.8069,48.1519 25,43.5C 27.4746,40.4764 30.4746,39.8097 34,41.5C 34.4974,38.854 34.6641,36.1873 34.5,33.5 Z"/></g>
<g><path style="opacity:1" fill="#e3dad3" d="M 71.5,33.5 C 73.1667,33.5 74.8333,33.5 76.5,33.5C 76.3359,36.1873 76.5026,38.854 77,41.5C 80.3937,39.7253 83.0604,40.392 85,43.5C 85.499,47.8206 85.6657,52.1539 85.5,56.5C 83.8333,56.5 82.1667,56.5 80.5,56.5C 80.5,52.5 80.5,48.5 80.5,44.5C 79.1667,44.5 77.8333,44.5 76.5,44.5C 76.5,48.5 76.5,52.5 76.5,56.5C 74.8333,56.5 73.1667,56.5 71.5,56.5C 71.5,48.8333 71.5,41.1667 71.5,33.5 Z"/></g>
<g><path style="opacity:1" fill="#2e2743" d="M 1154.5,32.5 C 1156.72,32.5587 1157.72,33.7253 1157.5,36C 1156.17,40.6667 1154.83,40.6667 1153.5,36C 1153.65,34.7441 1153.98,33.5774 1154.5,32.5 Z"/></g>
<g><path style="opacity:1" fill="#453b32" d="M 1317.5,21.5 C 1321.31,22.0364 1324.98,23.0364 1328.5,24.5C 1327.83,28.8599 1325.17,30.8599 1320.5,30.5C 1320.34,32.8176 1319.18,34.4843 1317,35.5C 1314.23,36.3479 1311.4,36.6813 1308.5,36.5C 1308.5,35.5 1308.5,34.5 1308.5,33.5C 1308.5,32.8333 1308.5,32.1667 1308.5,31.5C 1310.12,29.8791 1311.28,27.8791 1312,25.5C 1313.5,23.5313 1315.33,22.198 1317.5,21.5 Z"/></g>
<g><path style="opacity:1" fill="#705b48" d="M 1328.5,24.5 C 1331.11,25.4431 1333.11,27.1097 1334.5,29.5C 1332.83,29.5 1331.17,29.5 1329.5,29.5C 1329.42,30.9305 1329.75,32.2638 1330.5,33.5C 1329.68,35.1112 1328.35,35.7778 1326.5,35.5C 1326.36,38.5879 1325.36,41.2546 1323.5,43.5C 1320.66,41.9827 1317.66,40.9827 1314.5,40.5C 1314.5,39.5 1314.5,38.5 1314.5,37.5C 1311.96,37.1043 1309.79,37.771 1308,39.5C 1307.51,38.2068 1307.34,36.8734 1307.5,35.5C 1307.5,35.1667 1307.5,34.8333 1307.5,34.5C 1307.5,33.8333 1307.83,33.5 1308.5,33.5C 1308.5,34.5 1308.5,35.5 1308.5,36.5C 1311.4,36.6813 1314.23,36.3479 1317,35.5C 1319.18,34.4843 1320.34,32.8176 1320.5,30.5C 1325.17,30.8599 1327.83,28.8599 1328.5,24.5 Z"/></g>
<g><path style="opacity:1" fill="#cec5bc" d="M 1180.5,31.5 C 1183.04,31.1505 1185.04,31.9838 1186.5,34C 1184.58,33.8651 1182.58,33.6984 1180.5,33.5C 1180.5,35.1667 1180.5,36.8333 1180.5,38.5C 1182.67,38.0798 1184.67,38.0798 1186.5,38.5C 1184.08,41.1283 1181.58,41.1283 1179,38.5C 1178.19,35.8018 1178.69,33.4685 1180.5,31.5 Z"/></g>
<g><path style="opacity:1" fill="#c8c2bf" d="M 1193.5,31.5 C 1200.49,31.331 1202.15,34.1643 1198.5,40C 1196.56,40.7429 1194.73,40.5762 1193,39.5C 1192.28,36.7395 1192.44,34.0728 1193.5,31.5 Z"/></g>
<g><path style="opacity:1" fill="#141022" d="M 1194.5,33.5 C 1195.5,33.5 1196.5,33.5 1197.5,33.5C 1197.5,35.1667 1197.5,36.8333 1197.5,38.5C 1196.5,38.5 1195.5,38.5 1194.5,38.5C 1194.5,36.8333 1194.5,35.1667 1194.5,33.5 Z"/></g>
<g><path style="opacity:1" fill="#c3c6c8" d="M 1144.5,31.5 C 1146.14,31.2865 1147.64,31.6198 1149,32.5C 1149.5,35.146 1149.66,37.8127 1149.5,40.5C 1147.21,40.7564 1145.04,40.4231 1143,39.5C 1142.36,36.0699 1143.86,34.7366 1147.5,35.5C 1147.34,31.8649 1146.18,31.5315 1144,34.5C 1143.53,33.4232 1143.7,32.4232 1144.5,31.5 Z"/></g>
<g><path style="opacity:1" fill="#d4c9b7" d="M 1163.5,29.5 C 1164.39,28.2241 1165.39,28.2241 1166.5,29.5C 1167.63,32.0698 1168.47,34.7365 1169,37.5C 1169.88,34.3723 1171.04,31.3723 1172.5,28.5C 1172.83,29.1667 1173.17,29.8333 1173.5,30.5C 1172.48,33.8596 1171.48,37.193 1170.5,40.5C 1169.5,40.5 1168.5,40.5 1167.5,40.5C 1166.54,36.617 1165.21,32.9503 1163.5,29.5 Z"/></g>
<g><path style="opacity:1" fill="#cfcdc8" d="M 1130.5,28.5 C 1131.78,29.6936 1132.44,31.3603 1132.5,33.5C 1133.16,39.008 1130.83,41.1746 1125.5,40C 1124.29,39.1072 1124.29,38.2739 1125.5,37.5C 1127.04,38.7468 1128.54,38.7468 1130,37.5C 1130.5,34.5184 1130.66,31.5184 1130.5,28.5 Z"/></g>
<g><path style="opacity:1" fill="#d6cfc7" d="M 1135.5,31.5 C 1137.47,31.2606 1139.3,31.5939 1141,32.5C 1143.01,40.1699 1140.68,42.1699 1134,38.5C 1133.17,35.829 1133.67,33.4957 1135.5,31.5 Z"/></g>
<g><path style="opacity:1" fill="#2b2039" d="M 1136.5,32.5 C 1137.5,32.4142 1138.33,32.7476 1139,33.5C 1139.82,35.728 1139.49,37.728 1138,39.5C 1135.43,37.5734 1134.93,35.2401 1136.5,32.5 Z"/></g>
<g><path style="opacity:1" fill="#dcdde1" d="M 43.5,40.5 C 47.2568,40.0708 50.7568,40.7375 54,42.5C 54.4992,47.1548 54.6658,51.8215 54.5,56.5C 51.7381,55.6473 49.0715,55.6473 46.5,56.5C 39.8089,55.2325 38.8089,52.0658 43.5,47C 45.5767,46.8078 47.5767,46.3078 49.5,45.5C 46.5535,44.6786 43.5535,44.1786 40.5,44C 41.7101,42.9609 42.7101,41.7942 43.5,40.5 Z"/></g>
<g><path style="opacity:1" fill="#e0dede" d="M 58.5,40.5 C 62.2568,40.0708 65.7568,40.7375 69,42.5C 69.4828,43.448 69.6495,44.448 69.5,45.5C 66.8431,45.838 64.5098,45.1713 62.5,43.5C 61.6143,44.325 61.281,45.325 61.5,46.5C 67.3771,46.2057 69.8771,48.8724 69,54.5C 65.7441,56.4285 62.2441,56.9285 58.5,56C 56.9632,54.8904 56.2965,53.3904 56.5,51.5C 59.3297,51.6941 61.9963,52.3608 64.5,53.5C 64.5,52.5 64.5,51.5 64.5,50.5C 56.8817,50.2522 54.8817,46.9189 58.5,40.5 Z"/></g>
<g><path style="opacity:1" fill="#dddee2" d="M 90.5,40.5 C 94.315,41.1049 97.9817,41.1049 101.5,40.5C 101.666,46.8421 101.5,53.1754 101,59.5C 97.6621,62.3181 93.8288,63.1515 89.5,62C 86.9211,60.3883 86.9211,58.8883 89.5,57.5C 91.8392,58.724 94.1725,58.724 96.5,57.5C 88.7694,57.0184 85.6028,53.0184 87,45.5C 87.2572,43.0935 88.4238,41.4268 90.5,40.5 Z"/></g>
<g><path style="opacity:1" fill="#dddcde" d="M 106.5,40.5 C 115.657,39.4892 119.49,43.4892 118,52.5C 113.625,57.3815 108.958,57.7148 104,53.5C 101.458,48.4379 102.292,44.1046 106.5,40.5 Z"/></g>
<g><path style="opacity:1" fill="#9698a8" d="M 657.5,35.5 C 666.495,34.9728 669.495,38.8061 666.5,47C 668.616,48.1707 669.282,49.6707 668.5,51.5C 667.186,50.6872 666.019,49.6872 665,48.5C 660.779,51.3656 657.112,50.699 654,46.5C 652.663,41.8721 653.83,38.2054 657.5,35.5 Z"/></g>
<g><path style="opacity:1" fill="#21222c" d="M 657.5,37.5 C 665.58,36.7256 667.913,39.8923 664.5,47C 659.309,49.7382 656.309,48.2382 655.5,42.5C 655.437,40.4861 656.103,38.8194 657.5,37.5 Z"/></g>
<g><path style="opacity:1" fill="#4f3e32" d="M 1334.5,29.5 C 1339.95,34.1724 1342.28,40.1724 1341.5,47.5C 1338.49,49.6722 1335.16,51.3389 1331.5,52.5C 1330.47,50.0392 1329.8,47.3725 1329.5,44.5C 1327.26,44.7947 1325.26,44.4614 1323.5,43.5C 1325.36,41.2546 1326.36,38.5879 1326.5,35.5C 1328.35,35.7778 1329.68,35.1112 1330.5,33.5C 1329.75,32.2638 1329.42,30.9305 1329.5,29.5C 1331.17,29.5 1332.83,29.5 1334.5,29.5 Z"/></g>
<g><path style="opacity:1" fill="#506997" d="M 362.5,41.5 C 363.314,43.631 363.814,45.9644 364,48.5C 365,49.8333 366,49.8333 367,48.5C 367.333,46.1667 367.667,43.8333 368,41.5C 368.498,44.4816 368.665,47.4816 368.5,50.5C 366.533,50.7394 364.699,50.4061 363,49.5C 362.503,46.854 362.336,44.1873 362.5,41.5 Z"/></g>
<g><path style="opacity:1" fill="#5c5e78" d="M 415.5,41.5 C 417.467,41.2606 419.301,41.5939 421,42.5C 421.497,45.146 421.664,47.8127 421.5,50.5C 419.208,50.7564 417.041,50.4231 415,49.5C 414.333,48.5 414.333,47.5 415,46.5C 416.509,45.9103 418.009,45.2436 419.5,44.5C 418.112,41.9211 416.612,41.9211 415,44.5C 414.53,43.4232 414.697,42.4232 415.5,41.5 Z"/></g>
<g><path style="opacity:1" fill="#56576c" d="M 427.5,41.5 C 434.232,40.4816 436.232,43.1483 433.5,49.5C 432.264,50.2458 430.93,50.5792 429.5,50.5C 429.719,51.675 429.386,52.675 428.5,53.5C 427.509,49.5546 427.176,45.5546 427.5,41.5 Z"/></g>
<g><path style="opacity:1" fill="#636a88" d="M 482.5,41.5 C 485.32,41.2475 487.986,41.7475 490.5,43C 489.726,45.405 489.226,47.905 489,50.5C 487.423,39.8643 485.59,39.8643 483.5,50.5C 482.516,47.5719 482.183,44.5719 482.5,41.5 Z"/></g>
<g><path style="opacity:1" fill="#666f88" d="M 405.5,41.5 C 407.792,41.2436 409.959,41.5769 412,42.5C 412.667,45.1667 412.667,47.8333 412,50.5C 410.423,39.8643 408.59,39.8643 406.5,50.5C 405.516,47.5719 405.183,44.5719 405.5,41.5 Z"/></g>
<g><path style="opacity:1" fill="#7e8097" d="M 993.5,37.5 C 1003.81,37.0459 1007.81,42.0459 1005.5,52.5C 1002.25,52.1351 999.588,53.1351 997.5,55.5C 995.412,53.1351 992.746,52.1351 989.5,52.5C 988.555,46.7644 989.889,41.7644 993.5,37.5 Z"/></g>
<g><path style="opacity:1" fill="#131527" d="M 994.5,39.5 C 1002.16,39.1665 1005.16,42.8332 1003.5,50.5C 999.5,50.5 995.5,50.5 991.5,50.5C 990.807,46.2473 991.807,42.5807 994.5,39.5 Z"/></g>
<g><path style="opacity:1" fill="#a47a61" d="M 1307.5,35.5 C 1307.34,36.8734 1307.51,38.2068 1308,39.5C 1309.79,37.771 1311.96,37.1043 1314.5,37.5C 1314.5,38.5 1314.5,39.5 1314.5,40.5C 1317.66,40.9827 1320.66,41.9827 1323.5,43.5C 1325.26,44.4614 1327.26,44.7947 1329.5,44.5C 1329.8,47.3725 1330.47,50.0392 1331.5,52.5C 1331.5,52.8333 1331.5,53.1667 1331.5,53.5C 1329.32,56.0613 1327.16,56.0613 1325,53.5C 1325.48,50.8015 1326.32,48.1348 1327.5,45.5C 1323.8,45.7236 1320.13,45.8903 1316.5,46C 1312.67,45.593 1312,44.2597 1314.5,42C 1309.83,39.174 1307,40.3407 1306,45.5C 1305.33,41.8877 1305.83,38.5544 1307.5,35.5 Z"/></g>
<g><path style="opacity:1" fill="#141233" d="M 30.5,44.5 C 31.8221,44.33 32.9887,44.6634 34,45.5C 34.6667,47.5 34.6667,49.5 34,51.5C 32.6667,52.8333 31.3333,52.8333 30,51.5C 29.2967,49.0709 29.4634,46.7375 30.5,44.5 Z"/></g>
<g><path style="opacity:1" fill="#191126" d="M 92.5,44.5 C 93.8333,44.5 95.1667,44.5 96.5,44.5C 96.5,47.1667 96.5,49.8333 96.5,52.5C 91.6645,51.7913 90.3312,49.1246 92.5,44.5 Z"/></g>
<g><path style="opacity:1" fill="#251630" d="M 108.5,44.5 C 110.144,44.2865 111.644,44.6198 113,45.5C 113.758,47.7695 113.591,49.9361 112.5,52C 110.888,52.7203 109.388,52.5536 108,51.5C 107.297,49.0709 107.463,46.7375 108.5,44.5 Z"/></g>
<g><path style="opacity:1" fill="#8789a0" d="M 1046.5,36.5 C 1051.08,35.343 1053.75,37.0096 1054.5,41.5C 1052.35,47.1634 1049.18,47.8301 1045,43.5C 1044.39,40.9348 1044.89,38.6015 1046.5,36.5 Z"/></g>
<g><path style="opacity:1" fill="#141527" d="M 1047.5,38.5 C 1052.16,38.0146 1053.49,39.848 1051.5,44C 1046.73,44.8104 1045.39,42.9771 1047.5,38.5 Z"/></g>
<g><path style="opacity:1" fill="#f0e7b0" d="M 1304.5,25.5 C 1306.17,25.5 1307.83,25.5 1309.5,25.5C 1309.48,27.5648 1309.15,29.5648 1308.5,31.5C 1308.5,32.1667 1308.5,32.8333 1308.5,33.5C 1307.83,33.5 1307.5,33.8333 1307.5,34.5C 1305.53,34.2606 1303.7,34.5939 1302,35.5C 1301.67,40.1667 1301.33,44.8333 1301,49.5C 1300.02,51.9676 1298.52,53.9676 1296.5,55.5C 1290.74,43.4121 1293.41,33.4121 1304.5,25.5 Z"/></g>
<g><path style="opacity:1" fill="#5e6179" d="M 498.5,41.5 C 500.144,41.2865 501.644,41.6198 503,42.5C 503.497,45.146 503.664,47.8127 503.5,50.5C 501.208,50.7564 499.041,50.4231 497,49.5C 496.362,46.0699 497.862,44.7366 501.5,45.5C 501.344,41.8649 500.178,41.5315 498,44.5C 497.53,43.4232 497.697,42.4232 498.5,41.5 Z"/></g>
<g><path style="opacity:1" fill="#8d90a6" d="M 1046.5,47.5 C 1052.21,47.4924 1052.54,47.9924 1047.5,49C 1045.95,50.214 1044.78,51.714 1044,53.5C 1043.33,52.5 1043.33,51.5 1044,50.5C 1045.04,49.6266 1045.88,48.6266 1046.5,47.5 Z"/></g>
<g><path style="opacity:1" fill="#141027" d="M 46.5,49.5 C 47.5,49.5 48.5,49.5 49.5,49.5C 49.5,50.5 49.5,51.5 49.5,52.5C 46.4331,52.8795 45.4331,51.8795 46.5,49.5 Z"/></g>
<g><path style="opacity:1" fill="#555972" d="M 352.5,38.5 C 354.792,38.2436 356.959,38.5769 359,39.5C 359.72,41.1124 359.554,42.6124 358.5,44C 361.033,46.084 361.033,48.084 358.5,50C 356.527,50.4955 354.527,50.6621 352.5,50.5C 352.5,46.5 352.5,42.5 352.5,38.5 Z"/></g>
<g><path style="opacity:1" fill="#585d7a" d="M 441.5,41.5 C 443.144,41.2865 444.644,41.6198 446,42.5C 446.497,45.146 446.664,47.8127 446.5,50.5C 444.5,50.5 442.5,50.5 440.5,50.5C 439.756,47.0504 441.09,45.3838 444.5,45.5C 444.344,41.8649 443.178,41.5315 441,44.5C 440.53,43.4232 440.697,42.4232 441.5,41.5 Z"/></g>
<g><path style="opacity:1" fill="#595e7a" d="M 455.5,41.5 C 457.144,41.2865 458.644,41.6198 460,42.5C 460.497,45.146 460.664,47.8127 460.5,50.5C 458.5,50.5 456.5,50.5 454.5,50.5C 453.959,46.7053 455.625,44.7053 459.5,44.5C 458.112,41.9211 456.612,41.9211 455,44.5C 454.53,43.4232 454.697,42.4232 455.5,41.5 Z"/></g>
<g><path style="opacity:1" fill="#7e8096" d="M 1054.5,47.5 C 1059.02,48.9753 1059.35,50.9753 1055.5,53.5C 1054.28,52.3539 1052.95,51.3539 1051.5,50.5C 1052.99,49.8589 1053.99,48.8589 1054.5,47.5 Z"/></g>
<g><path style="opacity:1" fill="#c03373" d="M 125.5,51.5 C 129.161,51.3501 130.161,52.8501 128.5,56C 127.207,56.49 125.873,56.6567 124.5,56.5C 124.366,54.7085 124.699,53.0418 125.5,51.5 Z"/></g>
<g><path style="opacity:1" fill="#46425d" d="M 1224.5,52.5 C 1230.84,52.1385 1232.84,54.9719 1230.5,61C 1225.27,62.8555 1222.6,61.0222 1222.5,55.5C 1223.19,54.4822 1223.86,53.4822 1224.5,52.5 Z"/></g>
<g><path style="opacity:1" fill="#858f8c" d="M 1125.5,54.5 C 1126.48,57.6248 1126.81,60.9581 1126.5,64.5C 1125.45,64.6495 1124.45,64.4828 1123.5,64C 1125.34,61.1963 1126.01,58.0297 1125.5,54.5 Z"/></g>
<g><path style="opacity:1" fill="#7c7788" d="M 1183.5,51.5 C 1184.24,51.369 1184.91,51.5357 1185.5,52C 1184.17,53 1184.17,54 1185.5,55C 1184.89,57.1474 1184.22,59.314 1183.5,61.5C 1182.53,59.604 1182.2,57.604 1182.5,55.5C 1181.5,55.5 1180.5,55.5 1179.5,55.5C 1179.8,57.604 1179.47,59.604 1178.5,61.5C 1177.53,59.2573 1177.19,56.924 1177.5,54.5C 1180.32,54.913 1182.32,53.913 1183.5,51.5 Z"/></g>
<g><path style="opacity:1" fill="#7b7585" d="M 1240.5,54.5 C 1246.24,53.8213 1247.9,56.1546 1245.5,61.5C 1244.17,53.5 1242.83,53.5 1241.5,61.5C 1240.53,59.2573 1240.19,56.924 1240.5,54.5 Z"/></g>
<g><path style="opacity:1" fill="#75748e" d="M 1288.5,55.5 C 1288.11,63.3981 1287.11,63.3981 1285.5,55.5C 1283.63,63.2986 1282.63,62.9653 1282.5,54.5C 1284.62,54.3253 1286.62,54.6586 1288.5,55.5 Z"/></g>
<g><path style="opacity:1" fill="#777a8f" d="M 1166.5,52.5 C 1167.92,52.7496 1168.92,53.583 1169.5,55C 1168.17,57 1168.17,59 1169.5,61C 1168.55,61.4828 1167.55,61.6495 1166.5,61.5C 1166.11,58.3243 1166.11,55.3243 1166.5,52.5 Z"/></g>
<g><path style="opacity:1" fill="#c8d0ca" d="M 1341.5,47.5 C 1341.26,50.6473 1340.43,53.6473 1339,56.5C 1338.34,58.3237 1337.17,59.657 1335.5,60.5C 1333.03,60.3957 1332.36,59.3957 1333.5,57.5C 1333.04,56.7025 1332.38,56.3691 1331.5,56.5C 1331.5,55.5 1331.5,54.5 1331.5,53.5C 1331.5,53.1667 1331.5,52.8333 1331.5,52.5C 1335.16,51.3389 1338.49,49.6722 1341.5,47.5 Z"/></g>
<g><path style="opacity:1" fill="#868f8a" d="M 1288.5,55.5 C 1289.57,54.5655 1290.9,54.2322 1292.5,54.5C 1292.66,56.8568 1292.5,59.1902 1292,61.5C 1291.5,59.5273 1291.34,57.5273 1291.5,55.5C 1290.5,55.5 1289.5,55.5 1288.5,55.5 Z"/></g>
<g><path style="opacity:1" fill="#7c7584" d="M 1136.5,54.5 C 1138.14,54.2865 1139.64,54.6198 1141,55.5C 1141.5,57.4727 1141.66,59.4727 1141.5,61.5C 1134.69,61.5781 1134.03,59.9115 1139.5,56.5C 1138.73,55.2888 1137.89,55.2888 1137,56.5C 1136.54,55.9056 1136.37,55.2389 1136.5,54.5 Z"/></g>
<g><path style="opacity:1" fill="#7c7584" d="M 1215.5,54.5 C 1217.14,54.2865 1218.64,54.6198 1220,55.5C 1220.5,57.4727 1220.66,59.4727 1220.5,61.5C 1213.69,61.5781 1213.03,59.9115 1218.5,56.5C 1217.73,55.2888 1216.89,55.2888 1216,56.5C 1215.54,55.9056 1215.37,55.2389 1215.5,54.5 Z"/></g>
<g><path style="opacity:1" fill="#787489" d="M 1252.5,54.5 C 1254.14,54.2865 1255.64,54.6198 1257,55.5C 1257.5,57.4727 1257.66,59.4727 1257.5,61.5C 1255.83,61.5 1254.17,61.5 1252.5,61.5C 1252.5,60.1667 1252.5,58.8333 1252.5,57.5C 1253.68,57.719 1254.68,57.3857 1255.5,56.5C 1254.73,55.2888 1253.89,55.2888 1253,56.5C 1252.54,55.9056 1252.37,55.2389 1252.5,54.5 Z"/></g>
<g><path style="opacity:1" fill="#79899e" d="M 1143.5,54.5 C 1148.33,54.3852 1149.66,56.5519 1147.5,61C 1142.57,61.427 1141.24,59.2604 1143.5,54.5 Z"/></g>
<g><path style="opacity:1" fill="#271833" d="M 1144.5,55.5 C 1147.96,56.5362 1148.29,58.2029 1145.5,60.5C 1143.3,59.218 1142.96,57.5514 1144.5,55.5 Z"/></g>
<g><path style="opacity:1" fill="#6c5d74" d="M 1149.5,54.5 C 1150.79,55.0577 1151.62,56.0577 1152,57.5C 1152.51,55.0958 1153.67,54.4291 1155.5,55.5C 1154.25,57.323 1153.59,59.323 1153.5,61.5C 1152.5,61.5 1151.5,61.5 1150.5,61.5C 1150.55,59.0971 1150.22,56.7638 1149.5,54.5 Z"/></g>
<g><path style="opacity:1" fill="#877b7e" d="M 1160.5,54.5 C 1161.55,54.3505 1162.55,54.5172 1163.5,55C 1160.08,56.4055 1159.74,58.2388 1162.5,60.5C 1163.45,59.6744 1164.45,59.5078 1165.5,60C 1159.76,62.3873 1158.09,60.554 1160.5,54.5 Z"/></g>
<g><path style="opacity:1" fill="#79899e" d="M 1187.5,54.5 C 1192.33,54.3852 1193.66,56.5519 1191.5,61C 1186.57,61.427 1185.24,59.2604 1187.5,54.5 Z"/></g>
<g><path style="opacity:1" fill="#271833" d="M 1188.5,55.5 C 1191.96,56.5362 1192.29,58.2029 1189.5,60.5C 1187.3,59.218 1186.96,57.5514 1188.5,55.5 Z"/></g>
<g><path style="opacity:1" fill="#474a69" d="M 1194.5,54.5 C 1196.43,54.2308 1198.1,54.7308 1199.5,56C 1198.05,55.7374 1196.72,55.9041 1195.5,56.5C 1200.97,59.9115 1200.31,61.5781 1193.5,61.5C 1193.3,59.0504 1193.63,56.717 1194.5,54.5 Z"/></g>
<g><path style="opacity:1" fill="#7a8497" d="M 1208.5,54.5 C 1209.98,54.238 1211.31,54.5713 1212.5,55.5C 1211.74,55.9106 1210.74,56.0773 1209.5,56C 1208.07,57.8803 1208.4,59.3803 1210.5,60.5C 1211.45,59.6744 1212.45,59.5078 1213.5,60C 1207.76,62.3873 1206.09,60.554 1208.5,54.5 Z"/></g>
<g><path style="opacity:1" fill="#7a8497" d="M 1269.5,54.5 C 1270.98,54.238 1272.31,54.5713 1273.5,55.5C 1272.74,55.9106 1271.74,56.0773 1270.5,56C 1269.07,57.8803 1269.4,59.3803 1271.5,60.5C 1272.45,59.6744 1273.45,59.5078 1274.5,60C 1268.76,62.3873 1267.09,60.554 1269.5,54.5 Z"/></g>
<g><path style="opacity:1" fill="#79899e" d="M 1276.5,54.5 C 1281.33,54.3852 1282.66,56.5519 1280.5,61C 1275.57,61.427 1274.24,59.2604 1276.5,54.5 Z"/></g>
<g><path style="opacity:1" fill="#271833" d="M 1277.5,55.5 C 1280.96,56.5362 1281.29,58.2029 1278.5,60.5C 1276.3,59.218 1275.96,57.5514 1277.5,55.5 Z"/></g>
<g><path style="opacity:1" fill="#eaae8d" d="M 1307.5,34.5 C 1307.5,34.8333 1307.5,35.1667 1307.5,35.5C 1305.83,38.5544 1305.33,41.8877 1306,45.5C 1307,40.3407 1309.83,39.174 1314.5,42C 1312,44.2597 1312.67,45.593 1316.5,46C 1320.13,45.8903 1323.8,45.7236 1327.5,45.5C 1326.32,48.1348 1325.48,50.8015 1325,53.5C 1327.16,56.0613 1329.32,56.0613 1331.5,53.5C 1331.5,54.5 1331.5,55.5 1331.5,56.5C 1326.88,60.1043 1322.22,63.771 1317.5,67.5C 1318.24,68.1818 1318.91,68.8485 1319.5,69.5C 1311.95,70.0391 1305.45,67.7058 1300,62.5C 1298.12,60.4732 1296.95,58.1398 1296.5,55.5C 1298.52,53.9676 1300.02,51.9676 1301,49.5C 1301.33,44.8333 1301.67,40.1667 1302,35.5C 1303.7,34.5939 1305.53,34.2606 1307.5,34.5 Z"/></g>
<g><path style="opacity:1" fill="#625d74" d="M 1171.5,54.5 C 1176.33,54.3852 1177.66,56.5519 1175.5,61C 1170.57,61.427 1169.24,59.2604 1171.5,54.5 Z"/></g>
<g><path style="opacity:1" fill="#767b94" d="M 1201.5,54.5 C 1204.95,53.7564 1206.62,55.0897 1206.5,58.5C 1202.03,58.6724 1201.7,59.5057 1205.5,61C 1200.57,61.427 1199.24,59.2604 1201.5,54.5 Z"/></g>
<g><path style="opacity:1" fill="#6a6475" d="M 1234.5,54.5 C 1236.17,54.5 1237.83,54.5 1239.5,54.5C 1239.82,57.5719 1239.48,60.5719 1238.5,63.5C 1233.74,61.9927 1232.4,58.9927 1234.5,54.5 Z"/></g>
<g><path style="opacity:1" fill="#5d6063" d="M 1331.5,56.5 C 1332.38,56.3691 1333.04,56.7025 1333.5,57.5C 1332.36,59.3957 1333.03,60.3957 1335.5,60.5C 1331.38,65.5627 1326.05,68.5627 1319.5,69.5C 1318.91,68.8485 1318.24,68.1818 1317.5,67.5C 1322.22,63.771 1326.88,60.1043 1331.5,56.5 Z"/></g>
<g><path style="opacity:1" fill="#1f2029" d="M 316.5,109.5 C 656.5,109.333 996.5,109.5 1336.5,110C 1338.67,110.833 1340.17,112.333 1341,114.5C 1341.67,214.5 1341.67,314.5 1341,414.5C 1340.17,416.667 1338.67,418.167 1336.5,419C 996.5,419.667 656.5,419.667 316.5,419C 314.333,418.167 312.833,416.667 312,414.5C 311.333,314.5 311.333,214.5 312,114.5C 313.025,112.313 314.525,110.646 316.5,109.5 Z"/></g>
<g><path style="opacity:1" fill="#706d83" d="M 33.5,114.5 C 39.6966,114.325 40.3633,115.325 35.5,117.5C 36.376,118.251 37.376,118.751 38.5,119C 37.376,119.249 36.376,119.749 35.5,120.5C 40.3633,122.675 39.6966,123.675 33.5,123.5C 33.5,120.5 33.5,117.5 33.5,114.5 Z"/></g>
<g><path style="opacity:1" fill="#6d708a" d="M 25.5,114.5 C 27.4672,114.261 29.3005,114.594 31,115.5C 31.6877,116.332 31.521,116.998 30.5,117.5C 29.2638,116.754 27.9305,116.421 26.5,116.5C 26.5,118.167 26.5,119.833 26.5,121.5C 28.9424,121.646 29.6091,120.813 28.5,119C 29.448,118.517 30.448,118.351 31.5,118.5C 31.9174,123.068 29.9174,124.568 25.5,123C 24.2138,120.168 24.2138,117.335 25.5,114.5 Z"/></g>
<g><path style="opacity:1" fill="#676983" d="M 40.5,114.5 C 42.5273,114.338 44.5273,114.505 46.5,115C 46.9325,117.172 47.2659,119.339 47.5,121.5C 49.752,119.703 50.752,117.37 50.5,114.5C 51.8221,114.33 52.9887,114.663 54,115.5C 55.7175,118.091 56.2175,120.758 55.5,123.5C 53.0388,122.398 50.5388,122.398 48,123.5C 46.1131,123.031 44.6131,122.031 43.5,120.5C 42.8333,121.5 42.1667,122.5 41.5,123.5C 40.5159,120.572 40.1826,117.572 40.5,114.5 Z"/></g>
<g><path style="opacity:1" fill="#68728c" d="M 57.5,114.5 C 59.3435,116.279 60.0102,118.612 59.5,121.5C 60.9778,121.238 62.3112,121.571 63.5,122.5C 61.604,123.466 59.604,123.799 57.5,123.5C 57.5,120.5 57.5,117.5 57.5,114.5 Z"/></g>
<g><path style="opacity:1" fill="#d5418d" d="M 1187.5,143.5 C 1227.17,143.333 1266.83,143.5 1306.5,144C 1307.33,144.833 1308.17,145.667 1309,146.5C 1309.67,155.167 1309.67,163.833 1309,172.5C 1308.17,173.333 1307.33,174.167 1306.5,175C 1266.83,175.667 1227.17,175.667 1187.5,175C 1186.67,174.167 1185.83,173.333 1185,172.5C 1184.33,163.833 1184.33,155.167 1185,146.5C 1186.04,145.627 1186.88,144.627 1187.5,143.5 Z"/></g>
<g><path style="opacity:1" fill="#dce0dd" d="M 421.5,149.5 C 422.5,149.5 423.5,149.5 424.5,149.5C 424.5,150.5 424.5,151.5 424.5,152.5C 423.5,152.5 422.5,152.5 421.5,152.5C 421.5,151.5 421.5,150.5 421.5,149.5 Z"/></g>
<g><path style="opacity:1" fill="#d3cbc2" d="M 401.5,148.5 C 402.873,148.343 404.207,148.51 405.5,149C 404.32,150.896 402.82,152.396 401,153.5C 400.5,153.333 400,153.167 399.5,153C 400.582,151.67 401.249,150.17 401.5,148.5 Z"/></g>
<g><path style="opacity:1" fill="#fefffe" d="M 1209.5,151.5 C 1211.34,153.279 1212.01,155.612 1211.5,158.5C 1220.83,159.167 1220.83,159.833 1211.5,160.5C 1210.83,169.833 1210.17,169.833 1209.5,160.5C 1200.17,159.833 1200.17,159.167 1209.5,158.5C 1209.5,156.167 1209.5,153.833 1209.5,151.5 Z"/></g>
<g><path style="opacity:1" fill="#fce9eb" d="M 1235.5,153.5 C 1237.47,153.261 1239.3,153.594 1241,154.5C 1241.75,155.635 1241.58,156.635 1240.5,157.5C 1239.48,156.147 1238.14,155.48 1236.5,155.5C 1236.5,157.5 1236.5,159.5 1236.5,161.5C 1238.14,161.52 1239.48,160.853 1240.5,159.5C 1242,162.133 1241.17,163.466 1238,163.5C 1233.79,162.472 1232.46,159.805 1234,155.5C 1234.72,154.956 1235.22,154.289 1235.5,153.5 Z"/></g>
<g><path style="opacity:1" fill="#f7e1e7" d="M 1242.5,155.5 C 1245.17,155.5 1247.83,155.5 1250.5,155.5C 1250.5,158.167 1250.5,160.833 1250.5,163.5C 1249.5,163.5 1248.5,163.5 1247.5,163.5C 1246.83,155.5 1246.17,155.5 1245.5,163.5C 1244.5,163.5 1243.5,163.5 1242.5,163.5C 1242.5,160.833 1242.5,158.167 1242.5,155.5 Z"/></g>
<g><path style="opacity:1" fill="#f8e5ec" d="M 1252.5,155.5 C 1255.24,154.965 1257.07,155.965 1258,158.5C 1258.48,157.552 1258.65,156.552 1258.5,155.5C 1260.29,155.215 1261.95,155.548 1263.5,156.5C 1261.83,158.523 1261.16,160.856 1261.5,163.5C 1258.17,163.5 1254.83,163.5 1251.5,163.5C 1250.79,160.14 1252.12,158.307 1255.5,158C 1254.17,157.667 1252.83,157.333 1251.5,157C 1252.06,156.617 1252.39,156.117 1252.5,155.5 Z"/></g>
<g><path style="opacity:1" fill="#d4dee4" d="M 378.5,156.5 C 379.5,156.5 380.5,156.5 381.5,156.5C 381.335,159.85 381.502,163.183 382,166.5C 383.478,169.993 385.478,170.326 388,167.5C 388.499,163.848 388.665,160.182 388.5,156.5C 389.5,156.5 390.5,156.5 391.5,156.5C 391.5,161.5 391.5,166.5 391.5,171.5C 388.316,171.167 384.982,171 381.5,171C 380.667,170.167 379.833,169.333 379,168.5C 378.501,164.514 378.334,160.514 378.5,156.5 Z"/></g>
<g><path style="opacity:1" fill="#e2d8c4" d="M 411.5,156.5 C 414.114,156.932 416.78,157.265 419.5,157.5C 417.807,158.228 416.307,159.228 415,160.5C 414.501,164.152 414.335,167.818 414.5,171.5C 413.5,171.5 412.5,171.5 411.5,171.5C 411.5,166.5 411.5,161.5 411.5,156.5 Z"/></g>
<g><path style="opacity:1" fill="#d4dde1" d="M 421.5,156.5 C 422.5,156.5 423.5,156.5 424.5,156.5C 424.5,161.5 424.5,166.5 424.5,171.5C 423.5,171.5 422.5,171.5 421.5,171.5C 421.5,166.5 421.5,161.5 421.5,156.5 Z"/></g>
<g><path style="opacity:1" fill="#f9e8ee" d="M 1276.5,155.5 C 1279.65,156.095 1282.65,156.095 1285.5,155.5C 1285.83,160.833 1286.17,160.833 1286.5,155.5C 1288.12,155.36 1289.29,156.027 1290,157.5C 1295,154.167 1297.33,155.5 1297,161.5C 1292.91,164.637 1290.24,163.637 1289,158.5C 1287,165.167 1285,165.167 1283,158.5C 1282.98,163.044 1280.81,164.544 1276.5,163C 1275.22,160.502 1275.22,158.002 1276.5,155.5 Z"/></g>
<g><path style="opacity:1" fill="#d6dbe1" d="M 404.5,156.5 C 406.317,161.241 406.984,166.241 406.5,171.5C 403.269,171.185 399.936,171.018 396.5,171C 393.833,168.667 393.833,166.333 396.5,164C 399.121,163.061 401.788,162.228 404.5,161.5C 402.492,157.892 399.992,157.558 397,160.5C 396.333,159.5 396.333,158.5 397,157.5C 399.381,156.565 401.881,156.232 404.5,156.5 Z"/></g>
<g><path style="opacity:1" fill="#f9f2f6" d="M 1267.5,155.5 C 1273.9,154.406 1276.24,157.073 1274.5,163.5C 1273.5,163.5 1272.5,163.5 1271.5,163.5C 1271.11,155.602 1270.11,155.602 1268.5,163.5C 1267.52,160.914 1267.19,158.247 1267.5,155.5 Z"/></g>
<g><path style="opacity:1" fill="#e34e8c" d="M 1277.5,157.5 C 1278.59,157.62 1279.25,158.287 1279.5,159.5C 1279.17,160.167 1278.83,160.833 1278.5,161.5C 1277.57,160.311 1277.24,158.978 1277.5,157.5 Z"/></g>
<g><path style="opacity:1" fill="#d73e93" d="M 1292.5,157.5 C 1293.59,157.62 1294.25,158.287 1294.5,159.5C 1294.17,160.167 1293.83,160.833 1293.5,161.5C 1292.57,160.311 1292.24,158.978 1292.5,157.5 Z"/></g>
<g><path style="opacity:1" fill="#dbb380" d="M 404.5,156.5 C 405.458,156.953 406.292,157.619 407,158.5C 407.814,163.02 407.647,167.354 406.5,171.5C 406.984,166.241 406.317,161.241 404.5,156.5 Z"/></g>
<g><path style="opacity:1" fill="#d9dadb" d="M 367.5,156.5 C 370.167,156.5 372.833,156.5 375.5,156.5C 375.5,157.5 375.5,158.5 375.5,159.5C 366.685,158.82 366.351,160.487 374.5,164.5C 375.91,166.949 375.576,169.116 373.5,171C 370.854,171.497 368.187,171.664 365.5,171.5C 365.471,168.227 366.804,167.56 369.5,169.5C 371,169.547 372,168.881 372.5,167.5C 370.462,165.724 368.296,164.057 366,162.5C 365.252,160.16 365.752,158.16 367.5,156.5 Z"/></g>
<g><path style="opacity:1" fill="#6d6d7a" d="M 36.5,165.5 C 33.5,165.5 30.5,165.5 27.5,165.5C 27.5,169.167 27.5,172.833 27.5,176.5C 30.5,176.5 33.5,176.5 36.5,176.5C 33.3752,177.479 30.0419,177.813 26.5,177.5C 26.5,173.167 26.5,168.833 26.5,164.5C 30.0419,164.187 33.3752,164.521 36.5,165.5 Z"/></g>
<g><path style="opacity:1" fill="#dcdce1" d="M 36.5,165.5 C 36.5,169.167 36.5,172.833 36.5,176.5C 33.5,176.5 30.5,176.5 27.5,176.5C 27.5,172.833 27.5,169.167 27.5,165.5C 30.5,165.5 33.5,165.5 36.5,165.5 Z"/></g>
<g><path style="opacity:1" fill="#bcbbc3" d="M 38.5,164.5 C 41.8333,164.5 45.1667,164.5 48.5,164.5C 48.5,167.167 48.5,169.833 48.5,172.5C 45.1667,172.5 41.8333,172.5 38.5,172.5C 38.5,169.833 38.5,167.167 38.5,164.5 Z"/></g>
<g><path style="opacity:1" fill="#d0cdcb" d="M 345.5,150.5 C 346.5,150.5 347.5,150.5 348.5,150.5C 348.334,155.511 348.501,160.511 349,165.5C 349.758,167.91 351.425,168.91 354,168.5C 355.436,168.441 356.769,168.108 358,167.5C 358.499,161.843 358.666,156.176 358.5,150.5C 359.833,150.5 361.167,150.5 362.5,150.5C 362.666,155.844 362.499,161.177 362,166.5C 359.103,171.155 354.937,172.655 349.5,171C 348.333,169.833 347.167,168.667 346,167.5C 345.501,161.843 345.334,156.176 345.5,150.5 Z"/></g>
<g><path style="opacity:1" fill="#2c253a" d="M 401.5,164.5 C 402.675,164.281 403.675,164.614 404.5,165.5C 401.894,170.548 399.894,170.548 398.5,165.5C 399.791,165.737 400.791,165.404 401.5,164.5 Z"/></g>
<g><path style="opacity:1" fill="#dbdad9" d="M 431.5,156.5 C 440.156,154.704 443.989,158.037 443,166.5C 440.565,171.224 436.731,172.724 431.5,171C 427.537,166.168 427.537,161.334 431.5,156.5 Z"/></g>
<g><path style="opacity:1" fill="#2a2533" d="M 433.5,158.5 C 437.708,157.938 440.042,159.772 440.5,164C 439.293,169.501 436.459,170.667 432,167.5C 431.068,164.177 431.568,161.177 433.5,158.5 Z"/></g>
<g><path style="opacity:1" fill="#202133" d="M 29.5,167.5 C 31.1667,167.5 32.8333,167.5 34.5,167.5C 34.5,169.833 34.5,172.167 34.5,174.5C 32.8333,174.5 31.1667,174.5 29.5,174.5C 29.5,172.167 29.5,169.833 29.5,167.5 Z"/></g>
<g><path style="opacity:1" fill="#101023" d="M 41.5,167.5 C 42.9778,167.238 44.3112,167.571 45.5,168.5C 44.8333,168.833 44.1667,169.167 43.5,169.5C 42.2867,169.253 41.62,168.586 41.5,167.5 Z"/></g>
<g><path style="opacity:1" fill="#d7cec5" d="M 68.5,166.5 C 77.0568,165.554 79.7235,169.054 76.5,177C 73.9865,178.252 71.3198,178.752 68.5,178.5C 68.5,174.5 68.5,170.5 68.5,166.5 Z"/></g>
<g><path style="opacity:1" fill="#111027" d="M 71.5,168.5 C 73.8896,168.685 74.8896,170.018 74.5,172.5C 74.6578,174.319 73.9911,175.652 72.5,176.5C 71.52,173.914 71.1866,171.247 71.5,168.5 Z"/></g>
<g><path style="opacity:1" fill="#cec8c5" d="M 88.5,169.5 C 90.9775,169.051 92.9775,169.717 94.5,171.5C 93.624,172.251 92.624,172.751 91.5,173C 94.3463,173.879 95.013,175.546 93.5,178C 91.5594,178.743 89.7261,178.576 88,177.5C 87.3123,176.668 87.479,176.002 88.5,175.5C 92.1951,176.251 92.0285,175.585 88,173.5C 87.4209,172.072 87.5876,170.738 88.5,169.5 Z"/></g>
<g><path style="opacity:1" fill="#d1cecf" d="M 104.5,166.5 C 105.5,166.5 106.5,166.5 107.5,166.5C 107.5,167.5 107.5,168.5 107.5,169.5C 109.144,169.286 110.644,169.62 112,170.5C 114.173,177.494 111.673,180.161 104.5,178.5C 104.5,174.5 104.5,170.5 104.5,166.5 Z"/></g>
<g><path style="opacity:1" fill="#d5d5d7" d="M 447.5,156.5 C 450.167,156.5 452.833,156.5 455.5,156.5C 455.5,157.5 455.5,158.5 455.5,159.5C 453.94,159.481 452.44,159.148 451,158.5C 449.72,158.613 448.887,159.28 448.5,160.5C 450.988,162.069 453.488,163.736 456,165.5C 457.033,168.217 456.2,170.051 453.5,171C 450.854,171.497 448.187,171.664 445.5,171.5C 445.281,170.325 445.614,169.325 446.5,168.5C 450.157,170.438 452.157,169.438 452.5,165.5C 445.884,164.933 444.218,161.933 447.5,156.5 Z"/></g>
<g><path style="opacity:1" fill="#101027" d="M 107.5,171.5 C 108.649,171.791 109.316,172.624 109.5,174C 109.167,174.833 108.833,175.667 108.5,176.5C 107.548,174.955 107.215,173.288 107.5,171.5 Z"/></g>
<g><path style="opacity:1" fill="#d7d8d6" d="M 114.5,169.5 C 121.232,168.482 123.232,171.148 120.5,177.5C 113.803,178.834 111.803,176.168 114.5,169.5 Z"/></g>
<g><path style="opacity:1" fill="#3a2740" d="M 115.5,171.5 C 116.833,171.5 118.167,171.5 119.5,171.5C 120.244,174.95 118.91,176.616 115.5,176.5C 115.5,174.833 115.5,173.167 115.5,171.5 Z"/></g>
<g><path style="opacity:1" fill="#d5c7b7" d="M 95.5,166.5 C 96.5,166.5 97.5,166.5 98.5,166.5C 98.5,167.5 98.5,168.5 98.5,169.5C 100.144,169.286 101.644,169.62 103,170.5C 103.497,173.146 103.664,175.813 103.5,178.5C 102.5,178.5 101.5,178.5 100.5,178.5C 99.8333,169.167 99.1667,169.167 98.5,178.5C 97.5,178.5 96.5,178.5 95.5,178.5C 95.5,174.5 95.5,170.5 95.5,166.5 Z"/></g>
<g><path style="opacity:1" fill="#d1cecf" d="M 79.5,169.5 C 85.8311,169.11 88.1644,172.11 86.5,178.5C 83.8806,178.768 81.3806,178.435 79,177.5C 78.3333,176.5 78.3333,175.5 79,174.5C 80.5095,173.91 82.0095,173.244 83.5,172.5C 81.8827,172.331 80.216,171.997 78.5,171.5C 78.8627,170.817 79.1961,170.15 79.5,169.5 Z"/></g>
<g><path style="opacity:1" fill="#bebec5" d="M 38.5,174.5 C 41.8333,174.5 45.1667,174.5 48.5,174.5C 48.5,178.5 48.5,182.5 48.5,186.5C 45.1667,186.5 41.8333,186.5 38.5,186.5C 38.5,182.5 38.5,178.5 38.5,174.5 Z"/></g>
<g><path style="opacity:1" fill="#d3d4d6" d="M 123.5,169.5 C 125.467,169.261 127.301,169.594 129,170.5C 129.497,173.146 129.664,175.813 129.5,178.5C 127.208,178.756 125.041,178.423 123,177.5C 122.333,176.5 122.333,175.5 123,174.5C 124.509,173.91 126.009,173.244 127.5,172.5C 125.883,172.331 124.216,171.997 122.5,171.5C 122.863,170.817 123.196,170.15 123.5,169.5 Z"/></g>
<g><path style="opacity:1" fill="#d2d0cd" d="M 141.5,166.5 C 142.5,166.5 143.5,166.5 144.5,166.5C 144.5,170.5 144.5,174.5 144.5,178.5C 138.515,179.73 135.848,177.396 136.5,171.5C 135.5,171.5 134.5,171.5 133.5,171.5C 133.808,173.924 133.474,176.257 132.5,178.5C 131.516,175.572 131.183,172.572 131.5,169.5C 134.935,170.368 138.269,170.368 141.5,169.5C 141.5,168.5 141.5,167.5 141.5,166.5 Z"/></g>
<g><path style="opacity:1" fill="#101023" d="M 139.5,171.5 C 140.649,171.791 141.316,172.624 141.5,174C 141.167,174.833 140.833,175.667 140.5,176.5C 139.548,174.955 139.215,173.288 139.5,171.5 Z"/></g>
<g><path style="opacity:1" fill="#101023" d="M 41.5,177.5 C 42.8333,177.5 44.1667,177.5 45.5,177.5C 45.5,179.5 45.5,181.5 45.5,183.5C 44.1667,183.5 42.8333,183.5 41.5,183.5C 41.5,181.5 41.5,179.5 41.5,177.5 Z"/></g>
<g><path style="opacity:1" fill="#bbbbc3" d="M 26.5,178.5 C 29.8333,178.5 33.1667,178.5 36.5,178.5C 36.5,181.167 36.5,183.833 36.5,186.5C 33.1667,186.5 29.8333,186.5 26.5,186.5C 26.5,183.833 26.5,181.167 26.5,178.5 Z"/></g>
<g><path style="opacity:1" fill="#101023" d="M 29.5,181.5 C 30.9778,181.238 32.3112,181.571 33.5,182.5C 32.8333,182.833 32.1667,183.167 31.5,183.5C 30.2867,183.253 29.62,182.586 29.5,181.5 Z"/></g>
<g><path style="opacity:1" fill="#d35a97" d="M 32.5,206.5 C 39.169,206.005 42.3356,209.005 42,215.5C 38.5488,221.353 34.2155,222.019 29,217.5C 27.6631,212.872 28.8298,209.205 32.5,206.5 Z"/></g>
<g><path style="opacity:1" fill="#181428" d="M 32.5,209.5 C 39.4863,209.331 41.153,212.164 37.5,218C 30.808,218.116 29.1413,215.282 32.5,209.5 Z"/></g>
<g><path style="opacity:1" fill="#c5486c" d="M 110.5,213.5 C 111.5,213.5 112.5,213.5 113.5,213.5C 113.5,216.5 113.5,219.5 113.5,222.5C 112.5,222.5 111.5,222.5 110.5,222.5C 110.5,219.5 110.5,216.5 110.5,213.5 Z"/></g>
<g><path style="opacity:1" fill="#d04d84" d="M 104.5,213.5 C 106.288,213.215 107.955,213.548 109.5,214.5C 107.777,216.868 107.11,219.534 107.5,222.5C 106.5,222.5 105.5,222.5 104.5,222.5C 104.5,219.5 104.5,216.5 104.5,213.5 Z"/></g>
<g><path style="opacity:1" fill="#a14779" d="M 45.5,213.5 C 47.5,213.5 49.5,213.5 51.5,213.5C 51.5,214.5 51.5,215.5 51.5,216.5C 49.5,216.5 47.5,216.5 45.5,216.5C 45.5,215.5 45.5,214.5 45.5,213.5 Z"/></g>
<g><path style="opacity:1" fill="#ca4d86" d="M 79.5,213.5 C 82.3641,213.064 84.6975,213.897 86.5,216C 80.0652,215.146 79.8986,215.979 86,218.5C 86.6838,219.784 86.5171,220.951 85.5,222C 83.2305,222.758 81.0639,222.591 79,221.5C 78.8333,221.167 78.6667,220.833 78.5,220.5C 79.376,219.749 80.376,219.249 81.5,219C 78.5409,217.954 77.8742,216.121 79.5,213.5 Z"/></g>
<g><path style="opacity:1" fill="#d14f81" d="M 87.5,213.5 C 89.3435,215.279 90.0102,217.612 89.5,220.5C 90.5,220.5 91.5,220.5 92.5,220.5C 92.5,218.167 92.5,215.833 92.5,213.5C 93.5,213.5 94.5,213.5 95.5,213.5C 95.3398,215.199 95.5065,216.866 96,218.5C 97.5095,217.91 99.0095,217.244 100.5,216.5C 99.6086,215.41 98.6086,215.41 97.5,216.5C 96.2888,215.726 96.2888,214.893 97.5,214C 99.4406,213.257 101.274,213.424 103,214.5C 103.497,217.146 103.664,219.813 103.5,222.5C 98.5077,221.351 93.5077,221.184 88.5,222C 87.5562,219.281 87.2229,216.448 87.5,213.5 Z"/></g>
<g><path style="opacity:1" fill="#ec64a5" d="M 43.5,219.5 C 46.2469,219.187 48.9135,219.52 51.5,220.5C 50.1667,220.833 48.8333,221.167 47.5,221.5C 45.6672,221.415 44.3339,220.748 43.5,219.5 Z"/></g>
<g><path style="opacity:1" fill="#d14f81" d="M 68.5,210.5 C 69.5,210.5 70.5,210.5 71.5,210.5C 71.5,213.833 71.5,217.167 71.5,220.5C 72.5,220.5 73.5,220.5 74.5,220.5C 74.5,217.167 74.5,213.833 74.5,210.5C 75.5,210.5 76.5,210.5 77.5,210.5C 77.665,213.85 77.4983,217.183 77,220.5C 74.3333,223.167 71.6667,223.167 69,220.5C 68.5017,217.183 68.335,213.85 68.5,210.5 Z"/></g>
<g><path style="opacity:1" fill="#d3518b" d="M 115.5,213.5 C 122.486,213.331 124.153,216.164 120.5,222C 118.559,222.743 116.726,222.576 115,221.5C 114.278,218.739 114.445,216.073 115.5,213.5 Z"/></g>
<g><path style="opacity:1" fill="#111028" d="M 117.5,215.5 C 118.649,215.791 119.316,216.624 119.5,218C 118.706,221.122 117.706,221.122 116.5,218C 116.743,217.098 117.077,216.265 117.5,215.5 Z"/></g>
<g><path style="opacity:1" fill="#db538c" d="M 124.5,213.5 C 126.467,213.261 128.301,213.594 130,214.5C 130.591,215.483 130.257,216.15 129,216.5C 127.838,215.813 126.672,215.647 125.5,216C 126.891,217.02 128.391,217.853 130,218.5C 130.684,219.784 130.517,220.951 129.5,222C 127.559,222.743 125.726,222.576 124,221.5C 123.312,220.668 123.479,220.002 124.5,219.5C 128.195,220.251 128.028,219.585 124,217.5C 123.421,216.072 123.588,214.738 124.5,213.5 Z"/></g>
<g><path style="opacity:1" fill="#b2b4c5" d="M 368.5,221.5 C 373.43,221.197 378.263,221.531 383,222.5C 383.802,227.419 383.635,232.252 382.5,237C 377.581,237.802 372.748,237.635 368,236.5C 367.222,231.416 367.389,226.416 368.5,221.5 Z"/></g>
<g><path style="opacity:1" fill="#c7558f" d="M 32.5,221.5 C 39.3822,221.582 43.3822,224.915 44.5,231.5C 43.5,231.5 42.5,231.5 41.5,231.5C 40.6076,224.544 36.9409,222.711 30.5,226C 29.1387,227.584 28.472,229.418 28.5,231.5C 27.5,231.5 26.5,231.5 25.5,231.5C 26.2762,227.06 28.6096,223.727 32.5,221.5 Z"/></g>
<g><path style="opacity:1" fill="#1e2028" d="M 369.5,223.5 C 373.5,223.5 377.5,223.5 381.5,223.5C 381.5,227.5 381.5,231.5 381.5,235.5C 377.5,235.5 373.5,235.5 369.5,235.5C 369.5,231.5 369.5,227.5 369.5,223.5 Z"/></g>
<g><path style="opacity:1" fill="#e360a0" d="M 46.5,225.5 C 48.288,225.215 49.9547,225.548 51.5,226.5C 50.6667,226.833 49.8333,227.167 49,227.5C 47.6244,227.316 46.7911,226.649 46.5,225.5 Z"/></g>
<g><path style="opacity:1" fill="#c9c2bc" d="M 451.5,268.5 C 453.585,269.35 455.585,269.684 457.5,269.5C 457.291,270.086 456.957,270.586 456.5,271C 454.687,270.954 453.021,271.12 451.5,271.5C 450.438,270.575 450.438,269.575 451.5,268.5 Z"/></g>
<g><path style="opacity:1" fill="#c6c0b0" d="M 482.5,268.5 C 486.31,269.754 486.31,270.754 482.5,271.5C 482.5,270.5 482.5,269.5 482.5,268.5 Z"/></g>
<g><path style="opacity:1" fill="#e3d9c0" d="M 482.5,272.5 C 483.5,272.5 484.5,272.5 485.5,272.5C 485.5,275.5 485.5,278.5 485.5,281.5C 484.5,281.5 483.5,281.5 482.5,281.5C 482.5,278.5 482.5,275.5 482.5,272.5 Z"/></g>
<g><path style="opacity:1" fill="#d5d4d1" d="M 494.5,274.5 C 496.109,269.21 497.942,269.21 500,274.5C 502.667,271.833 505.333,271.833 508,274.5C 509.836,272.396 512.002,272.062 514.5,273.5C 511.828,275.425 510.828,278.092 511.5,281.5C 509.876,281.64 508.71,280.973 508,279.5C 505.333,282.167 502.667,282.167 500,279.5C 498.951,281.107 497.451,281.773 495.5,281.5C 495.802,278.941 495.468,276.607 494.5,274.5 Z"/></g>
<g><path style="opacity:1" fill="#d9d9db" d="M 442.5,272.5 C 446.757,271.597 449.257,273.264 450,277.5C 451.509,276.91 453.009,276.244 454.5,275.5C 453.609,274.41 452.609,274.41 451.5,275.5C 450.289,274.726 450.289,273.893 451.5,273C 453.167,272.333 454.833,272.333 456.5,273C 457.444,275.719 457.777,278.552 457.5,281.5C 454.315,281.98 451.481,281.314 449,279.5C 447.192,281.396 445.025,281.896 442.5,281C 439.899,278.17 439.899,275.337 442.5,272.5 Z"/></g>
<g><path style="opacity:1" fill="#493548" d="M 443.5,274.5 C 444.5,274.5 445.5,274.5 446.5,274.5C 446.5,276.167 446.5,277.833 446.5,279.5C 445.5,279.5 444.5,279.5 443.5,279.5C 443.5,277.833 443.5,276.167 443.5,274.5 Z"/></g>
<g><path style="opacity:1" fill="#dbddde" d="M 460.5,272.5 C 462.467,272.261 464.301,272.594 466,273.5C 468.249,280.332 466.082,282.665 459.5,280.5C 458.121,277.533 458.454,274.866 460.5,272.5 Z"/></g>
<g><path style="opacity:1" fill="#3b283f" d="M 502.5,274.5 C 505.956,275.536 506.29,277.203 503.5,279.5C 502.548,277.955 502.215,276.288 502.5,274.5 Z"/></g>
<g><path style="opacity:1" fill="#302533" d="M 461.5,274.5 C 462.649,274.791 463.316,275.624 463.5,277C 463.167,277.833 462.833,278.667 462.5,279.5C 461.548,277.955 461.215,276.288 461.5,274.5 Z"/></g>
<g><path style="opacity:1" fill="#b2b4c5" d="M 368.5,276.5 C 373.43,276.197 378.263,276.531 383,277.5C 383.802,282.419 383.635,287.252 382.5,292C 377.581,292.802 372.748,292.635 368,291.5C 367.222,286.416 367.389,281.416 368.5,276.5 Z"/></g>
<g><path style="opacity:1" fill="#d6d4d3" d="M 470.5,270.5 C 471.708,269.218 473.042,269.218 474.5,270.5C 475.154,272.115 475.654,273.782 476,275.5C 476.732,272.289 478.566,270.289 481.5,269.5C 480.5,273.5 479.5,277.5 478.5,281.5C 477.022,281.762 475.689,281.429 474.5,280.5C 473.336,276.987 472.002,273.654 470.5,270.5 Z"/></g>
<g><path style="opacity:1" fill="#1e2028" d="M 369.5,278.5 C 373.5,278.5 377.5,278.5 381.5,278.5C 381.5,282.5 381.5,286.5 381.5,290.5C 377.5,290.5 373.5,290.5 369.5,290.5C 369.5,286.5 369.5,282.5 369.5,278.5 Z"/></g>
<g><path style="opacity:1" fill="#d4dbdc" d="M 436.5,269.5 C 437.5,269.5 438.5,269.5 439.5,269.5C 439.665,273.182 439.499,276.848 439,280.5C 436.936,281.591 434.769,281.758 432.5,281C 431.663,279.989 431.33,278.822 431.5,277.5C 433.143,277.48 434.476,278.147 435.5,279.5C 436.487,276.232 436.82,272.898 436.5,269.5 Z"/></g>
<g><path style="opacity:1" fill="#dbd6d0" d="M 494.5,274.5 C 493.489,277.018 492.156,277.018 490.5,274.5C 489.167,276.167 489.167,277.833 490.5,279.5C 492.936,278.109 493.602,278.609 492.5,281C 490.559,281.743 488.726,281.576 487,280.5C 485.084,272.57 487.584,270.57 494.5,274.5 Z"/></g>
<g><path style="opacity:1" fill="#cbcdc9" d="M 1000.5,279.5 C 1002.05,279.821 1002.71,280.821 1002.5,282.5C 1008.64,283.026 1009.98,285.86 1006.5,291C 1004.53,291.495 1002.53,291.662 1000.5,291.5C 1000.5,287.5 1000.5,283.5 1000.5,279.5 Z"/></g>
<g><path style="opacity:1" fill="#ccdbd8" d="M 1018.5,279.5 C 1019.79,281.048 1020.46,283.048 1020.5,285.5C 1020.17,287.5 1019.83,289.5 1019.5,291.5C 1018.51,287.555 1018.18,283.555 1018.5,279.5 Z"/></g>
<g><path style="opacity:1" fill="#ccdad9" d="M 1055.5,279.5 C 1056.79,281.048 1057.46,283.048 1057.5,285.5C 1057.17,287.5 1056.83,289.5 1056.5,291.5C 1055.98,287.965 1054.98,284.632 1053.5,281.5C 1054.24,280.818 1054.91,280.151 1055.5,279.5 Z"/></g>
<g><path style="opacity:1" fill="#cccfcd" d="M 973.5,279.5 C 975.423,283.029 976.089,287.029 975.5,291.5C 968.935,292.578 966.768,289.911 969,283.5C 970.356,282.62 971.856,282.286 973.5,282.5C 973.5,281.5 973.5,280.5 973.5,279.5 Z"/></g>
<g><path style="opacity:1" fill="#d6d4bc" d="M 1009.5,282.5 C 1010.98,282.238 1012.31,282.571 1013.5,283.5C 1012.08,285.965 1011.08,288.631 1010.5,291.5C 1009.52,288.572 1009.18,285.572 1009.5,282.5 Z"/></g>
<g><path style="opacity:1" fill="#ccdbd8" d="M 1014.5,282.5 C 1015.76,283.514 1016.43,285.014 1016.5,287C 1016.17,288.5 1015.83,290 1015.5,291.5C 1014.52,288.572 1014.18,285.572 1014.5,282.5 Z"/></g>
<g><path style="opacity:1" fill="#c9c9c2" d="M 1035.5,279.5 C 1038.04,279.104 1040.21,279.771 1042,281.5C 1043,284.993 1042.5,288.159 1040.5,291C 1038.25,291.863 1036.42,291.363 1035,289.5C 1034.25,286.076 1034.42,282.743 1035.5,279.5 Z"/></g>
<g><path style="opacity:1" fill="#332437" d="M 1036.5,281.5 C 1040.34,282.446 1041.34,284.779 1039.5,288.5C 1038.68,289.386 1037.68,289.719 1036.5,289.5C 1036.5,286.833 1036.5,284.167 1036.5,281.5 Z"/></g>
<g><path style="opacity:1" fill="#23202c" d="M 970.5,284.5 C 971.5,284.5 972.5,284.5 973.5,284.5C 973.5,286.167 973.5,287.833 973.5,289.5C 972.5,289.5 971.5,289.5 970.5,289.5C 970.5,287.833 970.5,286.167 970.5,284.5 Z"/></g>
<g><path style="opacity:1" fill="#222029" d="M 1002.5,284.5 C 1003.5,284.5 1004.5,284.5 1005.5,284.5C 1005.5,286.167 1005.5,287.833 1005.5,289.5C 1004.5,289.5 1003.5,289.5 1002.5,289.5C 1002.5,287.833 1002.5,286.167 1002.5,284.5 Z"/></g>
<g><path style="opacity:1" fill="#c7c9cb" d="M 978.5,282.5 C 982.938,281.425 984.938,283.092 984.5,287.5C 982.712,287.215 981.045,287.548 979.5,288.5C 979.833,289.5 980.5,290.167 981.5,290.5C 982.451,289.674 983.451,289.508 984.5,290C 982.728,291.487 980.728,291.82 978.5,291C 977.214,288.168 977.214,285.335 978.5,282.5 Z"/></g>
<g><path style="opacity:1" fill="#575168" d="M 48.5,288.5 C 54.6417,284.749 57.475,286.416 57,293.5C 51.1643,297.153 48.331,295.486 48.5,288.5 Z"/></g>
<g><path style="opacity:1" fill="#6f7086" d="M 97.5,286.5 C 103.643,287.026 104.976,289.86 101.5,295C 97.6629,296 95.6629,294.5 95.5,290.5C 95.8029,288.886 96.4695,287.552 97.5,286.5 Z"/></g>
<g><path style="opacity:1" fill="#cacec8" d="M 947.5,279.5 C 949.467,279.261 951.301,279.594 953,280.5C 953.789,284.091 953.622,287.591 952.5,291C 950.559,291.743 948.726,291.576 947,290.5C 946.245,286.745 946.411,283.078 947.5,279.5 Z"/></g>
<g><path style="opacity:1" fill="#23202c" d="M 948.5,281.5 C 949.5,281.5 950.5,281.5 951.5,281.5C 951.5,284.167 951.5,286.833 951.5,289.5C 950.5,289.5 949.5,289.5 948.5,289.5C 948.5,286.833 948.5,284.167 948.5,281.5 Z"/></g>
<g><path style="opacity:1" fill="#c8cdcc" d="M 959.5,279.5 C 960.9,282.178 962.234,285.011 963.5,288C 962.151,288.772 961.318,289.939 961,291.5C 960.517,290.552 960.351,289.552 960.5,288.5C 958.833,288.5 957.167,288.5 955.5,288.5C 956.023,285.122 957.356,282.122 959.5,279.5 Z"/></g>
<g><path style="opacity:1" fill="#c9c3be" d="M 992.5,279.5 C 993.822,279.33 994.989,279.663 996,280.5C 997.068,283.871 998.235,287.204 999.5,290.5C 999.167,290.833 998.833,291.167 998.5,291.5C 995.833,287.5 993.167,287.5 990.5,291.5C 990.167,290.833 989.833,290.167 989.5,289.5C 991.298,286.436 992.298,283.103 992.5,279.5 Z"/></g>
<g><path style="opacity:1" fill="#1b1832" d="M 97.5,288.5 C 98.8333,288.5 100.167,288.5 101.5,288.5C 101.5,290.167 101.5,291.833 101.5,293.5C 100.167,293.5 98.8333,293.5 97.5,293.5C 97.5,291.833 97.5,290.167 97.5,288.5 Z"/></g>
<g><path style="opacity:1" fill="#c7c3ad" d="M 1022.5,289.5 C 1025.04,290.623 1025.04,291.956 1022.5,293.5C 1021.71,292.3 1021.71,290.967 1022.5,289.5 Z"/></g>
<g><path style="opacity:1" fill="#d2cfcc" d="M 1026.5,279.5 C 1028.6,279.201 1030.6,279.534 1032.5,280.5C 1033.43,281.768 1033.59,283.101 1033,284.5C 1031.66,286.342 1030.16,288.008 1028.5,289.5C 1030.08,290.298 1031.74,290.798 1033.5,291C 1024.96,292.514 1023.79,290.681 1030,285.5C 1030.49,284.207 1030.66,282.873 1030.5,281.5C 1028.86,281.48 1027.52,282.147 1026.5,283.5C 1025.37,282.192 1025.37,280.858 1026.5,279.5 Z"/></g>
<g><path style="opacity:1" fill="#d2cfcc" d="M 1044.5,279.5 C 1046.6,279.201 1048.6,279.534 1050.5,280.5C 1051.43,281.768 1051.59,283.101 1051,284.5C 1049.66,286.342 1048.16,288.008 1046.5,289.5C 1048.08,290.298 1049.74,290.798 1051.5,291C 1042.96,292.514 1041.79,290.681 1048,285.5C 1048.49,284.207 1048.66,282.873 1048.5,281.5C 1046.86,281.48 1045.52,282.147 1044.5,283.5C 1043.37,282.192 1043.37,280.858 1044.5,279.5 Z"/></g>
<g><path style="opacity:1" fill="#6a6681" d="M 48.5,288.5 C 47.5,288.5 46.5,288.5 45.5,288.5C 44.8333,297.833 44.1667,297.833 43.5,288.5C 42.5,288.5 41.5,288.5 40.5,288.5C 40.9167,291.079 40.25,293.246 38.5,295C 33.8553,295.265 29.1887,295.432 24.5,295.5C 24.1667,295.333 23.8333,295.167 23.5,295C 24.9563,292.734 25.7896,290.234 26,287.5C 26.5613,286.978 27.228,286.645 28,286.5C 29.8843,288.45 31.2176,290.784 32,293.5C 32.4966,291.19 32.6633,288.857 32.5,286.5C 33.5,286.5 34.5,286.5 35.5,286.5C 35.5,288.833 35.5,291.167 35.5,293.5C 36.5,293.5 37.5,293.5 38.5,293.5C 38.5,291.167 38.5,288.833 38.5,286.5C 42.3293,285.931 45.6627,286.598 48.5,288.5 Z"/></g>
<g><path style="opacity:1" fill="#68657e" d="M 58.5,286.5 C 61.6449,287.077 63.1449,289.077 63,292.5C 62.8149,288.489 64.6482,286.489 68.5,286.5C 68.3367,288.857 68.5034,291.19 69,293.5C 70.8252,291.52 71.6585,289.187 71.5,286.5C 72.8221,286.33 73.9887,286.663 75,287.5C 76.3976,290.293 76.8976,292.96 76.5,295.5C 73.8796,294.478 71.2129,294.478 68.5,295.5C 67.0055,295.291 65.8388,294.624 65,293.5C 64.6924,294.308 64.1924,294.975 63.5,295.5C 62.1936,294.088 61.3603,292.421 61,290.5C 60.7978,292.256 60.2978,293.922 59.5,295.5C 58.5159,292.572 58.1826,289.572 58.5,286.5 Z"/></g>
<g><path style="opacity:1" fill="#6b6980" d="M 89.5,286.5 C 90.5,286.5 91.5,286.5 92.5,286.5C 92.8664,288.905 93.5331,291.238 94.5,293.5C 94.1667,294.167 93.8333,294.833 93.5,295.5C 91.1657,294.518 88.8324,294.351 86.5,295C 87.9292,292.31 88.9292,289.477 89.5,286.5 Z"/></g>
<g><path style="opacity:1" fill="#7e8ca2" d="M 494.5,289.5 C 497.999,289.259 498.332,290.092 495.5,292C 496.167,292.333 496.833,292.667 497.5,293C 495.862,295.133 495.029,297.633 495,300.5C 494.503,298.19 494.337,295.857 494.5,293.5C 493.178,293.33 492.011,293.663 491,294.5C 490.667,296.5 490.333,298.5 490,300.5C 489.503,297.854 489.336,295.187 489.5,292.5C 491.167,292.5 492.833,292.5 494.5,292.5C 494.5,291.5 494.5,290.5 494.5,289.5 Z"/></g>
<g><path style="opacity:1" fill="#7f7b88" d="M 537.5,292.5 C 539.144,292.286 540.644,292.62 542,293.5C 542.497,295.81 542.663,298.143 542.5,300.5C 540.5,300.5 538.5,300.5 536.5,300.5C 535.843,297.159 537.176,295.159 540.5,294.5C 539.284,293.904 537.951,293.737 536.5,294C 537.056,293.617 537.389,293.117 537.5,292.5 Z"/></g>
<g><path style="opacity:1" fill="#838594" d="M 635.5,292.5 C 641.367,292.206 643.033,294.872 640.5,300.5C 638.961,291.354 637.461,291.354 636,300.5C 635.503,297.854 635.336,295.187 635.5,292.5 Z"/></g>
<g><path style="opacity:1" fill="#808696" d="M 475.5,293.5 C 476.561,289.906 477.895,289.74 479.5,293C 477.941,295.642 478.275,297.975 480.5,300C 479.207,300.49 477.873,300.657 476.5,300.5C 476.802,297.941 476.468,295.607 475.5,293.5 Z"/></g>
<g><path style="opacity:1" fill="#6b6e88" d="M 79.5,286.5 C 81.4672,286.261 83.3005,286.594 85,287.5C 85.6877,288.332 85.521,288.998 84.5,289.5C 83.2638,288.754 81.9305,288.421 80.5,288.5C 80.5,290.167 80.5,291.833 80.5,293.5C 82.3307,292.948 83.9974,292.948 85.5,293.5C 84.316,295.046 83.316,296.713 82.5,298.5C 81.3044,298.154 81.3044,297.654 82.5,297C 78.5851,294.355 77.5851,290.855 79.5,286.5 Z"/></g>
<g><path style="opacity:1" fill="#4e4e60" d="M 515.5,292.5 C 518.535,293.412 521.535,293.412 524.5,292.5C 526.425,292.59 527.592,293.59 528,295.5C 528.949,292.8 530.783,291.967 533.5,293C 534.435,295.381 534.768,297.881 534.5,300.5C 531.404,301.093 529.071,300.093 527.5,297.5C 526.304,297.846 526.304,298.346 527.5,299C 526.737,299.944 525.737,300.444 524.5,300.5C 521.53,299.768 518.53,299.601 515.5,300C 512.939,297.51 512.939,295.01 515.5,292.5 Z"/></g>
<g><path style="opacity:1" fill="#78899c" d="M 589.5,292.5 C 595.367,292.206 597.033,294.872 594.5,300.5C 592.961,291.354 591.461,291.354 590,300.5C 589.503,297.854 589.336,295.187 589.5,292.5 Z"/></g>
<g><path style="opacity:1" fill="#878c9e" d="M 444.5,292.5 C 445.873,292.343 447.207,292.51 448.5,293C 449.571,299.106 449.571,300.272 448.5,296.5C 447.5,296.5 446.5,296.5 445.5,296.5C 445.36,298.124 446.027,299.29 447.5,300C 445.393,300.854 444.059,300.188 443.5,298C 444.232,296.235 445.565,295.068 447.5,294.5C 446.726,293.289 445.893,293.289 445,294.5C 444.536,293.906 444.369,293.239 444.5,292.5 Z"/></g>
<g><path style="opacity:1" fill="#868a96" d="M 452.5,292.5 C 454.144,292.286 455.644,292.62 457,293.5C 457.758,295.769 457.591,297.936 456.5,300C 454.888,300.72 453.388,300.554 452,299.5C 451.297,297.071 451.463,294.738 452.5,292.5 Z"/></g>
<g><path style="opacity:1" fill="#2d2439" d="M 453.5,293.5 C 455.484,293.484 456.484,294.484 456.5,296.5C 455.167,300.5 453.833,300.5 452.5,296.5C 452.685,295.416 453.018,294.416 453.5,293.5 Z"/></g>
<g><path style="opacity:1" fill="#88858d" d="M 475.5,293.5 C 475.631,294.239 475.464,294.906 475,295.5C 472.786,292.692 471.286,293.025 470.5,296.5C 470.608,297.442 470.941,298.275 471.5,299C 472.833,299 474.167,299 475.5,299C 469.981,301.486 468.147,299.652 470,293.5C 471.828,292.248 473.661,292.248 475.5,293.5 Z"/></g>
<g><path style="opacity:1" fill="#6b7da3" d="M 499.5,292.5 C 503.893,292.457 504.226,292.957 500.5,294C 498.682,297.387 499.682,299.387 503.5,300C 501.888,300.72 500.388,300.554 499,299.5C 498.297,297.071 498.463,294.738 499.5,292.5 Z"/></g>
<g><path style="opacity:1" fill="#747a95" d="M 507.5,292.5 C 509.144,292.286 510.644,292.62 512,293.5C 512.667,294.167 512.667,294.833 512,295.5C 511.035,293.74 509.868,293.406 508.5,294.5C 510.053,295.439 511.387,296.606 512.5,298C 511.313,300.59 509.48,301.09 507,299.5C 506.333,298.833 506.333,298.167 507,297.5C 507.965,299.26 509.132,299.594 510.5,298.5C 508.947,297.561 507.613,296.394 506.5,295C 506.743,294.098 507.077,293.265 507.5,292.5 Z"/></g>
<g><path style="opacity:1" fill="#5a576b" d="M 544.5,292.5 C 548.165,293.652 551.831,293.819 555.5,293C 551.625,293.986 551.625,295.153 555.5,296.5C 556.429,297.689 556.762,299.022 556.5,300.5C 552.467,299.564 548.467,299.231 544.5,299.5C 545.833,299.167 547.167,298.833 548.5,298.5C 545.176,297.841 543.843,295.841 544.5,292.5 Z"/></g>
<g><path style="opacity:1" fill="#717ea0" d="M 582.5,292.5 C 584.167,292.5 585.833,292.5 587.5,292.5C 587.665,295.85 587.498,299.183 587,302.5C 585.506,303.747 584.006,303.747 582.5,302.5C 583.397,302.331 584.397,301.998 585.5,301.5C 581.456,299.65 580.456,296.65 582.5,292.5 Z"/></g>
<g><path style="opacity:1" fill="#3a2f31" d="M 583.5,293.5 C 584.693,293.97 585.36,294.97 585.5,296.5C 584.709,300.285 583.709,300.285 582.5,296.5C 582.685,295.416 583.018,294.416 583.5,293.5 Z"/></g>
<g><path style="opacity:1" fill="#6d7ea2" d="M 620.5,292.5 C 624.893,292.457 625.226,292.957 621.5,294C 619.628,298.453 620.961,300.12 625.5,299C 623.798,300.718 621.965,300.885 620,299.5C 619.297,297.071 619.463,294.738 620.5,292.5 Z"/></g>
<g><path style="opacity:1" fill="#8b8a8f" d="M 482.5,292.5 C 484.144,292.286 485.644,292.62 487,293.5C 487.758,295.769 487.591,297.936 486.5,300C 482.147,300.533 481.814,300.199 485.5,299C 486.99,296.8 486.657,294.966 484.5,293.5C 482.931,294.714 482.098,296.381 482,298.5C 481.322,296.402 481.489,294.402 482.5,292.5 Z"/></g>
<g><path style="opacity:1" fill="#565163" d="M 572.5,290.5 C 579.3,290.459 581.634,293.626 579.5,300C 576.833,300.333 574.167,300.667 571.5,301C 572.949,302.117 574.616,302.784 576.5,303C 574.833,303.667 573.167,303.667 571.5,303C 570.636,301.303 569.303,300.137 567.5,299.5C 565.629,300.767 563.796,300.767 562,299.5C 561.333,298.833 561.333,298.167 562,297.5C 562.965,299.26 564.132,299.594 565.5,298.5C 563.947,297.561 562.613,296.394 561.5,295C 561.645,294.228 561.978,293.561 562.5,293C 565.035,292.383 567.368,292.883 569.5,294.5C 570.524,293.148 571.524,291.815 572.5,290.5 Z"/></g>
<g><path style="opacity:1" fill="#8b8a8f" d="M 628.5,292.5 C 630.144,292.286 631.644,292.62 633,293.5C 633.758,295.769 633.591,297.936 632.5,300C 628.147,300.533 627.814,300.199 631.5,299C 632.99,296.8 632.657,294.966 630.5,293.5C 628.931,294.714 628.098,296.381 628,298.5C 627.322,296.402 627.489,294.402 628.5,292.5 Z"/></g>
<g><path style="opacity:1" fill="#676b81" d="M 602.5,292.5 C 604.144,292.286 605.644,292.62 607,293.5C 607.497,295.81 607.663,298.143 607.5,300.5C 601.612,300.742 599.945,298.076 602.5,292.5 Z"/></g>
<g><path style="opacity:1" fill="#7584a3" d="M 440.5,293.5 C 441.622,295.288 441.789,297.288 441,299.5C 439.612,300.554 438.112,300.72 436.5,300C 435.409,297.936 435.242,295.769 436,293.5C 437.616,292.199 439.116,292.199 440.5,293.5 Z"/></g>
<g><path style="opacity:1" fill="#342b33" d="M 440.5,293.5 C 440.949,295.977 440.283,297.977 438.5,299.5C 436.616,298.307 436.116,296.641 437,294.5C 438.011,293.663 439.178,293.33 440.5,293.5 Z"/></g>
<g><path style="opacity:1" fill="#b8b8c0" d="M 27.5,335.5 C 34.4222,335.188 41.2555,335.521 48,336.5C 48.8112,343.414 48.6445,350.248 47.5,357C 40.5857,357.811 33.7524,357.645 27,356.5C 26.2055,349.42 26.3722,342.42 27.5,335.5 Z"/></g>
<g><path style="opacity:1" fill="#d9d0c7" d="M 68.5,337.5 C 71.2469,337.187 73.9135,337.52 76.5,338.5C 74.9547,339.452 73.288,339.785 71.5,339.5C 71.5,340.5 71.5,341.5 71.5,342.5C 76.8333,343.167 76.8333,343.833 71.5,344.5C 71.5,346.167 71.5,347.833 71.5,349.5C 70.5,349.5 69.5,349.5 68.5,349.5C 68.5,345.5 68.5,341.5 68.5,337.5 Z"/></g>
<g><path style="opacity:1" fill="#d0c9bc" d="M 114.5,337.5 C 115.5,337.5 116.5,337.5 117.5,337.5C 117.5,341.5 117.5,345.5 117.5,349.5C 116.5,349.5 115.5,349.5 114.5,349.5C 114.5,345.5 114.5,341.5 114.5,337.5 Z"/></g>
<g><path style="opacity:1" fill="#111224" d="M 29.5,338.5 C 34.8333,338.5 40.1667,338.5 45.5,338.5C 45.5,343.833 45.5,349.167 45.5,354.5C 40.1667,354.5 34.8333,354.5 29.5,354.5C 29.5,349.167 29.5,343.833 29.5,338.5 Z"/></g>
<g><path style="opacity:1" fill="#c7c8cd" d="M 132.5,337.5 C 133.675,337.281 134.675,337.614 135.5,338.5C 133.948,339.798 132.948,339.465 132.5,337.5 Z"/></g>
<g><path style="opacity:1" fill="#d7cfc5" d="M 105.5,340.5 C 106.5,340.5 107.5,340.5 108.5,340.5C 109.167,349.833 109.833,349.833 110.5,340.5C 111.5,340.5 112.5,340.5 113.5,340.5C 113.5,343.5 113.5,346.5 113.5,349.5C 110.881,349.768 108.381,349.435 106,348.5C 105.503,345.854 105.336,343.187 105.5,340.5 Z"/></g>
<g><path style="opacity:1" fill="#c5c5cc" d="M 36.5,340.5 C 38.8881,341.219 40.3881,342.885 41,345.5C 41.5573,347.615 42.3906,349.615 43.5,351.5C 43,351.833 42.5,352.167 42,352.5C 39,349.833 36,349.833 33,352.5C 32.5,352.167 32,351.833 31.5,351.5C 32.9795,347.72 34.6461,344.053 36.5,340.5 Z"/></g>
<g><path style="opacity:1" fill="#d5cac0" d="M 86.5,340.5 C 92.1764,340.334 97.8431,340.501 103.5,341C 104.444,343.719 104.777,346.552 104.5,349.5C 103.5,349.5 102.5,349.5 101.5,349.5C 100.833,340.167 100.167,340.167 99.5,349.5C 98.5,349.5 97.5,349.5 96.5,349.5C 95.8333,340.167 95.1667,340.167 94.5,349.5C 93.5,349.5 92.5,349.5 91.5,349.5C 90.9384,340.43 89.6051,340.43 87.5,349.5C 86.5159,346.572 86.1826,343.572 86.5,340.5 Z"/></g>
<g><path style="opacity:1" fill="#d7d8ce" d="M 127.5,340.5 C 130.167,340.5 132.833,340.5 135.5,340.5C 135.5,343.5 135.5,346.5 135.5,349.5C 134.5,349.5 133.5,349.5 132.5,349.5C 132.5,347.167 132.5,344.833 132.5,342.5C 131.5,342.5 130.5,342.5 129.5,342.5C 129.808,344.924 129.474,347.257 128.5,349.5C 127.516,346.572 127.183,343.572 127.5,340.5 Z"/></g>
<g><path style="opacity:1" fill="#d1cfce" d="M 78.5,340.5 C 85.4863,340.331 87.153,343.164 83.5,349C 76.4159,349.475 74.7492,346.642 78.5,340.5 Z"/></g>
<g><path style="opacity:1" fill="#221931" d="M 79.5,342.5 C 80.5,342.5 81.5,342.5 82.5,342.5C 82.5,344.167 82.5,345.833 82.5,347.5C 81.5,347.5 80.5,347.5 79.5,347.5C 79.5,345.833 79.5,344.167 79.5,342.5 Z"/></g>
<g><path style="opacity:1" fill="#d1cfce" d="M 138.5,340.5 C 145.486,340.331 147.153,343.164 143.5,349C 136.416,349.475 134.749,346.642 138.5,340.5 Z"/></g>
<g><path style="opacity:1" fill="#221931" d="M 139.5,342.5 C 140.5,342.5 141.5,342.5 142.5,342.5C 142.5,344.167 142.5,345.833 142.5,347.5C 141.5,347.5 140.5,347.5 139.5,347.5C 139.5,345.833 139.5,344.167 139.5,342.5 Z"/></g>
<g><path style="opacity:1" fill="#d3d4d6" d="M 119.5,340.5 C 121.467,340.261 123.301,340.594 125,341.5C 125.497,344.146 125.664,346.813 125.5,349.5C 123.208,349.756 121.041,349.423 119,348.5C 118.333,347.5 118.333,346.5 119,345.5C 120.509,344.91 122.009,344.244 123.5,343.5C 121.883,343.331 120.216,342.997 118.5,342.5C 118.863,341.817 119.196,341.15 119.5,340.5 Z"/></g>
<g><path style="opacity:1" fill="#d7d0cb" d="M 147.5,340.5 C 149.467,340.261 151.301,340.594 153,341.5C 153.591,342.483 153.257,343.15 152,343.5C 150.838,342.813 149.672,342.647 148.5,343C 150.67,343.811 152.337,345.145 153.5,347C 153.355,347.772 153.022,348.439 152.5,349C 150.527,349.495 148.527,349.662 146.5,349.5C 146.281,348.325 146.614,347.325 147.5,346.5C 148.451,347.326 149.451,347.492 150.5,347C 149.437,345.812 148.103,345.312 146.5,345.5C 146.366,343.708 146.699,342.042 147.5,340.5 Z"/></g>
<g><path style="opacity:1" fill="#d33f8b" d="M 1160.5,355.5 C 1169.17,355.334 1177.84,355.5 1186.5,356C 1187.33,356.833 1188.17,357.667 1189,358.5C 1189.67,367.167 1189.67,375.833 1189,384.5C 1188.17,385.333 1187.33,386.167 1186.5,387C 1177.83,387.667 1169.17,387.667 1160.5,387C 1159.67,386.167 1158.83,385.333 1158,384.5C 1157.33,375.833 1157.33,367.167 1158,358.5C 1159.04,357.627 1159.88,356.627 1160.5,355.5 Z"/></g>
<g><path style="opacity:1" fill="#353646" d="M 1200.5,355.5 C 1208.84,355.334 1217.17,355.5 1225.5,356C 1226.93,356.465 1228.1,357.299 1229,358.5C 1229.67,366.833 1229.67,375.167 1229,383.5C 1228.63,384.416 1228.13,385.25 1227.5,386C 1222.78,387.112 1217.94,387.612 1213,387.5C 1208.83,387.333 1204.67,387.167 1200.5,387C 1200,386.5 1199.5,386 1199,385.5C 1197.39,376.602 1197.06,367.602 1198,358.5C 1199.04,357.627 1199.88,356.627 1200.5,355.5 Z"/></g>
<g><path style="opacity:1" fill="#353646" d="M 1240.5,355.5 C 1248.84,355.334 1257.17,355.5 1265.5,356C 1266.93,356.465 1268.1,357.299 1269,358.5C 1269.67,366.833 1269.67,375.167 1269,383.5C 1268.63,384.416 1268.13,385.25 1267.5,386C 1262.78,387.112 1257.94,387.612 1253,387.5C 1248.83,387.333 1244.67,387.167 1240.5,387C 1240,386.5 1239.5,386 1239,385.5C 1237.39,376.602 1237.06,367.602 1238,358.5C 1239.04,357.627 1239.88,356.627 1240.5,355.5 Z"/></g>
<g><path style="opacity:1" fill="#353646" d="M 1280.5,355.5 C 1288.84,355.334 1297.17,355.5 1305.5,356C 1306.93,356.465 1308.1,357.299 1309,358.5C 1309.67,366.833 1309.67,375.167 1309,383.5C 1308.63,384.416 1308.13,385.25 1307.5,386C 1302.78,387.112 1297.94,387.612 1293,387.5C 1288.83,387.333 1284.67,387.167 1280.5,387C 1280,386.5 1279.5,386 1279,385.5C 1277.39,376.602 1277.06,367.602 1278,358.5C 1279.04,357.627 1279.88,356.627 1280.5,355.5 Z"/></g>
<g><path style="opacity:1" fill="#d0d6db" d="M 368.5,364.5 C 369.5,364.5 370.5,364.5 371.5,364.5C 371.5,368.5 371.5,372.5 371.5,376.5C 370.5,376.5 369.5,376.5 368.5,376.5C 368.858,373.102 368.192,369.935 366.5,367C 367.056,365.989 367.722,365.156 368.5,364.5 Z"/></g>
<g><path style="opacity:1" fill="#d2d6da" d="M 412.5,364.5 C 413.5,364.5 414.5,364.5 415.5,364.5C 415.5,368.5 415.5,372.5 415.5,376.5C 414.5,376.5 413.5,376.5 412.5,376.5C 412.665,373.482 412.498,370.482 412,367.5C 411.107,368.711 410.274,368.711 409.5,367.5C 410.34,366.265 411.34,365.265 412.5,364.5 Z"/></g>
<g><path style="opacity:1" fill="#e3ddd4" d="M 345.5,364.5 C 348.044,364.104 350.211,364.771 352,366.5C 353.004,369.993 352.504,373.159 350.5,376C 348.559,376.743 346.726,376.576 345,375.5C 344.245,371.745 344.411,368.078 345.5,364.5 Z"/></g>
<g><path style="opacity:1" fill="#49283f" d="M 346.5,366.5 C 347.496,366.414 348.329,366.748 349,367.5C 349.851,370.053 349.518,372.386 348,374.5C 346.625,372.063 346.125,369.397 346.5,366.5 Z"/></g>
<g><path style="opacity:1" fill="#d5d8d8" d="M 376.5,364.5 C 382.997,364.18 385.164,367.18 383,373.5C 381.695,376.306 379.528,377.14 376.5,376C 373.864,372.1 373.864,368.266 376.5,364.5 Z"/></g>
<g><path style="opacity:1" fill="#482c47" d="M 377.5,366.5 C 378.5,366.5 379.5,366.5 380.5,366.5C 380.663,368.857 380.497,371.19 380,373.5C 379.586,373.957 379.086,374.291 378.5,374.5C 377.52,371.914 377.187,369.247 377.5,366.5 Z"/></g>
<g><path style="opacity:1" fill="#c4c6ca" d="M 393.5,364.5 C 395.423,368.029 396.089,372.029 395.5,376.5C 388.797,377.47 386.464,374.803 388.5,368.5C 390.071,367.691 391.738,367.357 393.5,367.5C 393.5,366.5 393.5,365.5 393.5,364.5 Z"/></g>
<g><path style="opacity:1" fill="#d5d8d8" d="M 429.5,364.5 C 435.997,364.18 438.164,367.18 436,373.5C 434.695,376.306 432.528,377.14 429.5,376C 426.864,372.1 426.864,368.266 429.5,364.5 Z"/></g>
<g><path style="opacity:1" fill="#482c47" d="M 430.5,366.5 C 431.5,366.5 432.5,366.5 433.5,366.5C 433.663,368.857 433.497,371.19 433,373.5C 432.586,373.957 432.086,374.291 431.5,374.5C 430.52,371.914 430.187,369.247 430.5,366.5 Z"/></g>
<g><path style="opacity:1" fill="#f2e1f7" d="M 1171.5,366.5 C 1172.5,366.5 1173.5,366.5 1174.5,366.5C 1174.82,369.572 1174.48,372.572 1173.5,375.5C 1173,372.701 1172,370.201 1170.5,368C 1171.06,367.617 1171.39,367.117 1171.5,366.5 Z"/></g>
<g><path style="opacity:1" fill="#242434" d="M 391.5,368.5 C 393.28,369.99 393.946,371.99 393.5,374.5C 392.5,374.5 391.5,374.5 390.5,374.5C 390.325,372.379 390.659,370.379 391.5,368.5 Z"/></g>
<g><path style="opacity:1" fill="#c7c9cb" d="M 398.5,367.5 C 402.938,366.425 404.938,368.092 404.5,372.5C 402.712,372.215 401.045,372.548 399.5,373.5C 399.833,374.5 400.5,375.167 401.5,375.5C 402.451,374.674 403.451,374.508 404.5,375C 402.728,376.487 400.728,376.82 398.5,376C 397.214,373.168 397.214,370.335 398.5,367.5 Z"/></g>
<g><path style="opacity:1" fill="#dfdcd9" d="M 1251.5,366.5 C 1253.14,366.286 1254.64,366.62 1256,367.5C 1255.83,370 1255.67,372.5 1255.5,375C 1253.36,375.884 1251.69,375.384 1250.5,373.5C 1251.83,373.167 1253.17,372.833 1254.5,372.5C 1251.97,371.483 1251.97,370.316 1254.5,369C 1253.05,369.263 1251.72,369.096 1250.5,368.5C 1250.86,367.817 1251.2,367.15 1251.5,366.5 Z"/></g>
<g><path style="opacity:1" fill="#dad2c9" d="M 1211.5,366.5 C 1216.75,366.64 1217.75,368.806 1214.5,373C 1215.31,373.308 1215.97,373.808 1216.5,374.5C 1214.5,375.833 1212.5,375.833 1210.5,374.5C 1211.83,372.833 1213.17,371.167 1214.5,369.5C 1213.61,368.41 1212.61,368.41 1211.5,369.5C 1210.44,368.575 1210.44,367.575 1211.5,366.5 Z"/></g>
<g><path style="opacity:1" fill="#d3c8bf" d="M 1293.5,366.5 C 1294.5,366.5 1295.5,366.5 1296.5,366.5C 1296.5,369.5 1296.5,372.5 1296.5,375.5C 1294.5,375.167 1292.5,374.833 1290.5,374.5C 1290.54,371.465 1291.54,368.798 1293.5,366.5 Z"/></g>
<g><path style="opacity:1" fill="#d8ddde" d="M 420.5,364.5 C 422.467,364.261 424.301,364.594 426,365.5C 426.789,369.091 426.622,372.591 425.5,376C 422.975,376.896 420.808,376.396 419,374.5C 418.037,370.851 418.537,367.518 420.5,364.5 Z"/></g>
<g><path style="opacity:1" fill="#2e232f" d="M 421.5,366.5 C 422.748,367.334 423.415,368.667 423.5,370.5C 423.167,371.833 422.833,373.167 422.5,374.5C 421.52,371.914 421.187,369.247 421.5,366.5 Z"/></g>
<g><path style="opacity:1" fill="#dddde2" d="M 28.5,380.5 C 33.9956,380.457 35.329,382.623 32.5,387C 32.6448,387.772 32.9781,388.439 33.5,389C 36.5,389.333 39.5,389.667 42.5,390C 44.6596,392.331 46.6596,394.831 48.5,397.5C 46.9224,401.476 44.589,402.143 41.5,399.5C 41.3775,396.956 41.3775,394.456 41.5,392C 38.2423,391.788 35.0757,391.288 32,390.5C 32.3333,393.5 32.6667,396.5 33,399.5C 31.3333,400.833 29.6667,400.833 28,399.5C 28.1319,396.492 28.6319,393.492 29.5,390.5C 29.8464,387.57 28.8464,385.237 26.5,383.5C 27.1925,382.482 27.8592,381.482 28.5,380.5 Z"/></g>
<g><path style="opacity:1" fill="#d4ccc3" d="M 138.5,380.5 C 139.404,381.209 139.737,382.209 139.5,383.5C 137.322,382.796 135.322,382.463 133.5,382.5C 135.291,381.83 136.958,381.163 138.5,380.5 Z"/></g>
<g><path style="opacity:1" fill="#1b1b2d" d="M 29.5,382.5 C 31.337,382.639 31.6704,383.306 30.5,384.5C 29.7025,384.043 29.3691,383.376 29.5,382.5 Z"/></g>
<g><path style="opacity:1" fill="#e6e1d7" d="M 102.5,384.5 C 106.329,384.937 109.995,385.104 113.5,385C 114.783,387.795 114.783,390.628 113.5,393.5C 112.526,391.257 112.192,388.924 112.5,386.5C 111.5,386.5 110.5,386.5 109.5,386.5C 108.833,395.833 108.167,395.833 107.5,386.5C 106.5,386.5 105.5,386.5 104.5,386.5C 104.808,388.924 104.474,391.257 103.5,393.5C 102.516,390.572 102.183,387.572 102.5,384.5 Z"/></g>
<g><path style="opacity:1" fill="#d7d0cb" d="M 92.5,391.5 C 91.7569,385.297 94.2569,383.297 100,385.5C 101.916,393.43 99.4157,395.43 92.5,391.5 Z"/></g>
<g><path style="opacity:1" fill="#141235" d="M 95.5,386.5 C 98.9563,387.536 99.2896,389.203 96.5,391.5C 95.5481,389.955 95.2148,388.288 95.5,386.5 Z"/></g>
<g><path style="opacity:1" fill="#d2d6d9" d="M 125.5,384.5 C 127.467,384.261 129.301,384.594 131,385.5C 131.688,386.332 131.521,386.998 130.5,387.5C 129.264,386.754 127.93,386.421 126.5,386.5C 126.5,388.167 126.5,389.833 126.5,391.5C 128.331,390.948 129.997,390.948 131.5,391.5C 130.691,393.071 130.357,394.738 130.5,396.5C 129.127,396.657 127.793,396.49 126.5,396C 127.258,394.636 126.758,393.469 125,392.5C 124.278,389.739 124.445,387.073 125.5,384.5 Z"/></g>
<g><path style="opacity:1" fill="#d7d8d6" d="M 142.5,384.5 C 149.232,383.482 151.232,386.148 148.5,392.5C 141.803,393.834 139.803,391.168 142.5,384.5 Z"/></g>
<g><path style="opacity:1" fill="#3a2740" d="M 143.5,386.5 C 144.833,386.5 146.167,386.5 147.5,386.5C 148.244,389.95 146.91,391.616 143.5,391.5C 143.5,389.833 143.5,388.167 143.5,386.5 Z"/></g>
<g><path style="opacity:1" fill="#d1cecf" d="M 116.5,384.5 C 122.831,384.11 125.164,387.11 123.5,393.5C 120.881,393.768 118.381,393.435 116,392.5C 115.333,391.5 115.333,390.5 116,389.5C 117.509,388.91 119.009,388.244 120.5,387.5C 118.883,387.331 117.216,386.997 115.5,386.5C 115.863,385.817 116.196,385.15 116.5,384.5 Z"/></g>
<g><path style="opacity:1" fill="#d1cecf" d="M 133.5,384.5 C 139.831,384.11 142.164,387.11 140.5,393.5C 137.881,393.768 135.381,393.435 133,392.5C 132.333,391.5 132.333,390.5 133,389.5C 134.509,388.91 136.009,388.244 137.5,387.5C 135.883,387.331 134.216,386.997 132.5,386.5C 132.863,385.817 133.196,385.15 133.5,384.5 Z"/></g>
<g><path style="opacity:1" fill="#d4d2ce" d="M 92.5,391.5 C 91.8166,393.176 90.4832,393.843 88.5,393.5C 87.8333,384.167 87.1667,384.167 86.5,393.5C 83.1662,393.214 79.9995,393.214 77,393.5C 74.3333,390.833 71.6667,390.833 69,393.5C 68.5,393.167 68,392.833 67.5,392.5C 69.0291,389.246 70.3624,385.913 71.5,382.5C 72.5,381.167 73.5,381.167 74.5,382.5C 75.5686,385.539 76.7353,388.539 78,391.5C 78.4966,389.19 78.6633,386.857 78.5,384.5C 79.5,384.5 80.5,384.5 81.5,384.5C 82.1667,393.833 82.8333,393.833 83.5,384.5C 85.8211,384.771 87.8211,384.104 89.5,382.5C 91.8292,384.35 92.1625,386.517 90.5,389C 90.6842,390.376 91.3509,391.209 92.5,391.5 Z"/></g>
<g><path style="opacity:1" fill="#30193c" d="M 72.5,385.5 C 73.782,386.708 73.782,388.042 72.5,389.5C 72.0941,388.443 72.0941,387.109 72.5,385.5 Z"/></g>
<g><path style="opacity:1" fill="#1b1b2d" d="M 29.5,396.5 C 31.337,396.639 31.6704,397.306 30.5,398.5C 29.7025,398.043 29.3691,397.376 29.5,396.5 Z"/></g>
<g><path style="opacity:1" fill="#1b1b2d" d="M 43.5,396.5 C 45.337,396.639 45.6704,397.306 44.5,398.5C 43.7025,398.043 43.3691,397.376 43.5,396.5 Z"/></g>
</svg>
